<?xml version="1.0" encoding="utf-8"?>
<!-- Generator: Adobe Illustrator 24.0.1, SVG Export Plug-In . SVG Version: 6.00 Build 0)  -->
<svg version="1.1" id="Layer_1" xmlns="http://www.w3.org/2000/svg" xmlns:xlink="http://www.w3.org/1999/xlink" x="0px" y="0px"
	 viewBox="0 0 32 32" style="enable-background:new 0 0 32 32;" xml:space="preserve">
<style type="text/css">
	.st0{fill:#243746;}
	.st1{fill:#F47920;}
</style>
<rect x="0" y="0" class="st0" width="32" height="32"/>
<g>
	<g>
		<path class="st1" d="M28.1,10.5l-6.3-6.3L15.9,10L10,4.1l-6.3,6.3l5.9,5.9l-5.9,5.9l6.3,6.3l5.9-5.9l5.9,5.9l6.3-6.3l-5.9-5.9
			L28.1,10.5z M25.2,22.2l-3.4,3.4l-4.4-4.4l3.4-3.4L25.2,22.2z M17.4,11.4L21.8,7l3.4,3.4l-4.4,4.4L17.4,11.4z M12.5,16.3l-5.9-5.9
			L10,7l9.3,9.3L10,25.6l-3.4-3.4L12.5,16.3z"/>
	</g>
</g>
</svg>
