<?xml version="1.0" standalone="no"?>
<!DOCTYPE svg PUBLIC "-//W3C//DTD SVG 20010904//EN"
 "http://www.w3.org/TR/2001/REC-SVG-20010904/DTD/svg10.dtd">
<svg version="1.0" xmlns="http://www.w3.org/2000/svg"
 width="700.000000pt" height="700.000000pt" viewBox="0 0 700.000000 700.000000"
 preserveAspectRatio="xMidYMid meet">
<metadata>
Created by potrace 1.11, written by Peter Selinger 2001-2013
</metadata>
<g transform="translate(0.000000,700.000000) scale(0.100000,-0.100000)"
fill="#000000" stroke="none">
<path d="M3298 6995 c-2 -1 -41 -5 -88 -9 -104 -7 -208 -20 -320 -40 -130 -24
-139 -26 -225 -48 -44 -11 -84 -21 -90 -22 -54 -13 -274 -85 -320 -105 -11 -5
-50 -21 -87 -35 -172 -66 -457 -220 -638 -344 -513 -352 -912 -816 -1183
-1375 -181 -371 -300 -809 -334 -1227 -10 -112 -9 -505 1 -600 7 -77 24 -205
31 -250 6 -32 24 -129 29 -155 48 -244 156 -562 273 -802 463 -956 1333 -1654
2358 -1891 121 -28 243 -50 318 -58 34 -3 65 -8 68 -10 15 -9 235 -19 419 -19
186 0 325 7 420 21 131 19 294 48 345 61 33 8 67 16 75 18 79 16 378 114 475
155 17 8 32 14 35 15 54 18 347 165 397 200 21 14 43 25 49 25 7 0 14 3 16 8
2 4 28 23 58 42 318 198 649 501 896 820 278 359 501 818 614 1260 28 109 68
317 76 391 3 35 8 67 10 70 9 17 19 214 18 399 0 188 -6 331 -19 420 -3 19 -7
56 -10 81 -3 25 -7 54 -9 65 -2 10 -11 60 -21 109 -68 364 -199 718 -395 1070
-77 137 -283 432 -364 522 -214 233 -340 355 -501 484 -418 333 -929 573
-1453 684 -98 20 -244 43 -392 60 -55 7 -526 16 -532 10z m1534 -2857 c-334
-335 -607 -613 -607 -618 0 -5 279 -289 619 -629 l619 -620 -29 -33 c-27 -30
-601 -604 -674 -673 l-31 -29 -624 624 c-343 343 -628 621 -632 617 -4 -4
-280 -280 -613 -612 l-606 -605 -359 360 c-198 198 -362 365 -364 371 -2 6
268 283 600 615 332 333 606 607 609 610 2 3 -267 276 -598 607 l-602 602 367
368 367 368 597 -598 c329 -329 601 -599 606 -600 4 -2 283 271 618 607 l610
610 367 -367 367 -367 -607 -608z"/>
</g>
</svg>
