<svg width="308" height="81" viewBox="0 0 308 81" xmlns="http://www.w3.org/2000/svg"><title>crossroads-church-logo</title><path id="crossroads-church-logo" d="M211.9 52.2h3.3v10.5h.1c1.1-2.4 3.9-3.4 6.3-3.4 5.2 0 6.8 3 6.8 7.3v13H225V66.2c0-2.4-1.5-4-4-4-4 0-5.9 2.6-5.9 6.2v11.2h-3.3V52.2h.1zm-7.2 14c-.5-2.5-2.2-4-4.9-4-4.7 0-6.2 3.7-6.2 7.8 0 3.6 1.7 7.3 5.8 7.3 3.1 0 5-1.8 5.4-4.8h3.3c-.7 4.8-3.8 7.7-8.7 7.7-6.1 0-9.3-4.2-9.3-10.1 0-5.9 3.1-10.6 9.4-10.6 4.5 0 8.1 2.1 8.6 6.8h-3.4v-.1zm49.5-6.4h3.1V64h.1c1.6-3.2 3.8-4.8 7.3-4.6v3.5c-5.3 0-7.2 3-7.2 8v8.8h-3.3V59.8zm-4.8 19.8h-3.1v-3.1h-.1c-1.4 2.5-3.6 3.6-6.4 3.6-5.2 0-6.8-3-6.8-7.3v-13h3.3v13.4c0 2.4 1.5 4 4 4 4 0 5.9-2.6 5.9-6.2V59.8h3.3v19.8h-.1zm38.2-27.4h3.3v10.5h.1c1.1-2.4 3.9-3.4 6.3-3.4 5.2 0 6.8 3 6.8 7.3v13h-3.3V66.2c0-2.4-1.5-4-4-4-4 0-5.9 2.6-5.9 6.2v11.2h-3.3V52.2zm-7.2 14c-.5-2.5-2.2-4-4.9-4-4.7 0-6.2 3.7-6.2 7.8 0 3.6 1.7 7.3 5.8 7.3 3.1 0 5-1.8 5.4-4.8h3.3c-.7 4.8-3.8 7.7-8.7 7.7-6.1 0-9.3-4.2-9.3-10.1 0-5.9 3.1-10.6 9.4-10.6 4.5 0 8.1 2.1 8.6 6.8h-3.4v-.1zm7.6-45.7c0-1.6 1.4-2.2 3.6-2.2 1 0 1.9.2 2.5.8.7.5 1.1 1.3 1.2 2.3h11.4c-.7-8.4-8.8-10-15.7-10-6 0-13.6 2-14.8 8.6V.5h-12.6v15c-2.7-3.1-5.4-4.1-9.4-4.1-6.5 0-11.7 5-13 13 0-7.5-1-13-15.9-13-12.5 0-17.3 3.9-17.3 10.6h12.1c.3-2.7 2.7-3.1 4.4-3.1 1.3 0 4.1.3 4.1 2.6 0 4.7-14.5 1.5-20.2 7.4v-1.2c0-9.8-6.9-16.4-18-16.4-6.5 0-11.7 2.3-14.8 6.5v-6.3c-.5-.1-1.1-.2-1.6-.2-4.9 0-8 2.4-9.7 7.3l-.1-6.4h-11.4v17.6c-3.9-7.3-19.1-5.6-19.1-9.4 0-1.6 1.4-2.2 3.6-2.2 1 0 1.9.2 2.5.8.7.5 1.1 1.3 1.2 2.3h11.4c-.7-8.4-8.8-10-15.7-10-6.6 0-14.9 2.4-14.9 10.4 0 12.3 19.4 8.2 19.4 13.3 0 2.2-2.1 2.8-4 2.8-1.2 0-2.3-.3-3.1-1-.8-.7-1.3-1.6-1.3-2.9H123v-.3c0-11.8-20-8.9-20-13.3 0-1.6 1.4-2.2 3.6-2.2 1 0 1.9.2 2.5.8.7.5 1.1 1.3 1.2 2.3h11.4c-.7-8.4-8.8-10-15.7-10-6.6 0-15 2.4-15 10.4v.3c-2.2-6.6-8.3-10.7-17.1-10.7-6.5 0-11.7 2.3-14.8 6.5v-6.3c-.5-.1-1.1-.2-1.6-.2-4.9 0-8 2.4-9.7 7.3l-.1-6.4H36.3v19.4H23.8c-.4 2.5-1.6 4.7-4.9 4.7-3.7 0-5.5-3.1-5.5-7.9 0-3.7.8-8.6 5.5-8.6 1.4 0 2.5.4 3.2 1.3.8.8 1.3 1.9 1.3 3.3h12.7c-.9-9.4-8.9-13-17.3-13-10.4 0-18 6.2-18 17 0 10.7 7.8 16.4 18 16.4 8.4 0 15.8-3.3 17.4-12v11.1h12.5V33c0-6.8 2.6-9.2 7.7-9.2-.3 1.5-.5 3-.5 4.7 0 10.8 7.8 16.3 18 16.3 7.4 0 13.6-2.9 16.4-9 1.5 7.1 8.9 9 15.6 9 8.7 0 14-2.5 16-6.6 2.5 5.1 8.9 6.6 14.8 6.6 8.9 0 14.1-2.6 16.1-6.8v5.9h12.6V33c0-6.8 2.6-9.2 7.7-9.2-.3 1.5-.5 3-.5 4.7 0 10.8 7.8 16.3 18 16.3 6.9 0 12.8-2.5 15.8-7.8.9 5.4 5.7 7.8 11.1 7.8 4.7 0 8.3-1 11.9-4.3l.6 3.4h13v-.6c-1.6-1.3-1.7-2.2-1.7-4v-6.5c1.3 7 6 12.1 14 12.1 4 0 6.7-1.3 9.7-5.1V44h11.3v-5.6c2.6 5 8.9 6.5 14.7 6.5 11.6 0 17-4.5 17-11 0-11.9-20-9-20-13.4zM74 36.4c-3.2 0-5.4-2.6-5.4-8.6 0-3.5 1.3-8 5.6-8 3.3-.2 5.3 3.3 5.3 8-.1 6-2.1 8.6-5.5 8.6zm32.5 1.6c-1.2 0-2.3-.3-3.1-1-.8-.7-1.3-1.6-1.3-2.9h-11c.6-1.8.9-3.9.9-6.3 0-.8-.1-1.5-.1-2.2 3.6 7.7 18.6 5.1 18.6 9.6-.1 2.1-2.1 2.8-4 2.8zm84.1-1.6c-3.2 0-5.4-2.6-5.4-8.6 0-3.5 1.3-8 5.5-8 3.3-.2 5.3 3.3 5.3 8 0 6-2 8.6-5.4 8.6zm32.6 1.3c-2.5 0-4-1.1-4-2.7 0-4.1 5.4-3.1 9.5-5.1.3 4.4-1.1 7.8-5.5 7.8zm35.2-1.9c-4.1 0-4.9-3.9-4.9-7.2 0-3.5 1.1-7.5 5.3-7.5 4.2 0 5.4 3.8 5.4 7.3-.1 3.7-1.4 7.4-5.8 7.4zm33.1 2.2c-1.2 0-2.3-.3-3.1-1-.9-.7-1.3-1.6-1.3-2.9h-10.8V23.8c1.9 9.9 19.2 6.6 19.2 11.4 0 2.1-2.1 2.8-4 2.8z" fill-rule="nonzero" fill="#6D6E71"/></svg>