<svg id="screwhead-crds" width="256" height="256" viewBox="0 0 64 64">
  <g>
    <path d="M30.9,0.4 C47.9655988,0.4 61.8,14.2344012 61.8,31.3 C61.8,48.3655988 47.9655988,62.2 30.9,62.2 C13.8344012,62.2 0,48.3655988 0,31.3 C0,14.2344012 13.8344012,0.4 30.9,0.4 Z M38.7,14 L30.3,22.4 L22,14.1 L12.9,23.2 L21.3,31.6 L12.9,40 L22,49.1 L30.4,40.7 L38.8,49.1 L47.9,40 L39.5,31.6 L47.8,23.1 L38.7,14 Z M37.4,33.6 L43.7,39.9 L38.8,44.8 L32.5,38.5 L37.4,33.6 Z M22,18.2 L35.3,31.5 L22,44.8 L17.1,39.9 L25.5,31.5 L17.1,23.1 L22,18.2 Z M38.8,18.2 L43.7,23.1 L37.4,29.4 L32.5,24.5 L38.8,18.2 Z"></path>
  </g>
</svg>
