<?xml version="1.0" encoding="UTF-8"?>
<svg width="256px" height="256px" viewBox="0 0 256 256" version="1.1" xmlns="http://www.w3.org/2000/svg" xmlns:xlink="http://www.w3.org/1999/xlink">
    <!-- Generator: Sketch 51.3 (57544) - http://www.bohemiancoding.com/sketch -->
    <title>account-thin</title>
    <desc>Created with Sketch.</desc>
    <defs></defs>
    <g id="account-thin" stroke="none" stroke-width="1" fill="none" fill-rule="evenodd" fill="#000000">
        <path d="M128,10 C62.8145161,10 10,62.8145161 10,128 C10,193.185484 62.8145161,246 128,246 C193.185484,246 246,193.185484 246,128 C246,62.8145161 193.185484,10 128,10 Z M188.903226,210.6 C171.821774,223.208871 150.791129,230.774194 128,230.774194 C105.208871,230.774194 84.1782258,223.208871 67.0967742,210.6 L67.0967742,204.129032 C67.0967742,187.333065 80.7524194,173.677419 97.5483871,173.677419 C102.829839,173.677419 110.633065,179.101613 128,179.101613 C145.414516,179.101613 153.122581,173.677419 158.451613,173.677419 C175.247581,173.677419 188.903226,187.333065 188.903226,204.129032 L188.903226,210.6 Z M203.462903,197.515323 C200.227419,175.437903 181.433065,158.451613 158.451613,158.451613 C148.697581,158.451613 143.987097,163.875806 128,163.875806 C112.012903,163.875806 107.35,158.451613 97.5483871,158.451613 C74.5669355,158.451613 55.7725806,175.437903 52.5370968,197.515323 C35.6459677,179.196774 25.2258065,154.835484 25.2258065,128 C25.2258065,71.3314516 71.3314516,25.2258065 128,25.2258065 C184.668548,25.2258065 230.774194,71.3314516 230.774194,128 C230.774194,154.835484 220.354032,179.196774 203.462903,197.515323 Z M128,63.2903226 C104.875806,63.2903226 86.1290323,82.0370968 86.1290323,105.16129 C86.1290323,128.285484 104.875806,147.032258 128,147.032258 C151.124194,147.032258 169.870968,128.285484 169.870968,105.16129 C169.870968,82.0370968 151.124194,63.2903226 128,63.2903226 Z M128,131.806452 C113.297581,131.806452 101.354839,119.86371 101.354839,105.16129 C101.354839,90.458871 113.297581,78.516129 128,78.516129 C142.702419,78.516129 154.645161,90.458871 154.645161,105.16129 C154.645161,119.86371 142.702419,131.806452 128,131.806452 Z"></path>
    </g>
</svg>