<?xml version="1.0" encoding="UTF-8"?>
<svg width="256px" height="256px" viewBox="0 0 256 256" version="1.1" xmlns="http://www.w3.org/2000/svg" xmlns:xlink="http://www.w3.org/1999/xlink">
    <!-- Generator: Sketch 46.2 (44496) - http://www.bohemiancoding.com/sketch -->
    <title>camera</title>
    <desc>Created with Sketch.</desc>
    <defs></defs>
    <g id="Icons" stroke="none" stroke-width="1" fill="none" fill-rule="evenodd">
        <g id="camera" fill="#000000" fill-rule="nonzero">
            <path d="M128.003354,106.508386 C137.507024,106.508386 145.633222,109.882748 152.381945,116.631471 C159.130669,123.380195 162.505031,131.506392 162.505031,141.010063 C162.505031,150.513733 159.130669,158.63993 152.381945,165.388654 C145.633222,172.137378 137.507024,175.51174 128.003354,175.51174 C118.499684,175.51174 110.373487,172.137378 103.624763,165.388654 C96.8760391,158.63993 93.5016771,150.513733 93.5016771,141.010063 C93.5016771,131.506392 96.8760391,123.380195 103.624763,116.631471 C110.373487,109.882748 118.499684,106.508386 128.003354,106.508386 Z M212.335569,56.671139 C220.801663,56.671139 228.028924,59.6653541 234.017355,65.6537845 C240.005785,71.6422148 243,78.8694764 243,87.3355695 L243,194.671139 C243,203.137232 240.005785,210.364494 234.017355,216.352924 C228.028924,222.341354 220.801663,225.335569 212.335569,225.335569 L43.6644305,225.335569 C35.1983375,225.335569 27.9710758,222.341354 21.9826455,216.352924 C15.9942152,210.364494 13,203.137232 13,194.671139 L13,87.3355695 C13,78.8694764 15.9942152,71.6422148 21.9826455,65.6537845 C27.9710758,59.6653541 35.1983375,56.671139 43.6644305,56.671139 L70.4983229,56.671139 L76.6097419,40.3762578 C78.1258568,36.4629819 80.9009285,33.0886199 84.934957,30.2531719 C88.9689855,27.417724 93.1014049,26 97.3322153,26 L158.667785,26 C162.898595,26 167.031015,27.417724 171.065043,30.2531719 C175.099072,33.0886199 177.874143,36.4629819 179.390258,40.3762578 L185.501677,56.671139 L212.335569,56.671139 Z M128.003354,194.677847 C142.779884,194.677847 155.418648,189.427349 165.919644,178.926353 C176.420641,168.425356 181.671139,155.786593 181.671139,141.010063 C181.671139,126.233533 176.420641,113.594769 165.919644,103.093773 C155.418648,92.5927762 142.779884,87.342278 128.003354,87.342278 C113.226824,87.342278 100.588061,92.5927762 90.0870643,103.093773 C79.5860678,113.594769 74.3355695,126.233533 74.3355695,141.010063 C74.3355695,155.786593 79.5860678,168.425356 90.0870643,178.926353 C100.588061,189.427349 113.226824,194.677847 128.003354,194.677847 Z"></path>
        </g>
    </g>
</svg>