<?xml version="1.0" encoding="UTF-8"?>
<svg width="256px" height="256px" viewBox="0 0 256 256" version="1.1" xmlns="http://www.w3.org/2000/svg" xmlns:xlink="http://www.w3.org/1999/xlink">
    <!-- Generator: Sketch 52.4 (67378) - http://www.bohemiancoding.com/sketch -->
    <title>chart-bar-thin</title>
    <desc>Created with Sketch.</desc>
    <g id="chart-bar-thin" stroke="none" stroke-width="1" fill="none" fill-rule="evenodd">
        <g id="chart-bar-light" transform="translate(10.000000, 40.000000)" fill="#000000" fill-rule="nonzero">
            <path d="M195.4375,132.75 L202.8125,132.75 C204.840625,132.75 206.5,131.090625 206.5,129.0625 L206.5,18.4375 C206.5,16.409375 204.840625,14.75 202.8125,14.75 L195.4375,14.75 C193.409375,14.75 191.75,16.409375 191.75,18.4375 L191.75,129.0625 C191.75,131.090625 193.409375,132.75 195.4375,132.75 Z M151.1875,132.75 L158.5625,132.75 C160.590625,132.75 162.25,131.090625 162.25,129.0625 L162.25,62.6875 C162.25,60.659375 160.590625,59 158.5625,59 L151.1875,59 C149.159375,59 147.5,60.659375 147.5,62.6875 L147.5,129.0625 C147.5,131.090625 149.159375,132.75 151.1875,132.75 Z M62.6875,132.75 L70.0625,132.75 C72.090625,132.75 73.75,131.090625 73.75,129.0625 L73.75,92.1875 C73.75,90.159375 72.090625,88.5 70.0625,88.5 L62.6875,88.5 C60.659375,88.5 59,90.159375 59,92.1875 L59,129.0625 C59,131.090625 60.659375,132.75 62.6875,132.75 Z M106.9375,132.75 L114.3125,132.75 C116.340625,132.75 118,131.090625 118,129.0625 L118,33.1875 C118,31.159375 116.340625,29.5 114.3125,29.5 L106.9375,29.5 C104.909375,29.5 103.25,31.159375 103.25,33.1875 L103.25,129.0625 C103.25,131.090625 104.909375,132.75 106.9375,132.75 Z M232.3125,162.25 L14.75,162.25 L14.75,3.6875 C14.75,1.65015625 13.0998437,0 11.0625,0 L3.6875,0 C1.65015625,0 0,1.65015625 0,3.6875 L0,169.625 C0,173.699687 3.3003125,177 7.375,177 L232.3125,177 C234.349844,177 236,175.349844 236,173.3125 L236,165.9375 C236,163.900156 234.349844,162.25 232.3125,162.25 Z" id="Shape"></path>
        </g>
    </g>
</svg>