<?xml version="1.0" encoding="UTF-8"?>
<svg width="256px" height="256px" viewBox="0 0 256 256" version="1.1" xmlns="http://www.w3.org/2000/svg" xmlns:xlink="http://www.w3.org/1999/xlink">
    <!-- Generator: Sketch 42 (36781) - http://www.bohemiancoding.com/sketch -->
    <title>check-circle</title>
    <desc>Created with Sketch.</desc>
    <defs></defs>
    <g id="Page-1" stroke="none" stroke-width="1" fill="none" fill-rule="evenodd">
        <g id="check-circle" fill-rule="nonzero" fill="#000000">
            <path d="M207.161842,102.72156 C207.161842,99.8650788 206.245261,97.5207469 204.41112,95.6866058 L190.48712,81.9163485 C188.550158,79.9793859 186.253809,79.0118838 183.598075,79.0118838 C180.94234,79.0118838 178.645012,79.9803651 176.709029,81.9163485 L114.277726,144.192929 L79.6944232,109.609627 C77.7574606,107.672664 75.461112,106.705162 72.8053776,106.705162 C70.1486639,106.705162 67.8523154,107.673643 65.916332,109.609627 L51.992332,123.379884 C50.1581909,125.214025 49.24161,127.558357 49.24161,130.414838 C49.24161,133.168498 50.1581909,135.464846 51.992332,137.303884 L107.379867,192.691419 C109.31683,194.628382 111.613178,195.595884 114.268913,195.595884 C117.022573,195.595884 119.366905,194.627402 121.303867,192.691419 L204.38566,109.609627 C206.219801,107.775485 207.136382,105.479137 207.136382,102.720581 L207.161842,102.72156 Z M245.720913,127.510373 C245.720913,148.828714 240.468199,168.491137 229.962772,186.496664 C219.457344,204.502191 205.202357,218.757178 187.19683,229.262606 C169.191303,239.768033 149.52888,245.020747 128.210539,245.020747 C106.892199,245.020747 87.2297759,239.768033 69.224249,229.262606 C51.218722,218.757178 36.9637344,204.502191 26.4583071,186.496664 C15.9528797,168.491137 10.700166,148.828714 10.700166,127.510373 C10.700166,106.192033 15.9528797,86.52961 26.4583071,68.524083 C36.9637344,50.518556 51.218722,36.2635685 69.224249,25.7581411 C87.2297759,15.2527137 106.892199,10 128.210539,10 C149.52888,10 169.191303,15.2527137 187.19683,25.7581411 C205.202357,36.2635685 219.458324,50.518556 229.962772,68.524083 C240.468199,86.52961 245.720913,106.192033 245.720913,127.510373 Z" id="Shape"></path>
        </g>
    </g>
</svg>