<?xml version="1.0" encoding="UTF-8" standalone="no"?>
<svg width="256px" height="256px" viewBox="0 0 256 256" version="1.1" xmlns="http://www.w3.org/2000/svg" xmlns:xlink="http://www.w3.org/1999/xlink">
    <!-- Generator: Sketch 42 (36781) - http://www.bohemiancoding.com/sketch -->
    <title>chevron-down</title>
    <desc>Created with Sketch.</desc>
    <defs></defs>
    <g id="Page-1" stroke="none" stroke-width="1" fill="none" fill-rule="evenodd">
        <g id="chevron-down" fill-rule="nonzero" fill="#000000">
            <path d="M200.731183,135.586367 L92.1357833,244.181767 C90.2822,246.03535 88.0864167,246.962633 85.5494167,246.962633 C83.0124167,246.962633 80.8176167,246.03535 78.96305,244.181767 L54.6678333,219.88655 C52.81425,218.032967 51.8869667,215.837183 51.8869667,213.300183 C51.8869667,210.763183 52.81425,208.568383 54.6678333,206.713817 L132.383617,129 L54.6688167,51.2852 C52.8152333,49.4316167 51.88795,47.2358333 51.88795,44.6988333 C51.88795,42.1618333 52.8152333,39.9670333 54.6688167,38.1124667 L78.9640333,13.81725 C80.8176167,11.9636667 83.0134,11.0363833 85.5504,11.0363833 C88.0874,11.0363833 90.2822,11.9636667 92.1367667,13.81725 L200.731183,122.413633 C202.584767,124.267217 203.51205,126.463 203.51205,129 C203.51205,131.537 202.584767,133.7318 200.731183,135.586367 Z" id="chevron-down" transform="translate(127.699508, 128.999508) rotate(90.000000) translate(-127.699508, -128.999508) "></path>
        </g>
    </g>
</svg>