<?xml version="1.0" encoding="UTF-8"?>
<svg width="256px" height="256px" viewBox="0 0 256 256" version="1.1" xmlns="http://www.w3.org/2000/svg" xmlns:xlink="http://www.w3.org/1999/xlink">
    <!-- Generator: Sketch 42 (36781) - http://www.bohemiancoding.com/sketch -->
    <title>chevron-left</title>
    <desc>Created with Sketch.</desc>
    <defs></defs>
    <g id="Page-1" stroke="none" stroke-width="1" fill="none" fill-rule="evenodd">
        <g id="chevron-left" fill="#000000" fill-rule="nonzero">
            <path d="M200.6564,51.3835333 L123.03895,129 L200.655417,206.616467 C202.507033,208.468083 203.43235,210.660917 203.43235,213.193983 C203.43235,215.72705 202.507033,217.919883 200.655417,219.7715 L176.390683,244.036233 C174.539067,245.88785 172.346233,246.813167 169.813167,246.813167 C167.279117,246.813167 165.087267,245.88785 163.23565,244.036233 L54.7769333,135.577517 C52.9253167,133.7259 52,131.53405 52,129 C52,126.46595 52.9253167,124.2741 54.7769333,122.422483 L163.23565,13.9637667 C165.087267,12.11215 167.2801,11.1868333 169.813167,11.1868333 C172.347217,11.1868333 174.539067,12.11215 176.390683,13.9637667 L200.655417,38.2285 C202.507033,40.0801167 203.43235,42.27295 203.43235,44.8060167 C203.43235,47.3390833 202.508017,49.5319167 200.6564,51.3835333 Z"></path>
        </g>
    </g>
</svg>