<?xml version="1.0" encoding="UTF-8"?>
<svg width="256px" height="256px" viewBox="0 0 256 256" version="1.1" xmlns="http://www.w3.org/2000/svg" xmlns:xlink="http://www.w3.org/1999/xlink">
    <!-- Generator: Sketch 42 (36781) - http://www.bohemiancoding.com/sketch -->
    <title>circle-thin</title>
    <desc>Created with Sketch.</desc>
    <defs></defs>
    <g id="Page-1" stroke="none" stroke-width="1" fill="none" fill-rule="evenodd">
        <g id="circle-thin" fill="#000000" fill-rule="nonzero">
            <path d="M128,30.6686333 C114.455,30.6686333 101.517,33.2793833 89.173,38.50875 C76.828,43.73025 66.201,50.72175 57.298,59.48325 C48.388,68.24475 41.285,78.68775 35.968,90.827 C30.658,102.96625 27.995,115.6955 27.995,129.006883 C27.995,142.326133 30.65,155.0485 35.968,167.18775 C41.278,179.327 48.388,189.776883 57.298,198.5315 C66.208,207.293 76.828,214.277617 89.173,219.506 C101.518,224.7275 114.463,227.346117 128,227.346117 C141.545,227.346117 154.483,224.735367 166.827,219.506 C179.172,214.2845 189.799,207.293 198.702,198.5315 C207.612,189.77 214.715,179.327 220.032,167.18775 C225.342,155.0485 228.004,142.31925 228.004,129.006883 C228.004,115.687633 225.349,102.96625 220.032,90.827 C214.722,78.68775 207.612,68.2378667 198.702,59.48325 C189.792,50.72175 179.172,43.7371333 166.827,38.50875 C154.483,33.28725 141.538,30.6686333 128,30.6686333 Z M248,129 C248,150.409133 242.637,170.1525 231.905,188.228133 C221.173,206.303767 206.615,220.619133 188.233,231.17325 C169.851,241.727367 149.772,247 128,247 C106.228,247 86.15,241.726383 67.768,231.17325 C49.386,220.620117 34.828,206.30475 24.095,188.228133 C13.362,170.151517 8,150.409133 8,129 C8,107.590867 13.363,87.8475 24.095,69.7708833 C34.827,51.6942667 49.385,37.3798833 67.768,26.82675 C86.151,16.2736167 106.228,11 128,11 C149.772,11 169.85,16.2726333 188.233,26.82675 C206.616,37.3808667 221.173,51.69525 231.905,69.7708833 C242.637,87.8465167 248,107.590867 248,129 Z"></path>
        </g>
    </g>
</svg>