<?xml version="1.0" encoding="UTF-8"?>
<svg width="256px" height="256px" viewBox="0 0 256 256" version="1.1" xmlns="http://www.w3.org/2000/svg" xmlns:xlink="http://www.w3.org/1999/xlink">
    <!-- Generator: Sketch 45.2 (43514) - http://www.bohemiancoding.com/sketch -->
    <title>clock-o</title>
    <desc>Created with Sketch.</desc>
    <defs></defs>
    <g id="Icons" stroke="none" stroke-width="1" fill="none" fill-rule="evenodd">
        <g id="clock-o" fill="#000000" fill-rule="nonzero">
            <path d="M147.66093,73.9130815 L147.66093,142.747849 C147.66093,144.181907 147.199164,145.360702 146.275631,146.284235 C145.352098,147.207768 144.173302,147.669535 142.739245,147.669535 L93.574012,147.669535 C92.1399543,147.669535 90.9611589,147.207768 90.0376258,146.284235 C89.1140927,145.360702 88.6523261,144.181907 88.6523261,142.747849 L88.6523261,132.913082 C88.6523261,131.479024 89.1140927,130.300228 90.0376258,129.376695 C90.9611589,128.453162 92.1399543,127.991396 93.574012,127.991396 L127.991396,127.991396 L127.991396,73.9044772 C127.991396,72.4704195 128.453162,71.2916241 129.376695,70.368091 C130.300228,69.4445579 131.479024,68.9827913 132.913082,68.9827913 L142.747849,68.9827913 C144.181907,68.9827913 145.360702,69.4445579 146.284235,70.368091 C147.207768,71.2916241 147.669535,72.4704195 147.669535,73.9044772 L147.66093,73.9130815 Z M211.582616,128 C211.582616,112.839142 207.842594,98.8570804 200.362549,86.0538136 C192.882504,73.2505469 182.740849,63.1088912 169.937582,55.6288464 C157.134315,48.1488017 143.152253,44.4087793 127.991396,44.4087793 C112.830538,44.4087793 98.848476,48.1488017 86.0452093,55.6288464 C73.2419425,63.1088912 63.1002868,73.2505469 55.6202421,86.0538136 C48.1401974,98.8570804 44.400175,112.839142 44.400175,128 C44.400175,143.160858 48.1401974,157.14292 55.6202421,169.946186 C63.1002868,182.749453 73.2419425,192.891109 86.0452093,200.371154 C98.848476,207.851198 112.830538,211.591221 127.991396,211.591221 C143.152253,211.591221 157.134315,207.851198 169.937582,200.371154 C182.740849,192.891109 192.882504,182.749453 200.362549,169.946186 C207.842594,157.14292 211.582616,143.160858 211.582616,128 Z M246,128 C246,149.407613 240.725536,169.151718 230.176608,187.232317 C219.62768,205.312916 205.312916,219.62768 187.232317,230.176608 C169.151718,240.725536 149.407613,246 128,246 C106.592387,246 86.8482816,240.725536 68.7676827,230.176608 C50.6870838,219.62768 36.3723203,205.312916 25.8233922,187.232317 C15.2744641,169.151718 10,149.407613 10,128 C10,106.592387 15.2744641,86.8482816 25.8233922,68.7676827 C36.3723203,50.6870838 50.6870838,36.3723203 68.7676827,25.8233922 C86.8482816,15.2744641 106.592387,10 128,10 C149.407613,10 169.151718,15.2744641 187.232317,25.8233922 C205.312916,36.3723203 219.62768,50.6870838 230.176608,68.7676827 C240.725536,86.8482816 246,106.592387 246,128 Z"></path>
        </g>
    </g>
</svg>