<?xml version="1.0" encoding="UTF-8"?>
<svg width="256px" height="256px" viewBox="0 0 256 256" version="1.1" xmlns="http://www.w3.org/2000/svg" xmlns:xlink="http://www.w3.org/1999/xlink">
    <!-- Generator: Sketch 45 (43475) - http://www.bohemiancoding.com/sketch -->
    <title>close-thin</title>
    <desc>Created with Sketch.</desc>
    <defs></defs>
    <g id="Icons" stroke="none" stroke-width="1" fill="none" fill-rule="evenodd">
        <g id="close-thin" fill="#000000">
            <path d="M128,106 L43.5355339,21.5355339 L43.5355339,21.5355339 C41.5829124,19.5829124 38.4170876,19.5829124 36.4644661,21.5355339 L21.5355339,36.4644661 L21.5355339,36.4644661 C19.5829124,38.4170876 19.5829124,41.5829124 21.5355339,43.5355339 L106,128 L21.5355339,212.464466 L21.5355339,212.464466 C19.5829124,214.417088 19.5829124,217.582912 21.5355339,219.535534 L36.4644661,234.464466 L36.4644661,234.464466 C38.4170876,236.417088 41.5829124,236.417088 43.5355339,234.464466 L128,150 L212.464466,234.464466 L212.464466,234.464466 C214.417088,236.417088 217.582912,236.417088 219.535534,234.464466 L234.464466,219.535534 L234.464466,219.535534 C236.417088,217.582912 236.417088,214.417088 234.464466,212.464466 L150,128 L234.464466,43.5355339 L234.464466,43.5355339 C236.417088,41.5829124 236.417088,38.4170876 234.464466,36.4644661 L219.535534,21.5355339 L219.535534,21.5355339 C217.582912,19.5829124 214.417088,19.5829124 212.464466,21.5355339 L128,106 Z" id="icon-close-thin"></path>
        </g>
    </g>
</svg>