<?xml version="1.0" encoding="UTF-8"?>
<svg width="256px" height="256px" viewBox="0 0 256 256" version="1.1" xmlns="http://www.w3.org/2000/svg" xmlns:xlink="http://www.w3.org/1999/xlink">
    <!-- Generator: Sketch 42 (36781) - http://www.bohemiancoding.com/sketch -->
    <title>close</title>
    <desc>Created with Sketch.</desc>
    <defs></defs>
    <g id="Page-1" stroke="none" stroke-width="1" fill="none" fill-rule="evenodd">
        <g id="close" fill-rule="nonzero" fill="#000000">
            <path d="M246,199.912458 C246,205.209877 244.145903,209.712682 240.43771,213.420875 L213.420875,240.43771 C209.712682,244.145903 205.209877,246 199.912458,246 C194.615039,246 190.112233,244.145903 186.40404,240.43771 L128,182.03367 L69.5959596,240.43771 C65.8877666,244.145903 61.3849607,246 56.0875421,246 C50.7901235,246 46.2873176,244.145903 42.5791246,240.43771 L15.5622896,213.420875 C11.8540965,209.712682 10,205.209877 10,199.912458 C10,194.615039 11.8540965,190.112233 15.5622896,186.40404 L73.96633,128 L15.5622896,69.5959596 C11.8540965,65.8877666 10,61.3849607 10,56.0875421 C10,50.7901235 11.8540965,46.2873176 15.5622896,42.5791246 L42.5791246,15.5622896 C46.2873176,11.8540965 50.7901235,10 56.0875421,10 C61.3849607,10 65.8877666,11.8540965 69.5959596,15.5622896 L128,73.96633 L186.40404,15.5622896 C190.112233,11.8540965 194.615039,10 199.912458,10 C205.209877,10 209.712682,11.8540965 213.420875,15.5622896 L240.43771,42.5791246 C244.145903,46.2873176 246,50.7901235 246,56.0875421 C246,61.3849607 244.145903,65.8877666 240.43771,69.5959596 L182.03367,128 L240.43771,186.40404 C244.145903,190.112233 246,194.615039 246,199.912458 Z" id="Shape"></path>
        </g>
    </g>
</svg>