<?xml version="1.0" encoding="UTF-8"?>
<svg width="256px" height="256px" viewBox="0 0 256 256" version="1.1" xmlns="http://www.w3.org/2000/svg" xmlns:xlink="http://www.w3.org/1999/xlink">
    <!-- Generator: Sketch 51.2 (57519) - http://www.bohemiancoding.com/sketch -->
    <title>credit-card</title>
    <desc>Created with Sketch.</desc>
    <defs></defs>
    <g id="credit-card" stroke="none" stroke-width="1" fill="none" fill-rule="evenodd" fill="#000000">
        <path d="M226.333333,36 L29.6666667,36 C18.8090278,36 10,44.8090278 10,55.6666667 L10,199.888889 C10,210.746528 18.8090278,219.555556 29.6666667,219.555556 L226.333333,219.555556 C237.190972,219.555556 246,210.746528 246,199.888889 L246,55.6666667 C246,44.8090278 237.190972,36 226.333333,36 Z M29.6666667,49.1111111 L226.333333,49.1111111 C229.938889,49.1111111 232.888889,52.0611111 232.888889,55.6666667 L232.888889,75.3333333 L23.1111111,75.3333333 L23.1111111,55.6666667 C23.1111111,52.0611111 26.0611111,49.1111111 29.6666667,49.1111111 Z M226.333333,206.444444 L29.6666667,206.444444 C26.0611111,206.444444 23.1111111,203.494444 23.1111111,199.888889 L23.1111111,114.666667 L232.888889,114.666667 L232.888889,199.888889 C232.888889,203.494444 229.938889,206.444444 226.333333,206.444444 Z M88.6666667,172.027778 L88.6666667,175.305556 C88.6666667,178.009722 86.4541667,180.222222 83.75,180.222222 L54.25,180.222222 C51.5458333,180.222222 49.3333333,178.009722 49.3333333,175.305556 L49.3333333,172.027778 C49.3333333,169.323611 51.5458333,167.111111 54.25,167.111111 L83.75,167.111111 C86.4541667,167.111111 88.6666667,169.323611 88.6666667,172.027778 Z M167.333333,172.027778 L167.333333,175.305556 C167.333333,178.009722 165.120833,180.222222 162.416667,180.222222 L106.694444,180.222222 C103.990278,180.222222 101.777778,178.009722 101.777778,175.305556 L101.777778,172.027778 C101.777778,169.323611 103.990278,167.111111 106.694444,167.111111 L162.416667,167.111111 C165.120833,167.111111 167.333333,169.323611 167.333333,172.027778 Z"></path>
    </g>
</svg>