<?xml version="1.0" encoding="UTF-8"?>
<svg width="256px" height="256px" viewBox="0 0 256 256" version="1.1" xmlns="http://www.w3.org/2000/svg" xmlns:xlink="http://www.w3.org/1999/xlink">
    <!-- Generator: Sketch 44 (41411) - http://www.bohemiancoding.com/sketch -->
    <title>download</title>
    <desc>Created with Sketch.</desc>
    <defs></defs>
    <g id="256x256" stroke="none" stroke-width="1" fill="none" fill-rule="evenodd">
        <g id="download" fill-rule="nonzero" fill="#000000">
            <path d="M191.5365,209.548754 C191.5365,207.09128 190.638272,204.96462 188.841817,203.168773 C187.045362,201.372927 184.917981,200.475004 182.459675,200.475004 C180.001368,200.475004 177.873987,201.372927 176.077532,203.168773 C174.281077,204.96462 173.38285,207.09128 173.38285,209.548754 C173.38285,212.006228 174.281077,214.132888 176.077532,215.928734 C177.873987,217.724581 180.001368,218.622504 182.459675,218.622504 C184.917981,218.622504 187.045362,217.724581 188.841817,215.928734 C190.638272,214.132888 191.5365,212.006228 191.5365,209.548754 Z M227.8438,209.548754 C227.8438,207.09128 226.945572,204.96462 225.149117,203.168773 C223.352662,201.372927 221.225281,200.475004 218.766975,200.475004 C216.308668,200.475004 214.181287,201.372927 212.384832,203.168773 C210.588377,204.96462 209.69015,207.09128 209.69015,209.548754 C209.69015,212.006228 210.588377,214.132888 212.384832,215.928734 C214.181287,217.724581 216.308668,218.622504 218.766975,218.622504 C221.225281,218.622504 223.352662,217.724581 225.149117,215.928734 C226.945572,214.132888 227.8438,212.006228 227.8438,209.548754 Z M245.99745,177.790628 L245.99745,223.159379 C245.99745,226.940108 244.673746,230.153728 242.026339,232.800239 C239.378931,235.446749 236.164222,236.770004 232.382212,236.770004 L23.6152375,236.770004 C19.8332271,236.770004 16.6185182,235.446749 13.9711109,232.800239 C11.3237036,230.153728 10,226.940108 10,223.159379 L10,177.790628 C10,174.009899 11.3237036,170.796279 13.9711109,168.149769 C16.6185182,165.503258 19.8332271,164.180003 23.6152375,164.180003 L89.564044,164.180003 L108.710472,183.461722 C114.194387,188.754743 120.623804,191.401253 127.998725,191.401253 C135.373645,191.401253 141.803063,188.754743 147.286978,183.461722 L166.575231,164.180003 L232.382212,164.180003 C236.164222,164.180003 239.378931,165.503258 242.026339,168.149769 C244.673746,170.796279 245.99745,174.009899 245.99745,177.790628 Z M199.904198,97.1193179 C201.511552,100.994565 200.8497,104.302703 197.918642,107.043732 L134.380867,170.559983 C132.678963,172.35583 130.551582,173.253753 127.998725,173.253753 C125.445868,173.253753 123.318487,172.35583 121.616582,170.559983 L58.0788073,107.043732 C55.1477493,104.302703 54.4858974,100.994565 56.0932519,97.1193179 C57.7006063,93.4331069 60.489839,91.5900014 64.4609499,91.5900014 L100.76825,91.5900014 L100.76825,28.0737502 C100.76825,25.6162762 101.666477,23.489616 103.462932,21.6937696 C105.259387,19.8979232 107.386768,19 109.845075,19 L146.152375,19 C148.610682,19 150.738062,19.8979232 152.534517,21.6937696 C154.330972,23.489616 155.2292,25.6162762 155.2292,28.0737502 L155.2292,91.5900014 L191.5365,91.5900014 C195.507611,91.5900014 198.296843,93.4331069 199.904198,97.1193179 Z" id="Shape"></path>
        </g>
    </g>
</svg>