<?xml version="1.0" encoding="UTF-8"?>
<svg width="256px" height="256px" viewBox="0 0 256 256" version="1.1" xmlns="http://www.w3.org/2000/svg" xmlns:xlink="http://www.w3.org/1999/xlink">
    <!-- Generator: Sketch 45.2 (43514) - http://www.bohemiancoding.com/sketch -->
    <title>exclamation-circle</title>
    <desc>Created with Sketch.</desc>
    <defs></defs>
    <g id="Icons" stroke="none" stroke-width="1" fill="none" fill-rule="evenodd">
        <g id="exclamation-circle" fill="#000000" fill-rule="nonzero">
            <path d="M126.099643,13.4003571 C146.981071,13.4003571 166.239881,18.5451786 183.876071,28.8348214 C201.512262,39.1244643 215.475179,53.087381 225.764821,70.7235714 C236.054464,88.3597619 241.199286,107.618571 241.199286,128.5 C241.199286,149.381429 236.054464,168.640238 225.764821,186.276429 C215.475179,203.912619 201.512262,217.875536 183.876071,228.165179 C166.239881,238.454821 146.981071,243.599643 126.099643,243.599643 C105.218214,243.599643 85.9594048,238.454821 68.3232143,228.165179 C50.6870238,217.875536 36.7241071,203.912619 26.4344643,186.276429 C16.1448214,168.640238 11,149.381429 11,128.5 C11,107.618571 16.1448214,88.3597619 26.4344643,70.7235714 C36.7241071,53.087381 50.6870238,39.1244643 68.3232143,28.8348214 C85.9594048,18.5451786 105.218214,13.4003571 126.099643,13.4003571 Z M145.285714,200.2925 L145.285714,171.815536 C145.285714,170.416726 144.835298,169.241726 143.934464,168.290536 C143.033631,167.339345 141.934167,166.86375 140.636071,166.86375 L111.856964,166.86375 C110.558869,166.86375 109.409048,167.364524 108.4075,168.366071 C107.405952,169.367619 106.905179,170.51744 106.905179,171.815536 L106.905179,200.2925 C106.905179,201.590595 107.405952,202.740417 108.4075,203.741964 C109.409048,204.743512 110.558869,205.244286 111.856964,205.244286 L140.636071,205.244286 C141.934167,205.244286 143.033631,204.76869 143.934464,203.8175 C144.835298,202.86631 145.285714,201.69131 145.285714,200.2925 L145.285714,200.2925 Z M144.983571,148.735179 L147.677679,55.6667857 C147.677679,54.4694048 147.176905,53.571369 146.175357,52.9726786 C145.17381,52.1725595 143.973631,51.7725 142.574821,51.7725 L109.599286,51.7725 C108.200476,51.7725 107.000298,52.1725595 105.99875,52.9726786 C104.997202,53.571369 104.496429,54.4694048 104.496429,55.6667857 L107.047857,148.735179 C107.047857,149.736726 107.548631,150.612381 108.550179,151.362143 C109.551726,152.111905 110.751905,152.486786 112.150714,152.486786 L139.880714,152.486786 C141.279524,152.486786 142.454524,152.111905 143.405714,151.362143 C144.356905,150.612381 144.882857,149.736726 144.983571,148.735179 L144.983571,148.735179 Z"></path>
        </g>
    </g>
</svg>