<?xml version="1.0" encoding="UTF-8"?>
<svg width="256px" height="256px" viewBox="0 0 256 256" version="1.1" xmlns="http://www.w3.org/2000/svg" xmlns:xlink="http://www.w3.org/1999/xlink">
    <!-- Generator: Sketch 42 (36781) - http://www.bohemiancoding.com/sketch -->
    <title>facebook</title>
    <desc>Created with Sketch.</desc>
    <defs></defs>
    <g id="Page-1" stroke="none" stroke-width="1" fill="none" fill-rule="evenodd">
        <g id="facebook" fill="#000000" fill-rule="nonzero">
            <path d="M186.538462,11.7019231 L186.538462,49.1442308 L164.271635,49.1442308 C156.140224,49.1442308 150.65625,50.8461538 147.819712,54.25 C144.983173,57.6538462 143.564904,62.7596154 143.564904,69.5673077 L143.564904,96.3725962 L185.120192,96.3725962 L179.588942,138.353365 L143.564904,138.353365 L143.564904,246 L100.165865,246 L100.165865,138.353365 L64,138.353365 L64,96.3725962 L100.165865,96.3725962 L100.165865,65.4543269 C100.165865,47.8677885 105.082532,34.228766 114.915865,24.5372596 C124.749199,14.8457532 137.844551,10 154.201923,10 C168.100962,10 178.879808,10.5673077 186.538462,11.7019231 Z"></path>
        </g>
    </g>
</svg>