<?xml version="1.0" encoding="UTF-8"?>
<svg width="256px" height="256px" viewBox="0 0 256 256" version="1.1" xmlns="http://www.w3.org/2000/svg" xmlns:xlink="http://www.w3.org/1999/xlink">
    <!-- Generator: Sketch 42 (36781) - http://www.bohemiancoding.com/sketch -->
    <title>github</title>
    <desc>Created with Sketch.</desc>
    <defs></defs>
    <g id="Page-1" stroke="none" stroke-width="1" fill="none" fill-rule="evenodd">
        <g id="github" fill="#000000" fill-rule="nonzero">
            <path d="M245.020747,130.453029 C245.020747,156.697992 237.549046,180.301909 222.604664,201.266739 C207.660282,222.231568 188.356266,236.739203 164.690656,244.789643 C161.936996,245.312564 159.921693,244.946324 158.646705,243.6919 C157.371718,242.437477 156.734224,240.868714 156.734224,238.986589 L156.734224,205.89371 C156.734224,195.751585 154.082407,188.327867 148.777793,183.622556 C154.592598,182.994855 159.819851,182.053793 164.46151,180.799369 C169.10317,179.544946 173.896614,177.506141 178.84478,174.682954 C183.791967,171.859768 187.923436,168.383419 191.238207,164.252929 C194.552979,160.12244 197.256697,154.633726 199.347402,147.78483 C201.438108,140.935934 202.48395,133.067635 202.48395,124.179934 C202.48395,111.527983 198.454324,100.758158 190.39605,91.8704564 C194.170091,82.3550539 193.762722,71.6900083 189.171983,59.8753195 C186.315502,58.9342573 182.185012,59.5090788 176.778556,61.6007635 C171.3721,63.6924481 166.680498,65.9917344 162.702772,68.5015602 L156.887967,72.2658091 C147.400963,69.5474025 137.608432,68.1881992 127.510373,68.1881992 C117.412315,68.1881992 107.619784,69.5474025 98.1327801,72.2658091 C96.5003651,71.1151867 94.333278,69.704083 91.6295602,68.0315187 C88.9258423,66.3589544 84.6680498,64.34561 78.8532448,61.993444 C73.0384398,59.641278 68.6523651,58.9352365 65.6940415,59.8762988 C61.2061245,71.6919668 60.8486971,82.3570124 64.6227386,91.8714357 C56.5644647,100.759137 52.5348382,111.528963 52.5348382,124.180913 C52.5348382,133.068614 53.5806805,140.910473 55.6713859,147.70649 C57.7620913,154.502506 60.4403485,159.992199 63.7041992,164.174589 C66.9680498,168.356979 71.0740581,171.859768 76.0212448,174.682954 C80.9684315,177.506141 85.7628548,179.544946 90.4045145,180.799369 C95.0461743,182.053793 100.273427,182.994855 106.088232,183.622556 C102.007685,187.386805 99.5086307,192.771718 98.5910705,199.777295 C96.4484647,200.823137 94.1540747,201.607519 91.7059419,202.129461 C89.2578091,202.651402 86.3504066,202.913842 82.9847137,202.913842 C79.6190207,202.913842 76.2778091,201.78966 72.9630373,199.542274 C69.6482656,197.293909 66.8172448,194.02712 64.4709544,189.73995 C62.5330124,186.393842 60.0594191,183.675436 57.0501743,181.58473 C54.0409295,179.493046 51.5164149,178.238622 49.4766307,177.820481 L46.4164647,177.35044 C44.2738589,177.35044 42.7951867,177.585461 41.9794689,178.056481 C41.163751,178.526523 40.908166,179.127784 41.2146722,179.860266 C41.5201992,180.591768 41.9794689,181.324249 42.5915021,182.055751 C43.2035353,182.787253 43.8664896,183.414954 44.5803651,183.937876 L45.651668,184.722257 C47.8961162,185.7681 50.1141245,187.754025 52.3076515,190.681992 C54.5011784,193.609959 56.1071535,196.275485 57.1275353,198.680531 L58.6571286,202.2881 C59.9830373,206.260929 62.2274855,209.476797 65.3894938,211.933743 C68.5515021,214.390689 71.9690954,215.959452 75.6412946,216.639054 C79.3134938,217.318656 82.85839,217.684896 86.2750041,217.736797 C89.6916183,217.788697 92.522639,217.606556 94.7670871,217.187436 L98.2865228,216.559734 C98.2865228,220.532564 98.3119834,225.185975 98.3629046,230.518988 C98.4138257,235.852 98.4392863,238.674207 98.4392863,238.988548 C98.4392863,240.870672 97.776332,242.439436 96.4504232,243.693859 C95.1245145,244.948282 93.083751,245.314523 90.3300913,244.791602 C66.6644813,236.740183 47.3604647,222.232548 32.416083,201.268697 C17.4717012,180.304846 10,156.697992 10,130.453029 C10,108.600017 15.2536929,88.4460083 25.7600996,69.9910041 C36.2665062,51.536 50.5214938,36.9245643 68.5260415,26.1547386 C86.5305892,15.3849129 106.191054,10 127.510373,10 C148.829693,10 168.491137,15.3849129 186.494705,26.1547386 C204.498274,36.9245643 218.754241,51.5369793 229.260647,69.9919834 C239.767054,88.4469876 245.020747,108.600017 245.020747,130.453029 Z"></path>
        </g>
    </g>
</svg>