<?xml version="1.0" encoding="UTF-8"?>
<svg width="256px" height="256px" viewBox="0 0 256 256" version="1.1" xmlns="http://www.w3.org/2000/svg" xmlns:xlink="http://www.w3.org/1999/xlink">
    <!-- Generator: Sketch 45.2 (43514) - http://www.bohemiancoding.com/sketch -->
    <title>link</title>
    <desc>Created with Sketch.</desc>
    <defs></defs>
    <g id="Icons" stroke="none" stroke-width="1" fill="none" fill-rule="evenodd">
        <g id="link" fill="#000000" fill-rule="nonzero">
            <path d="M224.5615,32.3275 L223.6795,31.4455 C203.0855,10.8515 169.3875,10.8515 148.7935,31.4455 L101.0815,79.1645 C80.4875,99.7585 80.4875,133.4565 101.0815,154.0435 L101.9635,154.9255 C103.6785,156.6405 105.4985,158.1875 107.3745,159.6225 L124.8395,142.1575 C122.8025,140.9535 120.8775,139.5185 119.1275,137.7685 L118.2455,136.8865 C107.0665,125.7075 107.0665,107.5145 118.2455,96.3355 L165.9575,48.6235 C177.1365,37.4445 195.3295,37.4445 206.5085,48.6235 L207.3905,49.5055 C218.5695,60.6845 218.5695,78.8845 207.3905,90.0565 L185.8025,111.6445 C189.5475,120.8985 191.3255,130.7615 191.1715,140.6035 L224.5545,107.2205 C245.1485,86.6265 245.1485,52.9285 224.5545,32.3415 L224.5615,32.3275 Z M154.0435,101.0745 C152.3285,99.3595 150.5085,97.8125 148.6325,96.3845 L131.1675,113.8495 C133.2045,115.0535 135.1295,116.4885 136.8795,118.2385 L137.7615,119.1205 C148.9405,130.2995 148.9405,148.4925 137.7615,159.6715 L90.0425,207.3905 C78.8635,218.5695 60.6705,218.5695 49.4915,207.3905 L48.6095,206.5085 C37.4305,195.3225 37.4305,177.1365 48.6095,165.9575 L70.1975,144.3695 C66.4525,135.1155 64.6745,125.2525 64.8285,115.4105 L31.4455,148.7935 C10.8515,169.3875 10.8515,203.0855 31.4455,223.6795 L32.3275,224.5615 C52.9215,245.1555 86.6195,245.1555 107.2135,224.5615 L154.9255,176.8495 C175.5195,156.2555 175.5195,122.5575 154.9255,101.9635 L154.0435,101.0815 L154.0435,101.0745 Z"></path>
        </g>
    </g>
</svg>