<?xml version="1.0" encoding="UTF-8"?>
<svg width="256px" height="256px" viewBox="0 0 256 256" version="1.1" xmlns="http://www.w3.org/2000/svg" xmlns:xlink="http://www.w3.org/1999/xlink">
    <!-- Generator: Sketch 45 (43475) - http://www.bohemiancoding.com/sketch -->
    <title>map-marker</title>
    <desc>Created with Sketch.</desc>
    <defs></defs>
    <g id="Icons" stroke="none" stroke-width="1" fill="none" fill-rule="evenodd">
        <g id="map-marker" fill-rule="nonzero" fill="#000000">
            <path d="M166.982777,88.6695285 C166.982777,77.8108453 163.142371,68.5410977 155.461559,60.8602858 C147.780747,53.179474 138.511,49.339068 127.652317,49.339068 C116.793633,49.339068 107.523886,53.179474 99.8430739,60.8602858 C92.1622621,68.5410977 88.3218561,77.8108453 88.3218561,88.6695285 C88.3218561,99.5282118 92.1622621,108.797959 99.8430739,116.478771 C107.523886,124.159583 116.793633,127.999989 127.652317,127.999989 C138.511,127.999989 147.780747,124.159583 155.461559,116.478771 C163.142371,108.797959 166.982777,99.5282118 166.982777,88.6695285 L166.982777,88.6695285 Z M206.321842,88.6695285 C206.321842,99.8322319 204.632522,108.998727 201.253883,116.169015 L145.325641,235.089665 C143.685079,238.468305 141.252918,241.132784 138.029157,243.083102 C134.805395,245.03342 131.349317,246.005711 127.660921,245.999975 C123.972525,245.994239 120.516447,245.021948 117.292685,243.083102 C114.068924,241.144256 111.688389,238.479777 110.151079,235.089665 L54.0679591,116.169015 C50.6893197,108.998727 49,99.8322319 49,88.6695285 C49,66.952162 56.68368,48.4126669 72.05104,33.0510432 C87.4183999,17.6894194 105.957895,10.0057394 127.669525,10.0000032 C149.381156,9.99426698 167.920651,17.677947 183.288011,33.0510432 C198.655371,48.4241394 206.339051,66.9636345 206.339051,88.6695285 L206.321842,88.6695285 Z" id="icon-map-marker"></path>
        </g>
    </g>
</svg>