<?xml version="1.0" encoding="UTF-8"?>
<svg width="256px" height="256px" viewBox="0 0 256 256" version="1.1" xmlns="http://www.w3.org/2000/svg" xmlns:xlink="http://www.w3.org/1999/xlink">
    <!-- Generator: Sketch 50.2 (55047) - http://www.bohemiancoding.com/sketch -->
    <title>media-podcast</title>
    <desc>Created with Sketch.</desc>
    <defs></defs>
    <g id="media-podcast" stroke="none" stroke-width="1" fill="none" fill-rule="evenodd">
        <g transform="translate(56.000000, 18.000000)" fill="#000000" fill-rule="nonzero" id="Shape">
            <path d="M30.8570701,41.150981 C30.8570701,29.7201507 34.8570578,20.0039512 42.8570411,12.0023695 C50.8570244,4.00078768 60.5712818,0 71.9998291,0 C83.4283749,0 93.1426323,4.00078768 101.142616,12.0023695 C109.142599,20.0039512 113.142588,29.7201507 113.142588,41.150981 L113.142588,109.735949 C113.142588,121.166779 109.142599,130.882979 101.142616,138.884561 C93.1426323,146.886143 83.4283749,150.88693 71.9998291,150.88693 C60.5712818,150.88693 50.8570244,146.886143 42.8570411,138.884561 C34.8570578,130.882979 30.8570701,121.166779 30.8570701,109.735949 L30.8570701,41.150981 Z M138.856812,85.7312112 C140.285378,85.7312112 141.499665,86.2313108 142.499661,87.2315068 C143.499655,88.2317012 143.999657,89.4462325 143.999657,90.8750835 L143.999657,109.735949 C143.999657,121.738318 141.28538,132.811931 135.856819,142.956793 C130.428258,153.101656 122.999706,161.531887 113.571157,168.247501 C104.142609,174.963115 93.7140638,179.178229 82.2855181,180.892854 L82.2855181,200.611033 L111.428306,200.611033 C112.856872,200.611033 114.071159,201.111134 115.071155,202.111328 C116.071149,203.111524 116.571151,204.326054 116.571151,205.754905 L116.571151,214.328026 C116.571151,215.756877 116.071149,216.971407 115.071155,217.971603 C114.071159,218.971798 112.856872,219.471899 111.428306,219.471899 L32.5713505,219.471899 C31.1427851,219.471899 29.9284979,218.971798 28.9285018,217.971603 C27.9285073,216.971407 27.428506,215.756877 27.428506,214.328026 L27.428506,205.754905 C27.428506,204.326054 27.9285073,203.111524 28.9285018,202.111328 C29.9284979,201.111134 31.1427851,200.611033 32.5713505,200.611033 L61.7141385,200.611033 L61.7141385,180.892854 C50.2855928,179.178229 39.8570479,174.963115 30.4284992,168.247501 C20.9999499,161.531887 13.5713984,153.101656 8.14283778,142.956793 C2.71427705,132.811931 0,121.738318 0,109.735949 L0,90.8750835 C0,89.4462325 0.500000914,88.2317012 1.49999641,87.2315068 C2.49999191,86.2313108 3.71427903,85.7312112 5.14284496,85.7312112 L15.4285347,85.7312112 C16.8571005,85.7312112 18.0713876,86.2313108 19.0713831,87.2315068 C20.0713786,88.2317012 20.5713795,89.4462325 20.5713795,90.8750835 L20.5713795,109.735949 C20.5713795,119.166382 22.9285168,127.810948 27.6427907,135.669641 C32.3570658,143.528332 38.6427671,149.743845 46.4998898,154.31618 C54.3570108,158.888512 62.9284193,161.174676 72.2141138,161.174676 C81.4998082,161.174676 90.0712167,158.817068 97.9283378,154.101851 C105.78546,149.386635 111.999731,143.028238 116.571151,135.026657 C121.14257,127.025075 123.428277,118.451954 123.428277,109.307293 L123.428277,90.8750835 C123.428277,89.4462325 123.928278,88.2317012 124.928273,87.2315068 C125.928269,86.2313108 127.142556,85.7312112 128.571122,85.7312112 L138.856812,85.7312112 Z"></path>
        </g>
    </g>
</svg>