<?xml version="1.0" encoding="UTF-8"?>
<svg width="256px" height="256px" viewBox="0 0 256 256" version="1.1" xmlns="http://www.w3.org/2000/svg" xmlns:xlink="http://www.w3.org/1999/xlink">
    <!-- Generator: Sketch 50.2 (55047) - http://www.bohemiancoding.com/sketch -->
    <title>media-video</title>
    <desc>Created with Sketch.</desc>
    <defs></defs>
    <g id="media-video" stroke="none" stroke-width="1" fill="none" fill-rule="evenodd">
        <g transform="translate(39.000000, 26.000000)" fill="#000000" fill-rule="nonzero" id="Shape">
            <path d="M168.208819,84.995565 C172.44049,87.3670546 175.283638,90.6607884 176.738276,94.8767721 C178.192914,99.0927558 178.192914,103.308734 176.738276,107.524717 C175.283638,111.740701 172.44049,115.034435 168.208819,117.405925 L28.5637616,199.617567 C24.5965726,201.989056 20.3649022,202.779553 15.8687566,201.989056 C11.3726108,201.198559 7.60378118,199.090571 4.56226745,195.665084 C1.52075372,192.239596 0,188.155367 0,183.412388 L0,18.9891028 C0,13.7191278 1.58687556,9.43726757 4.76062687,6.14353376 C7.93437818,2.84980013 11.7693298,0.873558707 16.2654754,0.214809667 C20.761621,-0.443939562 24.8610539,0.412433772 28.5637616,2.78392341 L168.208819,84.995565 Z"></path>
        </g>
    </g>
</svg>