<?xml version="1.0" encoding="UTF-8"?>
<svg width="256px" height="256px" viewBox="0 0 256 256" version="1.1" xmlns="http://www.w3.org/2000/svg" xmlns:xlink="http://www.w3.org/1999/xlink">
    <!-- Generator: Sketch 42 (36781) - http://www.bohemiancoding.com/sketch -->
    <title>menu</title>
    <desc>Created with Sketch.</desc>
    <defs></defs>
    <g id="Page-1" stroke="none" stroke-width="1" fill="none" fill-rule="evenodd">
        <g id="menu" fill-rule="nonzero" fill="#000000">
            <path d="M246,197.166667 L246,216.833333 C246,219.496528 245.02691,221.801215 243.080729,223.747396 C241.134549,225.693576 238.829861,226.666667 236.166667,226.666667 L19.8333333,226.666667 C17.1701389,226.666667 14.8654514,225.693576 12.9192708,223.747396 C10.9730903,221.801215 10,219.496528 10,216.833333 L10,197.166667 C10,194.503472 10.9730903,192.198785 12.9192708,190.252604 C14.8654514,188.306424 17.1701389,187.333333 19.8333333,187.333333 L236.166667,187.333333 C238.829861,187.333333 241.134549,188.306424 243.080729,190.252604 C245.02691,192.198785 246,194.503472 246,197.166667 Z M246,118.5 L246,138.166667 C246,140.829861 245.02691,143.134549 243.080729,145.080729 C241.134549,147.02691 238.829861,148 236.166667,148 L19.8333333,148 C17.1701389,148 14.8654514,147.02691 12.9192708,145.080729 C10.9730903,143.134549 10,140.829861 10,138.166667 L10,118.5 C10,115.836806 10.9730903,113.532118 12.9192708,111.585938 C14.8654514,109.639757 17.1701389,108.666667 19.8333333,108.666667 L236.166667,108.666667 C238.829861,108.666667 241.134549,109.639757 243.080729,111.585938 C245.02691,113.532118 246,115.836806 246,118.5 Z M246,39.8333333 L246,59.5 C246,62.1631944 245.02691,64.4678819 243.080729,66.4140625 C241.134549,68.3602431 238.829861,69.3333333 236.166667,69.3333333 L19.8333333,69.3333333 C17.1701389,69.3333333 14.8654514,68.3602431 12.9192708,66.4140625 C10.9730903,64.4678819 10,62.1631944 10,59.5 L10,39.8333333 C10,37.1701389 10.9730903,34.8654514 12.9192708,32.9192708 C14.8654514,30.9730903 17.1701389,30 19.8333333,30 L236.166667,30 C238.829861,30 241.134549,30.9730903 243.080729,32.9192708 C245.02691,34.8654514 246,37.1701389 246,39.8333333 Z" id="Shape"></path>
        </g>
    </g>
</svg>