<?xml version="1.0" encoding="UTF-8"?>
<svg width="256px" height="256px" viewBox="0 0 256 256" version="1.1" xmlns="http://www.w3.org/2000/svg" xmlns:xlink="http://www.w3.org/1999/xlink">
    <!-- Generator: Sketch 51.3 (57544) - http://www.bohemiancoding.com/sketch -->
    <title>menu-thin</title>
    <desc>Created with Sketch.</desc>
    <defs></defs>
    <g id="menu-thin" stroke="none" stroke-width="1" fill="none" fill-rule="evenodd" fill="#000000">
        <path d="M242.852679,47.6875 L14.1473214,47.6875 C12.4091038,47.6875 11,46.5915304 11,45.2395833 L11,35.4479167 C11,34.0959696 12.4091038,33 14.1473214,33 L242.852679,33 C244.590896,33 246,34.0959696 246,35.4479167 L246,45.2395833 C246,46.5915304 244.590896,47.6875 242.852679,47.6875 Z M242.852679,135.8125 L14.1473214,135.8125 C12.4091038,135.8125 11,134.71653 11,133.364583 L11,123.572917 C11,122.22097 12.4091038,121.125 14.1473214,121.125 L242.852679,121.125 C244.590896,121.125 246,122.22097 246,123.572917 L246,133.364583 C246,134.71653 244.590896,135.8125 242.852679,135.8125 Z M242.852679,223.9375 L14.1473214,223.9375 C12.4091038,223.9375 11,222.84153 11,221.489583 L11,211.697917 C11,210.34597 12.4091038,209.25 14.1473214,209.25 L242.852679,209.25 C244.590896,209.25 246,210.34597 246,211.697917 L246,221.489583 C246,222.84153 244.590896,223.9375 242.852679,223.9375 Z"></path>
    </g>
</svg>