<?xml version="1.0" encoding="UTF-8"?>
<svg width="256px" height="256px" viewBox="0 0 256 256" version="1.1" xmlns="http://www.w3.org/2000/svg" xmlns:xlink="http://www.w3.org/1999/xlink">
    <!-- Generator: Sketch 44.1 (41455) - http://www.bohemiancoding.com/sketch -->
    <title>play-thin</title>
    <desc>Created with Sketch.</desc>
    <defs></defs>
    <g id="256x256" stroke="none" stroke-width="1" fill="none" fill-rule="evenodd">
        <g id="play-thin" fill-rule="nonzero" fill="#000000">
            <path d="M128,246 C62.8303995,246 10,193.1696 10,128 C10,62.8303995 62.8303995,10 128,10 C193.1696,10 246,62.8303995 246,128 C246,193.1696 193.1696,246 128,246 Z M127.5,236 C187.422895,236 236,187.422895 236,127.5 C236,67.5771046 187.422895,19 127.5,19 C67.5771046,19 19,67.5771046 19,127.5 C19,187.422895 67.5771046,236 127.5,236 Z M106.752202,87.4098467 L173.600769,127.518987 C175.968671,128.939728 176.736496,132.011029 175.315755,134.37893 C174.893506,135.082678 174.304517,135.671667 173.600769,136.093916 L106.752202,176.203057 C104.384301,177.623797 101.313,176.855972 99.8922589,174.488071 C99.4260127,173.710994 99.1797235,172.821812 99.1797235,171.915592 L99.1797235,91.6973113 C99.1797235,88.9358876 101.4183,86.6973113 104.179724,86.6973113 C105.085943,86.6973113 105.975125,86.9436005 106.752202,87.4098467 Z" id="Oval"></path>
        </g>
    </g>
</svg>