<?xml version="1.0" encoding="UTF-8" standalone="no"?>
<svg width="256px" height="256px" viewBox="0 0 256 256" version="1.1" xmlns="http://www.w3.org/2000/svg" xmlns:xlink="http://www.w3.org/1999/xlink">
    <!-- Generator: Sketch 42 (36781) - http://www.bohemiancoding.com/sketch -->
    <title>question-circle</title>
    <desc>Created with Sketch.</desc>
    <defs></defs>
    <g id="Page-1" stroke="none" stroke-width="1" fill="none" fill-rule="evenodd">
        <g id="question-circle" fill-rule="nonzero" fill="#000000">
            <path d="M147.666667,201.75 L147.666667,172.25 C147.666667,170.815972 147.205729,169.638021 146.283854,168.716146 C145.361979,167.794271 144.184028,167.333333 142.75,167.333333 L113.25,167.333333 C111.815972,167.333333 110.638021,167.794271 109.716146,168.716146 C108.794271,169.638021 108.333333,170.815972 108.333333,172.25 L108.333333,201.75 C108.333333,203.184028 108.794271,204.361979 109.716146,205.283854 C110.638021,206.205729 111.815972,206.666667 113.25,206.666667 L142.75,206.666667 C144.184028,206.666667 145.361979,206.205729 146.283854,205.283854 C147.205729,204.361979 147.666667,203.184028 147.666667,201.75 Z M187,98.5 C187,89.4861111 184.157552,81.1380208 178.472656,73.4557292 C172.78776,65.7734375 165.694444,59.8324653 157.192708,55.6328125 C148.690972,51.4331597 139.984375,49.3333333 131.072917,49.3333333 C106.182292,49.3333333 87.1814236,60.2421875 74.0703125,82.0598958 C72.5338542,84.5182292 72.9435764,86.6692708 75.2994792,88.5130208 L95.5807292,103.877604 C96.2977431,104.492187 97.2708333,104.799479 98.5,104.799479 C100.138889,104.799479 101.419271,104.184896 102.341146,102.955729 C107.769965,95.9904514 112.174479,91.2786458 115.554687,88.8203125 C119.037326,86.3619792 123.44184,85.1328125 128.768229,85.1328125 C133.684896,85.1328125 138.063802,86.4644097 141.904948,89.1276042 C145.746094,91.7907986 147.666667,94.8125 147.666667,98.1927083 C147.666667,102.085069 146.642361,105.209201 144.59375,107.565104 C142.545139,109.921007 139.0625,112.225694 134.145833,114.479167 C127.692708,117.347222 121.777344,121.777344 116.39974,127.769531 C111.022135,133.761719 108.333333,140.189236 108.333333,147.052083 L108.333333,152.583333 C108.333333,154.017361 108.794271,155.195312 109.716146,156.117187 C110.638021,157.039062 111.815972,157.5 113.25,157.5 L142.75,157.5 C144.184028,157.5 145.361979,157.039062 146.283854,156.117187 C147.205729,155.195312 147.666667,154.017361 147.666667,152.583333 C147.666667,150.637153 148.767795,148.101997 150.970052,144.977865 C153.172309,141.853733 155.963542,139.318576 159.34375,137.372396 C162.621528,135.528646 165.131076,134.06901 166.872396,132.99349 C168.613715,131.917969 170.969618,130.125434 173.940104,127.615885 C176.91059,125.106337 179.18967,122.648003 180.777344,120.240885 C182.365017,117.833767 183.799045,114.735243 185.079427,110.945312 C186.359809,107.155382 187,103.006944 187,98.5 Z M246,128 C246,149.407986 240.724826,169.151476 230.174479,187.230469 C219.624132,205.309462 205.309462,219.624132 187.230469,230.174479 C169.151476,240.724826 149.407986,246 128,246 C106.592014,246 86.8485243,240.724826 68.7695312,230.174479 C50.6905382,219.624132 36.3758681,205.309462 25.8255208,187.230469 C15.2751736,169.151476 10,149.407986 10,128 C10,106.592014 15.2751736,86.8485243 25.8255208,68.7695312 C36.3758681,50.6905382 50.6905382,36.3758681 68.7695312,25.8255208 C86.8485243,15.2751736 106.592014,10 128,10 C149.407986,10 169.151476,15.2751736 187.230469,25.8255208 C205.309462,36.3758681 219.624132,50.6905382 230.174479,68.7695312 C240.724826,86.8485243 246,106.592014 246,128 Z" id="Shape"></path>
        </g>
    </g>
</svg>