<?xml version="1.0" encoding="UTF-8"?>
<svg width="256px" height="256px" viewBox="0 0 256 256" version="1.1" xmlns="http://www.w3.org/2000/svg" xmlns:xlink="http://www.w3.org/1999/xlink">
    <!-- Generator: Sketch 42 (36781) - http://www.bohemiancoding.com/sketch -->
    <title>search</title>
    <desc>Created with Sketch.</desc>
    <defs></defs>
    <g id="Page-1" stroke="none" stroke-width="1" fill="none" fill-rule="evenodd">
        <g id="search" fill-rule="nonzero" fill="#000000">
            <path d="M240.698218,209.667105 L184.255946,153.224833 C192.769898,139.230958 197.671022,122.828531 197.671022,105.249835 C197.671022,54.2221374 153.439549,10 102.402516,10 C51.3748181,10 10,51.3748181 10,102.402516 C10,153.439549 54.212802,197.671022 105.249835,197.671022 C122.221726,197.671022 138.110701,193.068633 151.777834,185.077468 L208.518842,241.837146 C214.092119,247.391753 223.08218,247.391753 228.627451,241.837146 L242.714681,227.768588 C248.259952,222.213981 246.24349,215.221712 240.698218,209.67644 L240.698218,209.667105 Z M38.4358519,102.39318 C38.4358519,67.0677488 67.0677488,38.417181 102.39318,38.417181 C137.737282,38.417181 169.216499,69.9057327 169.216499,105.2405 C169.216499,140.575266 140.584602,169.216499 105.2405,169.216499 C69.8963973,169.216499 38.4265165,137.727947 38.4265165,102.39318 L38.4358519,102.39318 Z" id="Shape"></path>
        </g>
    </g>
</svg>