<?xml version="1.0" encoding="UTF-8"?>
<svg width="256px" height="256px" viewBox="0 0 256 256" version="1.1" xmlns="http://www.w3.org/2000/svg" xmlns:xlink="http://www.w3.org/1999/xlink">
    <!-- Generator: Sketch 51.3 (57544) - http://www.bohemiancoding.com/sketch -->
    <title>search-thin</title>
    <desc>Created with Sketch.</desc>
    <defs></defs>
    <g id="search-thin" stroke="none" stroke-width="1" fill="none" fill-rule="evenodd" fill="#000000">
        <path d="M244.375275,231.976661 L184.91724,172.518627 C183.857136,171.458523 182.474391,170.905425 180.999463,170.905425 L176.252038,170.905425 C192.061423,153.805478 201.740638,130.990186 201.740638,105.870319 C201.740638,52.911186 158.829452,10 105.870319,10 C52.911186,10 10,52.911186 10,105.870319 C10,158.829452 52.911186,201.740638 105.870319,201.740638 C130.990186,201.740638 153.805478,192.061423 170.905425,176.29813 L170.905425,180.999463 C170.905425,182.474391 171.504614,183.857136 172.518627,184.91724 L231.976661,244.375275 C234.142962,246.541575 237.645916,246.541575 239.812216,244.375275 L244.375275,239.812216 C246.541575,237.645916 246.541575,234.142962 244.375275,231.976661 Z M105.870319,186.991358 C61.0232899,186.991358 24.7492798,150.717348 24.7492798,105.870319 C24.7492798,61.0232899 61.0232899,24.7492798 105.870319,24.7492798 C150.717348,24.7492798 186.991358,61.0232899 186.991358,105.870319 C186.991358,150.717348 150.717348,186.991358 105.870319,186.991358 Z"></path>
    </g>
</svg>