<?xml version="1.0" encoding="UTF-8"?>
<svg width="256px" height="256px" viewBox="0 0 256 256" version="1.1" xmlns="http://www.w3.org/2000/svg" xmlns:xlink="http://www.w3.org/1999/xlink">
    <!-- Generator: Sketch 47 (45396) - http://www.bohemiancoding.com/sketch -->
    <title>share</title>
    <desc>Created with Sketch.</desc>
    <defs></defs>
    <g id="Icons" stroke="none" stroke-width="1" fill="none" fill-rule="evenodd">
        <g id="share" fill="#000000" fill-rule="nonzero">
            <path d="M166.681137,166.997714 L233.268624,100.410228 C235.662638,98.0162136 236.859645,95.1772944 236.859645,91.8934699 C236.859645,88.6096454 235.662638,85.7707262 233.268624,83.3767122 L166.681137,16.7892258 C162.895912,12.8768844 158.545727,11.9941358 153.630583,14.1409802 C148.588324,16.2878246 146.067194,20.0094924 146.067194,25.3059835 L146.067194,55.5701338 C131.060469,55.5701338 117.441425,56.7989197 105.210062,59.2564916 C92.978698,61.7140635 82.7317532,64.9307991 74.4692271,68.9066984 C66.2067009,72.8825978 59.017597,77.8648304 52.9019152,83.8533964 C46.7862335,89.8419623 41.9628956,95.8623072 38.4319015,101.914431 C34.9009074,107.966555 32.0937671,114.837869 30.0104806,122.528375 C27.9271941,130.21888 26.5712924,137.249089 25.9427754,143.619002 C25.3142585,149.988915 25,156.955567 25,164.518956 C25,187.343302 35.5294243,212.815893 56.588273,240.93673 C57.8523689,242.447995 59.4271923,243.203628 61.3127431,243.203628 C62.1954916,243.203628 63.0146823,243.012955 63.770315,242.631607 C66.5456763,241.494627 67.7426833,239.414872 67.361336,236.392341 C61.8106133,191.753513 65.7194237,161.930737 79.0877673,146.924013 C84.8856596,140.363426 93.0810969,135.603646 103.674079,132.644673 C114.267061,129.6857 128.391038,128.202682 146.046008,128.19562 L146.046008,158.45977 C146.046008,163.756261 148.567138,167.477929 153.609397,169.624774 C155.120663,170.253291 156.635459,170.567549 158.153787,170.567549 C161.430549,170.567549 164.269469,169.370542 166.670544,166.976528 L166.681137,166.997714 Z"></path>
        </g>
    </g>
</svg>