<?xml version="1.0" encoding="UTF-8"?>
<svg width="256px" height="256px" viewBox="0 0 256 256" version="1.1" xmlns="http://www.w3.org/2000/svg" xmlns:xlink="http://www.w3.org/1999/xlink">
    <!-- Generator: Sketch 42 (36781) - http://www.bohemiancoding.com/sketch -->
    <title>twitter</title>
    <desc>Created with Sketch.</desc>
    <defs></defs>
    <g id="Page-1" stroke="none" stroke-width="1" fill="none" fill-rule="evenodd">
        <g id="twitter" fill="#000000" fill-rule="nonzero">
            <path d="M246,54.7614213 C239.311337,64.5448393 231.225042,72.8807107 221.741117,79.7690355 C221.840948,81.1666667 221.890863,83.2631134 221.890863,86.0583756 C221.890863,99.036379 219.994078,111.989425 216.200508,124.917513 C212.406937,137.845601 206.641709,150.249577 198.904822,162.129442 C191.167936,174.009306 181.958545,184.516497 171.27665,193.651015 C160.594755,202.785533 147.716582,210.073181 132.642132,215.513959 C117.567682,220.954738 101.445008,223.675127 84.2741117,223.675127 C57.2199662,223.675127 32.4619289,216.437394 10,201.961929 C13.4940778,202.361252 17.3874788,202.560914 21.680203,202.560914 C44.142132,202.560914 64.1582064,195.672589 81.7284264,181.895939 C71.2461929,181.696277 61.8620981,178.476734 53.5761421,172.23731 C45.2901861,165.997885 39.5998308,158.036379 36.5050761,148.352792 C39.7994924,148.851946 42.8443316,149.101523 45.6395939,149.101523 C49.9323181,149.101523 54.1751269,148.552453 58.3680203,147.454315 C47.1869712,145.158206 37.927665,139.59264 30.5901015,130.757614 C23.2525381,121.922589 19.5837563,111.664975 19.5837563,99.9847716 L19.5837563,99.3857868 C26.3722504,103.179357 33.6598985,105.225888 41.4467005,105.525381 C34.857868,101.132826 29.6167513,95.392555 25.7233503,88.3045685 C21.8299492,81.2165821 19.8832487,73.5296108 19.8832487,65.2436548 C19.8832487,56.4585448 22.0795262,48.322335 26.4720812,40.8350254 C38.5516074,55.7098139 53.251692,67.6146362 70.572335,76.5494924 C87.892978,85.4843486 106.436548,90.4509306 126.203046,91.4492386 C125.404399,87.6556684 125.005076,83.9619289 125.005076,80.3680203 C125.005076,66.9906937 129.722081,55.5850254 139.156091,46.1510152 C148.590102,36.7170051 159.99577,32 173.373096,32 C187.349408,32 199.129442,37.0913706 208.713198,47.2741117 C219.594755,45.177665 229.827411,41.284264 239.411168,35.5939086 C235.717428,47.0744501 228.629442,55.9593909 218.147208,62.248731 C227.431472,61.250423 236.715736,58.7546531 246,54.7614213 Z"></path>
        </g>
    </g>
</svg>