<?xml version="1.0" encoding="UTF-8"?>
<svg width="256px" height="256px" viewBox="0 0 256 256" version="1.1" xmlns="http://www.w3.org/2000/svg" xmlns:xlink="http://www.w3.org/1999/xlink">
    <!-- Generator: Sketch 42 (36781) - http://www.bohemiancoding.com/sketch -->
    <title>usd</title>
    <desc>Created with Sketch.</desc>
    <defs></defs>
    <g id="Page-1" stroke="none" stroke-width="1" fill="none" fill-rule="evenodd">
        <g id="usd" fill-rule="nonzero" fill="#000000">
            <path d="M189.745026,166.060268 C189.745026,179.493304 185.381782,191.06064 176.655293,200.762277 C167.928804,210.463914 156.593139,216.456101 142.648298,218.738839 L142.648298,241.785714 C142.648298,243.014881 142.253632,244.024554 141.464302,244.814732 C140.674971,245.604911 139.666382,246 138.438534,246 L120.678595,246 C119.538451,246 118.551787,245.582961 117.718605,244.748884 C116.885423,243.914807 116.468831,242.927083 116.468831,241.785714 L116.468831,218.738839 C110.680407,217.948661 105.089315,216.587798 99.6955553,214.65625 C94.3017959,212.724702 89.8508481,210.771205 86.3427119,208.795759 C82.8345757,206.820313 79.5895497,204.71317 76.6076339,202.47433 C73.6257182,200.235491 71.586614,198.589286 70.4903214,197.535714 C69.3940289,196.482143 68.6266241,195.691964 68.1881071,195.165179 C66.6971492,193.321429 66.6094458,191.521577 67.9249968,189.765625 L81.4751729,171.986607 C82.0890967,171.108631 83.0976859,170.581845 84.5009404,170.40625 C85.8164914,170.230655 86.8689323,170.625744 87.6582629,171.591518 L87.9213732,171.854911 C97.8318579,180.546875 108.487822,186.034226 119.889264,188.316964 C123.13429,189.019345 126.379316,189.370536 129.624342,189.370536 C136.728318,189.370536 142.977186,187.482887 148.370945,183.707589 C153.764704,179.932292 156.461584,174.576637 156.461584,167.640625 C156.461584,165.182292 155.803809,162.855655 154.488257,160.660714 C153.172706,158.465774 151.703674,156.622024 150.081161,155.129464 C148.458648,153.636905 145.893324,151.990699 142.385188,150.190848 C138.877051,148.390997 135.982839,146.986235 133.70255,145.976563 C131.422262,144.96689 127.914126,143.540179 123.178142,141.696429 C119.757709,140.291667 117.060829,139.194196 115.087503,138.404018 C113.114176,137.613839 110.417296,136.450521 106.996864,134.914063 C103.576431,133.377604 100.8357,132.016741 98.7746695,130.831473 C96.7136395,129.646205 94.2360183,128.087798 91.3418059,126.15625 C88.4475936,124.224702 86.1015275,122.359003 84.3036077,120.559152 C82.5056879,118.759301 80.5981388,116.608259 78.5809605,114.106027 C76.5637822,111.603795 75.0070468,109.057664 73.9107542,106.467634 C72.8144617,103.877604 71.8935759,100.958333 71.148097,97.7098214 C70.402618,94.4613095 70.0298786,91.0372024 70.0298786,87.4375 C70.0298786,75.3214286 74.3273454,64.6979167 82.9222791,55.5669643 C91.5172128,46.4360119 102.699397,40.5535714 116.468831,37.9196429 L116.468831,14.2142857 C116.468831,13.0729167 116.885423,12.0851935 117.718605,11.2511161 C118.551787,10.4170387 119.538451,10 120.678595,10 L138.438534,10 C139.666382,10 140.674971,10.3950893 141.464302,11.1852679 C142.253632,11.9754464 142.648298,12.985119 142.648298,14.2142857 L142.648298,37.3928571 C147.647392,37.9196429 152.493005,38.9293155 157.185137,40.421875 C161.877269,41.9144345 165.692367,43.3850446 168.630431,44.8337054 C171.568496,46.2823661 174.353079,47.9285714 176.984181,49.7723214 C179.615283,51.6160714 181.325499,52.8891369 182.11483,53.5915179 C182.904161,54.2938988 183.561936,54.9084821 184.088157,55.4352679 C185.579114,57.015625 185.798373,58.6837798 184.745932,60.4397321 L174.089968,79.6674107 C173.388341,80.984375 172.379752,81.686756 171.064201,81.7745536 C169.836353,82.0379464 168.652357,81.7306548 167.512213,80.8526786 C167.249103,80.5892857 166.613253,80.0625 165.604664,79.2723214 C164.596075,78.4821429 162.885858,77.3188244 160.474015,75.7823661 C158.062171,74.2459077 155.496847,72.8411458 152.778041,71.5680804 C150.059235,70.2950149 146.792284,69.1536458 142.977186,68.1439732 C139.162087,67.1343006 135.412767,66.6294643 131.729224,66.6294643 C123.3974,66.6294643 116.600387,68.5171131 111.338182,72.2924107 C106.075978,76.0677083 103.444876,80.9404762 103.444876,86.9107143 C103.444876,89.1934524 103.817615,91.3005952 104.563094,93.2321429 C105.308573,95.1636905 106.602198,96.9854911 108.44397,98.6975446 C110.285741,100.409598 112.017884,101.858259 113.640397,103.043527 C115.26291,104.228795 117.718605,105.589658 121.007483,107.126116 C124.29636,108.662574 126.949388,109.847842 128.966567,110.68192 C130.983745,111.515997 134.053364,112.723214 138.175424,114.303571 C142.823705,116.059524 146.375692,117.442336 148.831388,118.452009 C151.287083,119.461682 154.619813,120.99814 158.829576,123.061384 C163.039339,125.124628 166.350143,126.990327 168.761987,128.658482 C171.17383,130.326637 173.892636,132.521577 176.918403,135.243304 C179.944171,137.96503 182.268311,140.752604 183.890824,143.606027 C185.513337,146.459449 186.894666,149.817708 188.03481,153.680804 C189.174954,157.543899 189.745026,161.670387 189.745026,166.060268 Z" id="Shape"></path>
        </g>
    </g>
</svg>