<?xml version="1.0" encoding="UTF-8"?>
<svg width="18px" height="18px" viewBox="0 0 18 18" version="1.1" xmlns="http://www.w3.org/2000/svg" xmlns:xlink="http://www.w3.org/1999/xlink">
    <!-- Generator: Sketch 46.2 (44496) - http://www.bohemiancoding.com/sketch -->
    <title>checkbox-checked</title>
    <desc>Created with Sketch.</desc>
    <defs></defs>
    <g id="Page-1" stroke="none" stroke-width="1" fill="none" fill-rule="evenodd">
        <g id="checkbox-checked" fill-rule="nonzero" fill="#FFFFFF">
            <path d="M14.5,6.56236448 C14.5,6.74186858 14.4337621,6.8944722 14.3012862,7.02017536 L8.19799118,12.8114453 C8.06551533,12.9371484 7.90468965,13 7.71551413,13 C7.52633861,13 7.36551292,12.9371484 7.23303707,12.8114453 L3.69871378,9.45781088 C3.56623793,9.33210773 3.5,9.1795041 3.5,9 C3.5,8.8204959 3.56623793,8.66789227 3.69871378,8.54218912 L4.66406532,7.62619025 C4.79654118,7.5004871 4.95736686,7.43763552 5.14654238,7.43763552 C5.3357179,7.43763552 5.49654358,7.5004871 5.62901944,7.62619025 L7.71551413,9.61280287 L12.3709806,5.18855473 C12.5034564,5.06285158 12.6642821,5 12.8534576,5 C13.0426331,5 13.2034588,5.06285158 13.3359347,5.18855473 L14.3012862,6.1045536 C14.4337621,6.23025675 14.5,6.38286038 14.5,6.56236448 Z" id="icon-check"></path>
        </g>
    </g>
</svg>