<?xml version="1.0" encoding="UTF-8"?><svg width="256" height="13826" viewBox="0 0 256 13826" xmlns="http://www.w3.org/2000/svg" xmlns:xlink="http://www.w3.org/1999/xlink"><svg width="256" height="256" viewBox="0 0 256 256" id="account-thin" xmlns="http://www.w3.org/2000/svg"><path d="M128 10C62.815 10 10 62.815 10 128s52.815 118 118 118 118-52.815 118-118S193.185 10 128 10zm60.903 200.6c-17.081 12.609-38.112 20.174-60.903 20.174-22.791 0-43.822-7.565-60.903-20.174v-6.471c0-16.796 13.655-30.452 30.451-30.452 5.282 0 13.085 5.425 30.452 5.425 17.415 0 25.123-5.425 30.452-5.425 16.796 0 30.451 13.656 30.451 30.452v6.471zm14.56-13.085c-3.236-22.077-22.03-39.063-45.011-39.063-9.754 0-14.465 5.424-30.452 5.424-15.987 0-20.65-5.424-30.452-5.424-22.981 0-41.775 16.986-45.01 39.063-16.892-18.318-27.312-42.68-27.312-69.515C25.226 71.331 71.33 25.226 128 25.226c56.669 0 102.774 46.105 102.774 102.774 0 26.835-10.42 51.197-27.311 69.515zM128 63.29c-23.124 0-41.871 18.747-41.871 41.871 0 23.124 18.747 41.871 41.871 41.871 23.124 0 41.871-18.747 41.871-41.87 0-23.125-18.747-41.872-41.871-41.872zm0 68.516c-14.702 0-26.645-11.942-26.645-26.645 0-14.702 11.943-26.645 26.645-26.645s26.645 11.943 26.645 26.645c0 14.703-11.943 26.645-26.645 26.645z" fill-rule="evenodd"/></svg><svg width="256" height="256" viewBox="0 0 256 256" id="calendar" y="256" xmlns="http://www.w3.org/2000/svg"><path d="M36.216 228.371h37.64v-37.639h-37.64v37.64zm46.004 0h41.821v-37.639H82.22v37.64zm-46.004-46.003h37.64v-41.822h-37.64v41.822zm46.004 0h41.821v-41.822H82.22v41.822zm-46.004-50.186h37.64v-37.64h-37.64v37.64zm96.189 96.19h41.822v-37.64h-41.822v37.64zm-50.185-96.19h41.821v-37.64H82.22v37.64zm100.37 96.19h37.64v-37.64h-37.64v37.64zm-50.185-46.004h41.822v-41.822h-41.822v41.822zM86.4 69.45V31.81c0-1.132-.413-2.113-1.241-2.94-.828-.828-1.808-1.241-2.94-1.241h-8.365c-1.132 0-2.113.413-2.94 1.241-.828.828-1.241 1.808-1.241 2.94v37.64c0 1.132.413 2.113 1.241 2.94.828.827 1.808 1.241 2.94 1.241h8.365c1.132 0 2.113-.413 2.94-1.241.827-.828 1.241-1.808 1.241-2.94zm96.19 112.917h37.639v-41.822h-37.64v41.822zm-50.186-50.186h41.822v-37.64h-41.822v37.64zm50.186 0h37.639v-37.64h-37.64v37.64zm4.182-62.731V31.81c0-1.132-.414-2.113-1.242-2.94-.828-.828-1.808-1.241-2.94-1.241h-8.364c-1.133 0-2.114.413-2.94 1.241-.829.828-1.242 1.808-1.242 2.94v37.64c0 1.132.413 2.113 1.241 2.94.828.827 1.808 1.241 2.94 1.241h8.365c1.132 0 2.113-.413 2.94-1.241.827-.828 1.242-1.808 1.242-2.94zm50.186-8.365v167.285c0 4.531-1.656 8.451-4.967 11.762-3.31 3.311-7.231 4.967-11.762 4.967H36.216c-4.53 0-8.45-1.656-11.762-4.967-3.31-3.31-4.966-7.231-4.966-11.762V61.086c0-4.53 1.656-8.45 4.966-11.762 3.311-3.31 7.232-4.966 11.762-4.966h16.729V31.81c0-5.75 2.047-10.673 6.143-14.768 4.095-4.095 9.018-6.143 14.768-6.143h8.365c5.75 0 10.673 2.048 14.768 6.143 4.095 4.095 6.143 9.018 6.143 14.768v12.547h50.186V31.81c0-5.75 2.047-10.673 6.143-14.768 4.095-4.095 9.018-6.143 14.768-6.143h8.365c5.75 0 10.673 2.048 14.768 6.143 4.095 4.095 6.143 9.018 6.143 14.768v12.547h16.729c4.53 0 8.451 1.655 11.762 4.966 3.31 3.311 4.963 7.231 4.963 11.762z" fill="#000" fill-rule="nonzero"/></svg><svg width="256" height="256" viewBox="0 0 256 256" id="camera" y="512" xmlns="http://www.w3.org/2000/svg"><path d="M128.003 106.508c9.504 0 17.63 3.375 24.379 10.123 6.749 6.75 10.123 14.875 10.123 24.38 0 9.503-3.374 17.629-10.123 24.378-6.749 6.748-14.875 10.123-24.379 10.123-9.503 0-17.63-3.375-24.378-10.123-6.749-6.75-10.123-14.875-10.123-24.379 0-9.504 3.374-17.63 10.123-24.379 6.748-6.748 14.875-10.123 24.378-10.123zm84.333-49.837c8.466 0 15.693 2.994 21.681 8.983C240.006 71.642 243 78.869 243 87.336V194.67c0 8.466-2.994 15.693-8.983 21.682-5.988 5.988-13.215 8.983-21.681 8.983H43.664c-8.466 0-15.693-2.995-21.681-8.983C15.994 210.364 13 203.137 13 194.67V87.336c0-8.467 2.994-15.694 8.983-21.682 5.988-5.989 13.215-8.983 21.681-8.983h26.834l6.112-16.295c1.516-3.913 4.29-7.287 8.325-10.123C88.969 27.418 93.101 26 97.332 26h61.336c4.23 0 8.363 1.418 12.397 4.253 4.034 2.836 6.81 6.21 8.325 10.123l6.112 16.295h26.834zm-84.333 138.007c14.777 0 27.416-5.25 37.917-15.752 10.5-10.5 15.751-23.14 15.751-37.916 0-14.776-5.25-27.415-15.751-37.916-10.501-10.501-23.14-15.752-37.917-15.752-14.776 0-27.415 5.25-37.916 15.752-10.5 10.5-15.751 23.14-15.751 37.916 0 14.777 5.25 27.415 15.751 37.916 10.501 10.501 23.14 15.752 37.916 15.752z" fill="#000" fill-rule="nonzero"/></svg><svg width="256" height="256" viewBox="0 0 256 256" id="caret-down" y="768" xmlns="http://www.w3.org/2000/svg"><path d="M192 104c0 2.166-.791 4.042-2.373 5.629l-56 55.999C132.047 167.21 130.17 168 128 168s-4.046-.791-5.628-2.373l-55.999-56c-1.582-1.581-2.373-3.457-2.373-5.627s.791-4.046 2.373-5.628C67.955 96.791 69.831 96 72.001 96h111.998c2.165 0 4.041.791 5.628 2.373 1.587 1.582 2.378 3.458 2.373 5.628z" fill="#000" fill-rule="nonzero"/></svg><svg width="256" height="256" viewBox="0 0 256 256" id="chart-bar-thin" y="1024" xmlns="http://www.w3.org/2000/svg"><path d="M205.438 172.75h7.375a3.698 3.698 0 0 0 3.687-3.688V58.438a3.698 3.698 0 0 0-3.688-3.687h-7.375a3.698 3.698 0 0 0-3.687 3.688v110.624a3.698 3.698 0 0 0 3.688 3.688zm-44.25 0h7.375a3.698 3.698 0 0 0 3.687-3.688v-66.375A3.698 3.698 0 0 0 168.562 99h-7.375a3.698 3.698 0 0 0-3.687 3.688v66.374a3.698 3.698 0 0 0 3.688 3.688zm-88.5 0h7.374a3.698 3.698 0 0 0 3.688-3.688v-36.875a3.698 3.698 0 0 0-3.688-3.687h-7.374A3.698 3.698 0 0 0 69 132.188v36.875a3.698 3.698 0 0 0 3.688 3.687zm44.25 0h7.374a3.698 3.698 0 0 0 3.688-3.688V73.188a3.698 3.698 0 0 0-3.688-3.687h-7.374a3.698 3.698 0 0 0-3.688 3.688v95.874a3.698 3.698 0 0 0 3.688 3.688zm125.374 29.5H24.75V43.687A3.686 3.686 0 0 0 21.062 40h-7.375A3.686 3.686 0 0 0 10 43.688v165.937C10 213.7 13.3 217 17.375 217h224.938a3.686 3.686 0 0 0 3.687-3.688v-7.375a3.686 3.686 0 0 0-3.688-3.687z" fill="#000" fill-rule="nonzero"/></svg><svg width="256" height="256" viewBox="0 0 256 256" id="chat-thin" y="1280" xmlns="http://www.w3.org/2000/svg"><path d="M216.5 10h-177C23.229 10 10 23.229 10 39.5v132.75c0 16.271 13.229 29.5 29.5 29.5h44.25v38.719c0 3.272 2.673 5.531 5.531 5.531a5.292 5.292 0 0 0 3.273-1.106l57.571-43.144H216.5c16.271 0 29.5-13.229 29.5-29.5V39.5c0-16.271-13.229-29.5-29.5-29.5zm14.75 162.25c0 8.113-6.637 14.75-14.75 14.75h-71.307l-3.918 2.95L98.5 222.031V187h-59c-8.113 0-14.75-6.637-14.75-14.75V39.5c0-8.113 6.637-14.75 14.75-14.75h177c8.113 0 14.75 6.637 14.75 14.75v132.75z" fill-rule="evenodd"/></svg><svg width="256" height="256" viewBox="0 0 256 256" id="check-circle" y="1536" xmlns="http://www.w3.org/2000/svg"><path d="M207.162 102.722c0-2.857-.917-5.201-2.75-7.035l-13.925-13.77c-1.937-1.938-4.233-2.905-6.889-2.905-2.656 0-4.953.968-6.889 2.904l-62.431 62.277-34.584-34.583c-1.937-1.937-4.233-2.905-6.889-2.905-2.656 0-4.953.969-6.889 2.905l-13.924 13.77c-1.834 1.834-2.75 4.178-2.75 7.035 0 2.753.916 5.05 2.75 6.889l55.388 55.387c1.937 1.937 4.233 2.905 6.889 2.905 2.754 0 5.098-.969 7.035-2.905l83.082-83.081c1.834-1.835 2.75-4.13 2.75-6.89l.026.002zm38.559 24.788c0 21.319-5.253 40.981-15.758 58.987-10.506 18.005-24.76 32.26-42.766 42.766-18.006 10.505-37.668 15.758-58.986 15.758-21.319 0-40.981-5.253-58.987-15.758-18.005-10.506-32.26-24.76-42.766-42.766C15.953 168.49 10.7 148.829 10.7 127.51c0-21.318 5.253-40.98 15.758-58.986 10.506-18.005 24.76-32.26 42.766-42.766C87.23 15.253 106.892 10 128.211 10c21.318 0 40.98 5.253 58.986 15.758 18.005 10.506 32.261 24.76 42.766 42.766 10.505 18.006 15.758 37.668 15.758 58.986z" fill-rule="nonzero" fill="#000"/></svg><svg width="256" height="256" viewBox="0 0 256 256" id="chevron-down" y="1792" xmlns="http://www.w3.org/2000/svg"><path d="M121.113 202.031L12.517 93.436c-1.853-1.854-2.78-4.05-2.78-6.587s.927-4.731 2.78-6.586l24.295-24.295c1.854-1.854 4.05-2.781 6.587-2.781s4.732.927 6.586 2.78l77.714 77.717 77.715-77.715c1.853-1.854 4.05-2.781 6.586-2.781 2.537 0 4.732.927 6.587 2.78l24.295 24.296c1.853 1.854 2.78 4.05 2.78 6.586 0 2.537-.927 4.732-2.78 6.587L134.285 202.03c-1.853 1.854-4.049 2.781-6.586 2.781s-4.732-.927-6.586-2.78z" fill-rule="nonzero" fill="#000"/></svg><svg width="256" height="256" viewBox="0 0 256 256" id="chevron-down-thin" y="2048" xmlns="http://www.w3.org/2000/svg"><path d="M245.59 69.214l-3.804-3.803a6.434 6.434 0 0 0-9.107 0L128 170.143 23.268 65.41a6.434 6.434 0 0 0-9.107 0l-3.804 3.803a6.434 6.434 0 0 0 0 9.107l113.036 113.09a6.434 6.434 0 0 0 9.107 0L245.536 78.32a6.387 6.387 0 0 0 .053-9.107z" fill-rule="evenodd"/></svg><svg width="256" height="256" viewBox="0 0 256 256" id="chevron-left" y="2304" xmlns="http://www.w3.org/2000/svg"><path d="M200.656 51.384L123.04 129l77.616 77.616c1.852 1.852 2.777 4.045 2.777 6.578 0 2.533-.925 4.726-2.777 6.578l-24.264 24.264c-1.852 1.852-4.045 2.777-6.578 2.777-2.534 0-4.726-.925-6.577-2.777L54.776 135.578C52.927 133.726 52 131.534 52 129c0-2.534.925-4.726 2.777-6.578L163.236 13.964c1.851-1.852 4.044-2.777 6.577-2.777 2.534 0 4.726.925 6.578 2.777l24.264 24.264c1.852 1.852 2.777 4.045 2.777 6.578 0 2.533-.924 4.726-2.776 6.578z" fill="#000" fill-rule="nonzero"/></svg><svg width="256" height="256" viewBox="0 0 256 256" id="chevron-left-thin" y="2560" xmlns="http://www.w3.org/2000/svg"><path d="M187.54 245.608l3.788-3.787a6.43 6.43 0 0 0 0-9.092L86.6 128 191.328 23.271a6.43 6.43 0 0 0 0-9.092l-3.788-3.787a6.428 6.428 0 0 0-9.09 0L65.385 123.454a6.43 6.43 0 0 0 0 9.092L178.45 245.61a6.428 6.428 0 0 0 9.091-.001z" fill-rule="evenodd"/></svg><svg width="256" height="256" viewBox="0 0 256 256" id="chevron-right" y="2816" xmlns="http://www.w3.org/2000/svg"><path d="M200.731 135.586L92.136 244.182c-1.854 1.853-4.05 2.78-6.587 2.78s-4.731-.927-6.586-2.78l-24.295-24.295c-1.854-1.854-2.781-4.05-2.781-6.587s.927-4.732 2.78-6.586L132.385 129 54.669 51.285c-1.854-1.853-2.781-4.05-2.781-6.586 0-2.537.927-4.732 2.78-6.587l24.296-24.295c1.854-1.853 4.05-2.78 6.586-2.78 2.537 0 4.732.927 6.587 2.78L200.73 122.414c1.854 1.853 2.781 4.049 2.781 6.586s-.927 4.732-2.78 6.586z" fill="#000" fill-rule="nonzero"/></svg><svg width="256" height="256" viewBox="0 0 256 256" id="chevron-right-thin" y="3072" xmlns="http://www.w3.org/2000/svg"><path d="M69.174 10.392l-3.788 3.787a6.43 6.43 0 0 0 0 9.092L170.114 128 65.386 232.729a6.43 6.43 0 0 0 0 9.092l3.788 3.787a6.428 6.428 0 0 0 9.091 0l113.063-113.062a6.43 6.43 0 0 0 0-9.092L78.265 10.392a6.428 6.428 0 0 0-9.09 0z" fill-rule="evenodd"/></svg><svg width="256" height="256" viewBox="0 0 256 256" id="chevron-up" y="3328" xmlns="http://www.w3.org/2000/svg"><path d="M134.286 55.968l108.596 108.595c1.853 1.854 2.78 4.05 2.78 6.587s-.927 4.731-2.78 6.586l-24.295 24.295c-1.854 1.854-4.05 2.781-6.587 2.781s-4.732-.927-6.586-2.78L127.7 124.314 49.985 202.03c-1.853 1.854-4.05 2.781-6.586 2.781-2.537 0-4.732-.927-6.587-2.78l-24.295-24.296c-1.853-1.854-2.78-4.05-2.78-6.586 0-2.537.927-4.732 2.78-6.587L121.114 55.968c1.853-1.854 4.049-2.781 6.586-2.781s4.732.927 6.586 2.78z" fill-rule="nonzero" fill="#000"/></svg><svg width="256" height="256" viewBox="0 0 256 256" id="chevron-up-thin" y="3584" xmlns="http://www.w3.org/2000/svg"><path d="M9.891 187.565l3.804 3.804a6.457 6.457 0 0 0 9.13 0L128 86.195l105.175 105.174a6.457 6.457 0 0 0 9.13 0l3.804-3.804a6.456 6.456 0 0 0 0-9.13L132.565 64.891a6.457 6.457 0 0 0-9.13 0L9.89 178.435a6.455 6.455 0 0 0 0 9.13z" fill-rule="evenodd"/></svg><svg width="256" height="256" viewBox="0 0 256 256" id="circle-thin" y="3840" xmlns="http://www.w3.org/2000/svg"><path d="M128 30.669c-13.545 0-26.483 2.61-38.827 7.84-12.345 5.221-22.972 12.213-31.875 20.974-8.91 8.762-16.013 19.205-21.33 31.344-5.31 12.14-7.973 24.868-7.973 38.18 0 13.32 2.655 26.041 7.973 38.18 5.31 12.14 12.42 22.59 21.33 31.344 8.91 8.762 19.53 15.747 31.875 20.975 12.345 5.221 25.29 7.84 38.827 7.84 13.545 0 26.483-2.61 38.827-7.84 12.345-5.221 22.972-12.213 31.875-20.975 8.91-8.761 16.013-19.204 21.33-31.343 5.31-12.14 7.972-24.869 7.972-38.181 0-13.32-2.655-26.04-7.972-38.18-5.31-12.14-12.42-22.59-21.33-31.344-8.91-8.761-19.53-15.746-31.875-20.974-12.344-5.222-25.289-7.84-38.827-7.84zM248 129c0 21.41-5.363 41.153-16.095 59.228-10.732 18.076-25.29 32.391-43.672 42.945C169.851 241.727 149.772 247 128 247s-41.85-5.274-60.232-15.827c-18.382-10.553-32.94-24.868-43.673-42.945C13.362 170.152 8 150.41 8 129c0-21.41 5.363-41.153 16.095-59.23 10.732-18.076 25.29-32.39 43.673-42.943C86.151 16.274 106.228 11 128 11s41.85 5.273 60.233 15.827c18.383 10.554 32.94 24.868 43.672 42.944C242.637 87.847 248 107.59 248 129z" fill="#000" fill-rule="nonzero"/></svg><svg width="256" height="256" viewBox="0 0 256 256" id="clock-o" y="4096" xmlns="http://www.w3.org/2000/svg"><path d="M147.66 73.913v68.835c0 1.434-.46 2.613-1.384 3.536-.924.924-2.103 1.386-3.537 1.386H93.574c-1.434 0-2.613-.462-3.536-1.386-.924-.923-1.386-2.102-1.386-3.536v-9.835c0-1.434.462-2.613 1.386-3.536.923-.924 2.102-1.386 3.536-1.386h34.417V73.904c0-1.434.462-2.612 1.386-3.536.923-.923 2.102-1.385 3.536-1.385h9.835c1.434 0 2.613.462 3.536 1.385.924.924 1.386 2.102 1.386 3.536l-.01.01zM211.584 128c0-15.16-3.74-29.143-11.22-41.946-7.48-12.803-17.622-22.945-30.425-30.425-12.804-7.48-26.786-11.22-41.947-11.22-15.16 0-29.143 3.74-41.946 11.22C73.242 63.109 63.1 73.25 55.62 86.054S44.4 112.839 44.4 128c0 15.16 3.74 29.143 11.22 41.946 7.48 12.803 17.622 22.945 30.425 30.425s26.786 11.22 41.946 11.22c15.161 0 29.143-3.74 41.947-11.22 12.803-7.48 22.945-17.622 30.425-30.425s11.22-26.785 11.22-41.946zM246 128c0 21.408-5.274 41.152-15.823 59.232-10.55 18.08-24.864 32.396-42.945 42.945C169.152 240.726 149.408 246 128 246s-41.152-5.274-59.232-15.823c-18.08-10.55-32.396-24.864-42.945-42.945C15.274 169.152 10 149.408 10 128s5.274-41.152 15.823-59.232c10.55-18.08 24.864-32.396 42.945-42.945C86.848 15.274 106.592 10 128 10s41.152 5.274 59.232 15.823c18.08 10.55 32.396 24.864 42.945 42.945C240.726 86.848 246 106.592 246 128z" fill="#000" fill-rule="nonzero"/></svg><svg width="256" height="256" viewBox="0 0 256 256" id="close" y="4352" xmlns="http://www.w3.org/2000/svg"><path d="M246 199.912c0 5.298-1.854 9.8-5.562 13.509l-27.017 27.017c-3.708 3.708-8.211 5.562-13.509 5.562-5.297 0-9.8-1.854-13.508-5.562L128 182.034l-58.404 58.404C65.888 244.146 61.385 246 56.088 246c-5.298 0-9.8-1.854-13.509-5.562L15.562 213.42C11.854 209.713 10 205.21 10 199.912c0-5.297 1.854-9.8 5.562-13.508L73.966 128 15.562 69.596C11.854 65.888 10 61.385 10 56.088c0-5.298 1.854-9.8 5.562-13.509L42.58 15.562C46.287 11.854 50.79 10 56.088 10c5.297 0 9.8 1.854 13.508 5.562L128 73.966l58.404-58.404c3.708-3.708 8.211-5.562 13.508-5.562 5.298 0 9.8 1.854 13.509 5.562l27.017 27.017C244.146 46.287 246 50.79 246 56.088c0 5.297-1.854 9.8-5.562 13.508L182.034 128l58.404 58.404c3.708 3.708 5.562 8.211 5.562 13.508z" fill-rule="nonzero" fill="#000"/></svg><svg width="256" height="256" viewBox="0 0 256 256" id="close-thin" y="4608" xmlns="http://www.w3.org/2000/svg"><path d="M128 106L43.536 21.536a5 5 0 0 0-7.072 0L21.536 36.464a5 5 0 0 0 0 7.072L106 128l-84.464 84.464a5 5 0 0 0 0 7.072l14.928 14.928a5 5 0 0 0 7.072 0L128 150l84.464 84.464a5 5 0 0 0 7.072 0l14.928-14.928a5 5 0 0 0 0-7.072L150 128l84.464-84.464a5 5 0 0 0 0-7.072l-14.928-14.928a5 5 0 0 0-7.072 0L128 106z" fill="#000" fill-rule="evenodd"/></svg><svg width="256" height="256" viewBox="0 0 256 256" id="contrast" y="4864" xmlns="http://www.w3.org/2000/svg"><path d="M128 10c65.173 0 118 52.827 118 118s-52.827 118-118 118S10 193.173 10 128 62.827 10 128 10zM39.5 128c0 48.874 39.626 88.5 88.5 88.5v-177c-48.874 0-88.5 39.626-88.5 88.5z" fill="#000" fill-rule="nonzero"/></svg><svg width="256" height="256" viewBox="0 0 256 256" id="copy" y="5120" xmlns="http://www.w3.org/2000/svg"><path d="M201.75 69H157.5V54.25L113.25 10H10v177h88.5v59H246V113.25L201.75 69zm.25 21l24 24h-24V90zm-89-60l24 24h-24V30zm-88-5h74.375v44.4H144V173H25V25zm205 206H113v-44.4h43.875V83h29.25v44.4H230V231z" fill="#000" fill-rule="nonzero"/></svg><svg width="256" height="256" viewBox="0 0 256 256" id="credit-card" y="5376" xmlns="http://www.w3.org/2000/svg"><path d="M226.333 36H29.667C18.809 36 10 44.809 10 55.667v144.222c0 10.858 8.809 19.667 19.667 19.667h196.666c10.858 0 19.667-8.81 19.667-19.667V55.667C246 44.809 237.191 36 226.333 36zM29.667 49.111h196.666c3.606 0 6.556 2.95 6.556 6.556v19.666H23.11V55.667c0-3.606 2.95-6.556 6.556-6.556zm196.666 157.333H29.667c-3.606 0-6.556-2.95-6.556-6.555v-85.222H232.89v85.222c0 3.605-2.95 6.555-6.556 6.555zM88.667 172.028v3.278a4.931 4.931 0 0 1-4.917 4.916h-29.5a4.931 4.931 0 0 1-4.917-4.916v-3.278a4.931 4.931 0 0 1 4.917-4.917h29.5a4.931 4.931 0 0 1 4.917 4.917zm78.666 0v3.278a4.931 4.931 0 0 1-4.916 4.916h-55.723a4.931 4.931 0 0 1-4.916-4.916v-3.278a4.931 4.931 0 0 1 4.916-4.917h55.723a4.931 4.931 0 0 1 4.916 4.917z" fill-rule="evenodd"/></svg><svg width="256" height="256" viewBox="0 0 256 256" id="download" y="5632" xmlns="http://www.w3.org/2000/svg"><path d="M191.536 209.549c0-2.458-.898-4.584-2.694-6.38-1.797-1.796-3.924-2.694-6.382-2.694-2.459 0-4.586.898-6.382 2.694-1.797 1.796-2.695 3.922-2.695 6.38 0 2.457.898 4.584 2.695 6.38 1.796 1.796 3.923 2.694 6.382 2.694 2.458 0 4.585-.898 6.382-2.694 1.796-1.796 2.694-3.923 2.694-6.38zm36.308 0c0-2.458-.898-4.584-2.695-6.38-1.796-1.796-3.924-2.694-6.382-2.694-2.458 0-4.586.898-6.382 2.694-1.797 1.796-2.695 3.922-2.695 6.38 0 2.457.898 4.584 2.695 6.38 1.796 1.796 3.924 2.694 6.382 2.694 2.458 0 4.586-.898 6.382-2.694 1.797-1.796 2.695-3.923 2.695-6.38zm18.153-31.758v45.368c0 3.781-1.323 6.995-3.97 9.641-2.648 2.647-5.863 3.97-9.645 3.97H23.615c-3.782 0-6.996-1.323-9.644-3.97-2.647-2.646-3.971-5.86-3.971-9.64v-45.37c0-3.78 1.324-6.994 3.971-9.64 2.648-2.647 5.862-3.97 9.644-3.97h65.949l19.146 19.282c5.484 5.293 11.914 7.94 19.289 7.94 7.375 0 13.804-2.647 19.288-7.94l19.288-19.282h65.807c3.782 0 6.997 1.323 9.644 3.97 2.648 2.646 3.971 5.86 3.971 9.64zm-46.093-80.672c1.608 3.876.946 7.184-1.985 9.925L134.38 170.56c-1.702 1.796-3.83 2.694-6.382 2.694-2.553 0-4.68-.898-6.382-2.694l-63.538-63.516c-2.931-2.741-3.593-6.05-1.986-9.925 1.608-3.686 4.397-5.529 8.368-5.529h36.307V28.074c0-2.458.898-4.584 2.695-6.38 1.796-1.796 3.924-2.694 6.382-2.694h36.307c2.459 0 4.586.898 6.383 2.694 1.796 1.796 2.694 3.922 2.694 6.38V91.59h36.307c3.972 0 6.76 1.843 8.368 5.53z" fill-rule="nonzero" fill="#000"/></svg><svg width="256" height="256" viewBox="0 0 256 256" id="equalizer" y="5888" xmlns="http://www.w3.org/2000/svg"><path d="M216.941 113.25h3.71c6.123 0 11.132-4.978 11.132-11.063V65.314c0-6.085-5.01-11.063-11.132-11.063h-3.71V10h-29.683v44.25h-3.71c-6.123 0-11.132 4.978-11.132 11.063v36.874c0 6.085 5.01 11.063 11.131 11.063h3.71V246h29.684V113.25zM187.258 69h29.683v29.5h-29.683V69zm-40.815 132.75c6.122 0 11.132-4.978 11.132-11.063v-36.875c0-6.084-5.01-11.062-11.132-11.062h-3.71V10H113.05v132.75h-3.71c-6.123 0-11.132 4.978-11.132 11.063v36.875c0 6.084 5.01 11.062 11.131 11.062h3.71V246h29.684v-44.25h3.71zM113.05 157.5h29.683V187H113.05v-29.5zm-40.815-44.25c6.122 0 11.131-4.978 11.131-11.063V65.314c0-6.085-5.009-11.063-11.13-11.063h-3.711V10H38.842v44.25h-3.71C29.008 54.25 24 59.228 24 65.313v36.874c0 6.085 5.009 11.063 11.131 11.063h3.71V246h29.684V113.25h3.71zM38.842 69h29.683v29.5H38.842V69z" fill-rule="nonzero" fill="#000"/></svg><svg width="256" height="256" viewBox="0 0 256 256" id="exclamation-circle" y="6144" xmlns="http://www.w3.org/2000/svg"><path d="M126.1 13.4c20.881 0 40.14 5.145 57.776 15.435 17.636 10.29 31.6 24.252 41.889 41.889 10.29 17.636 15.434 36.895 15.434 57.776s-5.145 40.14-15.434 57.776c-10.29 17.637-24.253 31.6-41.889 41.89C166.24 238.454 146.981 243.6 126.1 243.6c-20.882 0-40.14-5.145-57.777-15.435-17.636-10.29-31.599-24.252-41.889-41.889C16.144 168.64 11 149.381 11 128.5s5.145-40.14 15.434-57.776c10.29-17.637 24.253-31.6 41.89-41.89C85.958 18.546 105.217 13.4 126.1 13.4zm19.186 186.892v-28.476c0-1.4-.45-2.574-1.352-3.525-.9-.952-2-1.427-3.298-1.427h-28.779c-1.298 0-2.448.5-3.45 1.502-1.001 1.002-1.502 2.151-1.502 3.45v28.476c0 1.299.501 2.448 1.502 3.45 1.002 1.002 2.152 1.502 3.45 1.502h28.78c1.297 0 2.397-.475 3.297-1.427.901-.95 1.352-2.126 1.352-3.525zm-.302-51.557l2.694-93.068c0-1.198-.501-2.096-1.503-2.694-1.001-.8-2.201-1.2-3.6-1.2h-32.976c-1.399 0-2.599.4-3.6 1.2-1.002.598-1.503 1.496-1.503 2.694l2.552 93.068c0 1.002.5 1.877 1.502 2.627 1.002.75 2.202 1.125 3.6 1.125h27.73c1.4 0 2.575-.375 3.526-1.125.95-.75 1.477-1.625 1.578-2.627z" fill="#000" fill-rule="nonzero"/></svg><svg width="256" height="257" viewBox="0 0 256 257" id="eye" y="6400" xmlns="http://www.w3.org/2000/svg"><path d="M230.855 129.593c-13.57-21.07-30.58-36.83-51.03-47.28 5.445 9.285 8.168 19.33 8.168 30.135 0 16.52-5.87 30.65-17.61 42.39-11.74 11.74-25.87 17.61-42.39 17.61s-30.65-5.87-42.39-17.61c-11.74-11.74-17.61-25.87-17.61-42.39 0-10.805 2.722-20.85 8.167-30.135-20.445 10.445-37.455 26.205-51.03 47.28 11.875 18.305 26.762 32.88 44.663 43.725 17.9 10.845 37.297 16.27 58.192 16.275 20.895.005 40.293-5.42 58.193-16.275 17.9-10.855 32.787-25.43 44.662-43.725h.015zm-96.427-51.427c0-1.785-.625-3.303-1.875-4.553s-2.768-1.875-4.553-1.875c-11.16 0-20.735 3.995-28.725 11.985-7.99 7.99-11.985 17.565-11.985 28.725 0 1.785.625 3.303 1.875 4.553s2.767 1.875 4.552 1.875c1.785 0 3.303-.625 4.553-1.875s1.875-2.768 1.875-4.553c0-7.68 2.723-14.242 8.168-19.687 5.444-5.445 12.007-8.168 19.687-8.168 1.785 0 3.303-.625 4.553-1.875s1.875-2.767 1.875-4.552zM248 129.593c0 3.035-.893 6.115-2.678 9.24-12.5 20.535-29.307 36.985-50.422 49.35-21.115 12.365-43.415 18.548-66.9 18.548-23.485 0-45.785-6.205-66.9-18.615-21.115-12.41-37.923-28.838-50.422-49.283C8.892 135.708 8 132.628 8 129.593s.893-6.115 2.678-9.24c12.5-20.445 29.307-36.872 50.422-49.282 21.115-12.41 43.415-18.615 66.9-18.615 23.485 0 45.785 6.205 66.9 18.615 21.115 12.41 37.922 28.837 50.422 49.282 1.785 3.125 2.678 6.205 2.678 9.24z" fill="#000" fill-rule="nonzero"/></svg><svg width="256" height="257" viewBox="0 0 256 257" id="eye-slash" y="6657" xmlns="http://www.w3.org/2000/svg"><path d="M82.332 179.24l10.448-18.884c-7.77-5.625-13.843-12.723-18.218-21.293-4.374-8.57-6.562-17.632-6.562-27.187 0-10.805 2.722-20.85 8.168-30.135-20.446 10.445-37.456 26.205-51.03 47.28 14.91 23.035 33.972 39.775 57.187 50.22h.007zm52.096-101.647c0-1.785-.625-3.302-1.875-4.552-1.25-1.25-2.768-1.875-4.553-1.875-11.16 0-20.735 3.995-28.725 11.985-7.99 7.99-11.985 17.565-11.985 28.725 0 1.785.625 3.302 1.875 4.552 1.25 1.25 2.767 1.875 4.552 1.875 1.785 0 3.303-.625 4.553-1.875s1.875-2.767 1.875-4.552c0-7.68 2.723-14.243 8.168-19.688 5.444-5.445 12.007-8.167 19.687-8.167 1.785 0 3.303-.625 4.553-1.875s1.875-2.768 1.875-4.553zm48.614-25.582c0 .625-.044 1.027-.135 1.207-9.375 16.785-23.437 42.053-42.187 75.803-18.75 33.75-32.858 59.062-42.323 75.937l-6.562 11.918c-.895 1.43-2.145 2.145-3.75 2.145-1.07 0-7.052-3.125-17.947-9.375-1.43-.895-2.145-2.145-2.145-3.75 0-1.07 1.965-4.955 5.895-11.655-12.77-5.805-24.533-13.528-35.288-23.168-10.755-9.64-20.063-20.577-27.922-32.812C8.892 135.49 8 132.41 8 129.02c0-3.39.893-6.47 2.678-9.24 13.66-20.98 30.624-37.543 50.894-49.688C81.843 57.948 103.986 51.876 128 51.876c7.945 0 15.98.76 24.105 2.28l7.23-12.99c.895-1.43 2.145-2.145 3.75-2.145.445 0 1.248.267 2.407.802a88.688 88.688 0 0 1 4.156 2.078c1.61.85 3.082 1.675 4.417 2.475s2.743 1.625 4.222 2.475c1.48.85 2.35 1.362 2.61 1.537 1.43.895 2.145 2.1 2.145 3.615v.008zM188 111.876c0 12.41-3.528 23.727-10.583 33.952-7.054 10.225-16.385 17.57-27.99 22.035l37.5-67.23c.716 4.02 1.073 7.77 1.073 11.25v-.007zm60 17.145c0 3.125-.893 6.205-2.678 9.24-3.48 5.715-8.345 12.187-14.595 19.417-13.394 15.355-28.907 27.275-46.537 35.76s-36.357 12.725-56.183 12.72l9.908-17.677c18.93-1.605 36.453-7.72 52.567-18.345 16.115-10.625 29.576-24.33 40.38-41.115-10.27-15.98-22.86-29.105-37.77-39.375l8.438-15c8.48 5.715 16.627 12.545 24.442 20.49 7.815 7.945 14.266 16.16 19.35 24.645 1.785 3.035 2.678 6.115 2.678 9.24z" fill="#000" fill-rule="nonzero"/></svg><svg width="256" height="256" viewBox="0 0 256 256" id="facebook" y="6914" xmlns="http://www.w3.org/2000/svg"><path d="M186.538 11.702v37.442h-22.266c-8.132 0-13.616 1.702-16.452 5.106-2.837 3.404-4.255 8.51-4.255 15.317v26.806h41.555l-5.531 41.98h-36.024V246h-43.4V138.353H64v-41.98h36.166V65.454c0-17.586 4.917-31.225 14.75-40.917C124.749 14.846 137.845 10 154.202 10c13.899 0 24.678.567 32.336 1.702z" fill="#000" fill-rule="nonzero"/></svg><svg width="256" height="256" viewBox="0 0 256 256" id="github" y="7170" xmlns="http://www.w3.org/2000/svg"><path d="M245.02 130.453c0 26.245-7.471 49.849-22.415 70.814-14.945 20.965-34.249 35.472-57.914 43.523-2.754.523-4.77.156-6.044-1.098-1.275-1.255-1.913-2.823-1.913-4.705v-33.093c0-10.142-2.652-17.566-7.956-22.271 5.815-.628 11.042-1.57 15.684-2.824 4.641-1.254 9.435-3.293 14.383-6.116 4.947-2.823 9.078-6.3 12.393-10.43 3.315-4.13 6.019-9.62 8.11-16.468 2.09-6.85 3.136-14.717 3.136-23.605 0-12.652-4.03-23.422-12.088-32.31 3.774-9.515 3.367-20.18-1.224-31.995-2.856-.94-6.987-.366-12.393 1.726-5.407 2.091-10.099 4.39-14.076 6.9l-5.815 3.765c-9.487-2.719-19.28-4.078-29.378-4.078-10.098 0-19.89 1.36-29.377 4.078-1.633-1.15-3.8-2.562-6.503-4.234-2.704-1.673-6.962-3.686-12.777-6.039-5.815-2.352-10.2-3.058-13.159-2.117-4.488 11.816-4.845 22.481-1.071 31.995-8.059 8.888-12.088 19.658-12.088 32.31 0 8.888 1.046 16.73 3.136 23.525 2.091 6.797 4.77 12.286 8.033 16.469 3.264 4.182 7.37 7.685 12.317 10.508 4.947 2.823 9.742 4.862 14.384 6.116 4.641 1.255 9.868 2.196 15.683 2.824-4.08 3.764-6.58 9.149-7.497 16.154a29.787 29.787 0 0 1-6.885 2.352c-2.448.522-5.356.785-8.721.785-3.366 0-6.707-1.124-10.022-3.372-3.315-2.248-6.146-5.515-8.492-9.802-1.938-3.346-4.412-6.065-7.42-8.155-3.01-2.092-5.535-3.346-7.574-3.765l-3.06-.47c-2.143 0-3.622.235-4.438.706-.815.47-1.07 1.072-.764 1.804.305.732.764 1.464 1.377 2.196.612.731 1.274 1.359 1.988 1.882l1.072.784c2.244 1.046 4.462 3.032 6.656 5.96 2.193 2.928 3.8 5.593 4.82 7.999l1.53 3.607c1.325 3.973 3.57 7.189 6.731 9.646 3.163 2.457 6.58 4.025 10.252 4.705 3.672.68 7.217 1.046 10.634 1.098 3.417.052 6.248-.13 8.492-.55l3.52-.627c0 3.973.025 8.626.076 13.959.05 5.333.076 8.155.076 8.47 0 1.882-.663 3.45-1.989 4.705-1.325 1.254-3.366 1.62-6.12 1.098-23.666-8.052-42.97-22.56-57.914-43.523C17.472 180.305 10 156.698 10 130.453c0-21.853 5.254-42.007 15.76-60.462 10.507-18.455 24.761-33.066 42.766-43.836C86.531 15.385 106.191 10 127.51 10c21.32 0 40.981 5.385 58.985 16.155 18.003 10.77 32.26 25.382 42.766 43.837 10.506 18.455 15.76 38.608 15.76 60.461z" fill="#000" fill-rule="nonzero"/></svg><svg width="256" height="256" viewBox="0 0 256 256" id="heart" y="7426" xmlns="http://www.w3.org/2000/svg"><path d="M222.944 39.34c9.525 7.987 16.131 17.818 19.819 29.492 3.687 11.674 4.224 23.425 1.613 35.252-2.612 11.828-8.22 22.043-16.823 30.645l-88.952 92.163c-3.073 3.072-6.607 4.608-10.601 4.608-3.994 0-7.528-1.536-10.6-4.608l-88.953-91.703c-8.603-8.909-14.21-19.277-16.823-31.105-2.611-11.827-2.074-23.578 1.613-35.252 3.688-11.674 10.294-21.505 19.819-29.492 8.296-7.066 17.668-11.52 28.114-13.364 10.447-1.843 20.74-1.075 30.88 2.304 10.14 3.38 19.05 9.063 26.732 17.05L128 54.546l9.218-9.216c7.681-7.987 16.592-13.67 26.732-17.05 10.14-3.38 20.433-4.147 30.88-2.304 10.446 1.843 19.818 6.298 28.114 13.364z" fill="none" fill-rule="evenodd"/></svg><svg width="256" height="256" viewBox="0 0 256 256" id="heart-o" y="7682" xmlns="http://www.w3.org/2000/svg"><path d="M222.944 39.34c9.525 7.987 16.131 17.818 19.819 29.492 3.687 11.674 4.224 23.425 1.613 35.252-2.612 11.828-8.22 22.043-16.823 30.645l-88.952 92.163c-3.073 3.072-6.607 4.608-10.601 4.608-3.994 0-7.528-1.536-10.6-4.608l-88.953-91.703c-8.603-8.909-14.21-19.277-16.823-31.105-2.611-11.827-2.074-23.578 1.613-35.252 3.688-11.674 10.217-21.505 19.588-29.492 9.372-7.988 19.742-12.596 31.11-13.825 10.14-1.229 20.434.154 30.88 4.147 9.526 3.687 17.515 8.91 23.967 15.668L128 55.007l9.218-9.677c7.681-7.987 16.669-13.67 26.962-17.05 10.293-3.38 20.664-4.147 31.11-2.304 10.447 1.843 19.665 6.298 27.654 13.364zm-5.992 85.25c6.146-6.144 10.37-13.747 12.675-22.81 2.305-9.063 2.228-17.895-.23-26.497-2.766-9.83-8.066-18.048-15.901-24.653-7.835-6.606-16.516-10.215-26.04-10.83-7.682-.307-15.517 1.383-23.506 5.07-6.76 2.764-12.137 6.45-16.132 11.059L128 76.205l-19.818-20.276c-4.302-4.608-9.68-8.448-16.132-11.52-7.989-3.687-15.824-5.223-23.505-4.609-9.525.615-18.206 4.224-26.04 10.83-7.836 6.605-13.136 14.822-15.902 24.653-2.458 8.602-2.535 17.434-.23 26.497 2.304 9.063 6.53 16.666 12.675 22.81L128 216.755l88.952-92.163z" fill="none" fill-rule="evenodd"/></svg><svg width="256" height="256" viewBox="0 0 256 256" id="instagram" y="7938" xmlns="http://www.w3.org/2000/svg"><path d="M219.266 209.432V109.87h-20.743c2.049 6.453 3.073 13.162 3.073 20.127 0 12.907-3.277 24.814-9.833 35.723-6.556 10.909-15.467 19.539-26.734 25.89-11.268 6.35-23.56 9.525-36.875 9.525-20.18 0-37.439-6.94-51.779-20.819-14.34-13.879-21.51-30.652-21.51-50.319 0-6.965 1.024-13.674 3.072-20.127H36.273v99.562c0 2.663.897 4.891 2.69 6.684 1.792 1.792 4.02 2.689 6.683 2.689h164.247c2.561 0 4.763-.897 6.607-2.69 1.844-1.792 2.766-4.02 2.766-6.683zM175.63 127.54c0-12.701-4.635-23.533-13.905-32.496-9.27-8.963-20.46-13.444-33.571-13.444-13.009 0-24.148 4.481-33.418 13.444-9.27 8.963-13.905 19.795-13.905 32.496s4.635 23.533 13.905 32.496c9.27 8.963 20.409 13.444 33.418 13.444 13.11 0 24.301-4.481 33.571-13.444 9.27-8.963 13.905-19.795 13.905-32.496zm43.636-55.312V46.875c0-2.868-1.025-5.352-3.073-7.452-2.049-2.1-4.558-3.15-7.529-3.15H181.93c-2.97 0-5.48 1.05-7.529 3.15-2.049 2.1-3.073 4.584-3.073 7.452v25.352c0 2.97 1.024 5.48 3.073 7.528 2.049 2.049 4.558 3.073 7.529 3.073h26.734c2.97 0 5.48-1.024 7.529-3.073 2.048-2.048 3.073-4.558 3.073-7.528zM246 40.268v175.464c0 8.297-2.97 15.416-8.911 21.357-5.941 5.94-13.06 8.911-21.357 8.911H40.268c-8.297 0-15.416-2.97-21.357-8.911-5.94-5.941-8.911-13.06-8.911-21.357V40.268c0-8.297 2.97-15.416 8.911-21.357C24.852 12.971 31.971 10 40.268 10h175.464c8.297 0 15.416 2.97 21.357 8.911 5.94 5.941 8.911 13.06 8.911 21.357z" fill="#000" fill-rule="nonzero"/></svg><svg width="256" height="256" viewBox="0 0 256 256" id="link" y="8194" xmlns="http://www.w3.org/2000/svg"><path d="M224.561 32.328l-.882-.883c-20.594-20.594-54.292-20.594-74.886 0l-47.712 47.72c-20.594 20.593-20.594 54.291 0 74.878l.882.882c1.716 1.715 3.536 3.262 5.412 4.697l17.465-17.465c-2.038-1.204-3.963-2.639-5.713-4.389l-.881-.881c-11.18-11.18-11.18-29.373 0-40.552l47.712-47.711c11.179-11.18 29.371-11.18 40.55 0l.882.881c11.18 11.18 11.18 29.38 0 40.551l-21.587 21.588c3.745 9.254 5.523 19.118 5.369 28.96l33.382-33.384c20.595-20.594 20.595-54.291 0-74.878l.007-.014zm-70.518 68.746c-1.715-1.715-3.535-3.261-5.41-4.69l-17.466 17.466c2.037 1.204 3.963 2.639 5.713 4.389l.882.882c11.178 11.178 11.178 29.372 0 40.55l-47.72 47.72c-11.178 11.179-29.372 11.179-40.55 0l-.883-.882c-11.178-11.186-11.178-29.372 0-40.551l21.589-21.589c-3.745-9.254-5.523-19.117-5.37-28.959l-33.383 33.383c-20.593 20.594-20.593 54.292 0 74.886l.883.882c20.593 20.594 54.291 20.594 74.885 0l47.713-47.712c20.594-20.593 20.594-54.291 0-74.885l-.882-.882v-.007z" fill="#000" fill-rule="nonzero"/></svg><svg width="256" height="256" viewBox="0 0 256 256" id="location-arrow" y="8450" xmlns="http://www.w3.org/2000/svg"><path d="M232.276 36.304l-95.909 191.808c-1.7 3.497-4.548 5.245-8.543 5.245-.497 0-1.247-.1-2.248-.302-2.2-.498-3.973-1.622-5.32-3.374-1.35-1.75-2.023-3.723-2.023-5.916V137.45H31.916c-2.198 0-4.17-.674-5.916-2.023-1.745-1.348-2.87-3.121-3.373-5.32-.504-2.199-.305-4.297.595-6.294.901-1.997 2.35-3.496 4.347-4.498l191.809-95.908c1.297-.7 2.746-1.049 4.346-1.049 2.697 0 4.946.948 6.747 2.845 1.5 1.398 2.423 3.121 2.77 5.169.346 2.048.022 4.02-.974 5.916l.009.017z" fill="none" fill-rule="evenodd"/></svg><svg width="256" height="256" viewBox="0 0 256 256" id="map-marker" y="8706" xmlns="http://www.w3.org/2000/svg"><path d="M166.983 88.67c0-10.86-3.84-20.129-11.521-27.81-7.681-7.68-16.951-11.52-27.81-11.52-10.858 0-20.128 3.84-27.809 11.52-7.68 7.681-11.521 16.95-11.521 27.81 0 10.858 3.84 20.128 11.521 27.809 7.68 7.68 16.95 11.521 27.81 11.521 10.858 0 20.128-3.84 27.809-11.521 7.68-7.681 11.52-16.95 11.52-27.81zm39.339 0c0 11.162-1.69 20.329-5.068 27.499l-55.928 118.92c-1.64 3.38-4.073 6.044-7.297 7.994-3.224 1.95-6.68 2.923-10.368 2.917-3.688-.006-7.145-.978-10.368-2.917-3.224-1.939-5.605-4.603-7.142-7.993L54.068 116.169C50.689 108.999 49 99.832 49 88.669c0-21.717 7.684-40.256 23.051-55.618C87.418 17.689 105.958 10.006 127.67 10c21.711-.006 40.25 7.678 55.618 23.051 15.367 15.373 23.051 33.913 23.051 55.619h-.017z" fill-rule="nonzero" fill="#000"/></svg><svg width="256" height="256" viewBox="0 0 256 256" id="media-article" y="8962" xmlns="http://www.w3.org/2000/svg"><path d="M155.96 55.175c0 1.376-.481 2.547-1.445 3.51-.964.964-2.134 1.446-3.511 1.446H41.957c-1.377 0-2.547-.482-3.511-1.445C37.482 57.722 37 56.55 37 55.175V41.957c0-1.377.482-2.547 1.446-3.511S40.58 37 41.956 37h109.048c1.377 0 2.547.482 3.51 1.446.965.964 1.447 2.134 1.447 3.51v13.219zM41.958 113.003c-1.377 0-2.547-.482-3.511-1.446S37 109.423 37 108.046V94.828c0-1.377.482-2.547 1.446-3.51.964-.965 2.134-1.447 3.51-1.447h175.137c1.377 0 2.547.482 3.511 1.446s1.446 2.134 1.446 3.511v13.218c0 1.377-.482 2.547-1.446 3.51-.964.965-2.134 1.447-3.51 1.447H41.956zm0 105.742c-1.377 0-2.547-.482-3.511-1.445-.964-.964-1.446-2.134-1.446-3.511V200.57c0-1.377.482-2.547 1.446-3.511s2.134-1.446 3.51-1.446h175.137c1.377 0 2.547.482 3.511 1.446s1.446 2.134 1.446 3.51v13.219c0 1.377-.482 2.547-1.446 3.51-.964.964-2.134 1.446-3.51 1.446H41.956zm109.047-76.002c1.377 0 2.547.482 3.51 1.445.965.964 1.447 2.135 1.447 3.511v13.218c0 1.377-.482 2.547-1.446 3.511s-2.134 1.446-3.511 1.446H41.957c-1.377 0-2.547-.482-3.511-1.446S37 162.294 37 160.918v-13.219c0-1.376.482-2.547 1.446-3.51.964-.964 2.134-1.446 3.51-1.446h109.048z" fill="#000" fill-rule="nonzero"/></svg><svg width="256" height="256" viewBox="0 0 256 256" id="media-music" y="9218" xmlns="http://www.w3.org/2000/svg"><path d="M84.191 184.673c-8.58-1.665-18.564-1.033-28.465 2.366-22.266 7.684-30.125 26.389-24.216 41.757 5.892 15.375 23.328 21.595 45.594 13.911 18.905-6.52 31.295-20.979 30.98-34.612V87.209l94.291-20.061v92.855c-8.58-1.665-18.564-1.033-28.465 2.366-22.282 7.684-30.141 26.389-24.232 41.756 5.908 15.376 23.328 21.596 45.61 13.912 18.921-6.52 31.287-20.979 30.988-34.613V18.992a7.375 7.375 0 0 0-8.818-7.233L91.614 36.867a9.219 9.219 0 0 0-7.415 9.04l-.008 138.766z" fill="#000" fill-rule="nonzero"/></svg><svg width="256" height="256" viewBox="0 0 256 256" id="media-podcast" y="9474" xmlns="http://www.w3.org/2000/svg"><path d="M86.857 59.151c0-11.43 4-21.147 12-29.149C106.857 22.001 116.571 18 128 18c11.428 0 21.143 4 29.143 12.002s12 17.718 12 29.149v68.585c0 11.43-4 21.147-12 29.149-8 8.001-17.715 12.002-29.143 12.002-11.429 0-21.143-4-29.143-12.002s-12-17.718-12-29.15V59.152zm108 44.58c1.428 0 2.643.5 3.643 1.5s1.5 2.215 1.5 3.644v18.86c0 12.003-2.715 23.077-8.143 33.222-5.429 10.145-12.857 18.575-22.286 25.29-9.428 6.716-19.857 10.931-31.285 12.646v19.718h29.142c1.429 0 2.643.5 3.643 1.5s1.5 2.215 1.5 3.644v8.573c0 1.429-.5 2.643-1.5 3.644-1 1-2.214 1.5-3.643 1.5H88.571c-1.428 0-2.643-.5-3.642-1.5-1-1-1.5-2.215-1.5-3.644v-8.573c0-1.429.5-2.643 1.5-3.644 1-1 2.214-1.5 3.642-1.5h29.143v-19.718c-11.428-1.715-21.857-5.93-31.286-12.645-9.428-6.716-16.857-15.146-22.285-25.291C58.714 150.812 56 139.738 56 127.736v-18.86c0-1.43.5-2.644 1.5-3.644s2.214-1.5 3.643-1.5h10.286c1.428 0 2.642.5 3.642 1.5s1.5 2.214 1.5 3.643v18.86c0 9.431 2.358 18.076 7.072 25.935 4.714 7.858 11 14.074 18.857 18.646 7.857 4.573 16.428 6.859 25.714 6.859 9.286 0 17.857-2.358 25.714-7.073 7.857-4.715 14.072-11.074 18.643-19.075 4.572-8.002 6.857-16.575 6.857-25.72v-18.432c0-1.429.5-2.643 1.5-3.643s2.215-1.5 3.643-1.5h10.286z" fill="#000" fill-rule="nonzero"/></svg><svg width="256" height="256" viewBox="0 0 256 256" id="media-video" y="9730" xmlns="http://www.w3.org/2000/svg"><path d="M207.209 110.996c4.231 2.371 7.075 5.665 8.53 9.88 1.454 4.217 1.454 8.433 0 12.649-1.455 4.216-4.299 7.51-8.53 9.88L67.564 225.619c-3.967 2.371-8.2 3.162-12.695 2.371-4.496-.79-8.265-2.898-11.307-6.324-3.041-3.425-4.562-7.51-4.562-12.253V44.99c0-5.27 1.587-9.552 4.76-12.845 3.174-3.294 7.01-5.27 11.505-5.93 4.497-.658 8.596.198 12.299 2.57l139.645 82.212z" fill="#000" fill-rule="nonzero"/></svg><svg width="256" height="256" viewBox="0 0 256 256" id="menu" y="9986" xmlns="http://www.w3.org/2000/svg"><path d="M246 197.167v19.666c0 2.664-.973 4.968-2.92 6.914-1.945 1.947-4.25 2.92-6.913 2.92H19.833c-2.663 0-4.968-.973-6.914-2.92-1.946-1.946-2.919-4.25-2.919-6.914v-19.666c0-2.664.973-4.968 2.92-6.914 1.945-1.947 4.25-2.92 6.913-2.92h216.334c2.663 0 4.968.973 6.914 2.92 1.946 1.946 2.919 4.25 2.919 6.914zm0-78.667v19.667c0 2.663-.973 4.968-2.92 6.914-1.945 1.946-4.25 2.919-6.913 2.919H19.833c-2.663 0-4.968-.973-6.914-2.92-1.946-1.945-2.919-4.25-2.919-6.913V118.5c0-2.663.973-4.968 2.92-6.914 1.945-1.946 4.25-2.92 6.913-2.92h216.334c2.663 0 4.968.974 6.914 2.92 1.946 1.946 2.919 4.25 2.919 6.914zm0-78.667V59.5c0 2.663-.973 4.968-2.92 6.914-1.945 1.946-4.25 2.92-6.913 2.92H19.833c-2.663 0-4.968-.974-6.914-2.92C10.973 64.468 10 62.164 10 59.5V39.833c0-2.663.973-4.968 2.92-6.914C14.864 30.973 17.17 30 19.832 30h216.334c2.663 0 4.968.973 6.914 2.92 1.946 1.945 2.919 4.25 2.919 6.913z" fill-rule="nonzero" fill="#000"/></svg><svg width="256" height="256" viewBox="0 0 256 256" id="menu-thin" y="10242" xmlns="http://www.w3.org/2000/svg"><path d="M242.853 47.688H14.147C12.41 47.688 11 46.591 11 45.24v-9.792C11 34.096 12.41 33 14.147 33h228.706c1.738 0 3.147 1.096 3.147 2.448v9.792c0 1.352-1.41 2.447-3.147 2.447zm0 88.124H14.147c-1.738 0-3.147-1.095-3.147-2.447v-9.792c0-1.352 1.41-2.448 3.147-2.448h228.706c1.738 0 3.147 1.096 3.147 2.448v9.792c0 1.352-1.41 2.447-3.147 2.447zm0 88.125H14.147c-1.738 0-3.147-1.095-3.147-2.447v-9.792c0-1.352 1.41-2.448 3.147-2.448h228.706c1.738 0 3.147 1.096 3.147 2.448v9.792c0 1.352-1.41 2.447-3.147 2.447z" fill-rule="evenodd"/></svg><svg width="256" height="256" viewBox="0 0 256 256" id="minus" y="10498" xmlns="http://www.w3.org/2000/svg"><path d="M24.993 112.444h206.014a5 5 0 0 1 5 5v21.112a5 5 0 0 1-5 5H24.993a5 5 0 0 1-5-5v-21.112a5 5 0 0 1 5-5z" fill="none" fill-rule="evenodd"/></svg><svg width="256" height="256" viewBox="0 0 256 256" id="play-thin" y="10754" xmlns="http://www.w3.org/2000/svg"><path d="M128 246c-65.17 0-118-52.83-118-118S62.83 10 128 10s118 52.83 118 118-52.83 118-118 118zm-.5-10c59.923 0 108.5-48.577 108.5-108.5S187.423 19 127.5 19 19 67.577 19 127.5 67.577 236 127.5 236zM106.752 87.41l66.849 40.109a5 5 0 0 1 0 8.575l-66.849 40.11a5 5 0 0 1-7.572-4.288V91.697a5 5 0 0 1 7.572-4.287z" fill-rule="nonzero" fill="#000"/></svg><svg width="256" height="256" viewBox="0 0 256 256" id="plus" y="11010" xmlns="http://www.w3.org/2000/svg"><g fill="none" fill-rule="evenodd"><path d="M0 0h256v256H0z"/><path d="M143.556 112.444h87.451a5 5 0 0 1 5 5v21.112a5 5 0 0 1-5 5h-87.45v87.451a5 5 0 0 1-5 5h-21.113a5 5 0 0 1-5-5v-87.45H24.993a5 5 0 0 1-5-5v-21.113a5 5 0 0 1 5-5h87.45V24.993a5 5 0 0 1 5-5h21.113a5 5 0 0 1 5 5v87.45z"/></g></svg><svg width="256" height="256" viewBox="0 0 256 256" id="question-circle" y="11266" xmlns="http://www.w3.org/2000/svg"><path d="M147.667 201.75v-29.5c0-1.434-.461-2.612-1.383-3.534-.922-.922-2.1-1.383-3.534-1.383h-29.5c-1.434 0-2.612.461-3.534 1.383-.922.922-1.383 2.1-1.383 3.534v29.5c0 1.434.461 2.612 1.383 3.534.922.922 2.1 1.383 3.534 1.383h29.5c1.434 0 2.612-.461 3.534-1.383.922-.922 1.383-2.1 1.383-3.534zM187 98.5c0-9.014-2.842-17.362-8.527-25.044-5.685-7.683-12.779-13.624-21.28-17.823-8.502-4.2-17.209-6.3-26.12-6.3-24.89 0-43.892 10.91-57.003 32.727-1.536 2.458-1.126 4.61 1.23 6.453l20.28 15.365c.718.614 1.69.921 2.92.921 1.639 0 2.92-.614 3.841-1.843 5.429-6.966 9.833-11.677 13.214-14.136 3.482-2.458 7.887-3.687 13.213-3.687 4.917 0 9.296 1.331 13.137 3.995 3.841 2.663 5.762 5.684 5.762 9.065 0 3.892-1.025 7.016-3.073 9.372-2.049 2.356-5.531 4.66-10.448 6.914-6.453 2.868-12.369 7.298-17.746 13.29-5.378 5.993-8.067 12.42-8.067 19.283v5.531c0 1.434.461 2.612 1.383 3.534.922.922 2.1 1.383 3.534 1.383h29.5c1.434 0 2.612-.46 3.534-1.383.922-.922 1.383-2.1 1.383-3.534 0-1.946 1.1-4.481 3.303-7.605 2.202-3.124 4.994-5.66 8.374-7.606 3.278-1.843 5.787-3.303 7.528-4.379 1.742-1.075 4.098-2.868 7.068-5.377 2.97-2.51 5.25-4.968 6.837-7.375 1.588-2.407 3.022-5.506 4.302-9.296 1.28-3.79 1.921-7.938 1.921-12.445zm59 29.5c0 21.408-5.275 41.151-15.826 59.23-10.55 18.08-24.865 32.394-42.944 42.944C169.151 240.724 149.408 246 128 246c-21.408 0-41.151-5.275-59.23-15.826-18.08-10.55-32.394-24.865-42.944-42.944C15.276 169.151 10 149.408 10 128c0-21.408 5.275-41.151 15.826-59.23C36.376 50.69 50.69 36.376 68.77 25.826 86.849 15.276 106.592 10 128 10c21.408 0 41.151 5.275 59.23 15.826 18.08 10.55 32.394 24.865 42.944 42.944C240.724 86.849 246 106.592 246 128z" fill-rule="nonzero" fill="#000"/></svg><svg width="256" height="256" viewBox="0 0 256 256" id="screwhead-crds" y="11522" xmlns="http://www.w3.org/2000/svg"><path d="M127.58 10C62.656 10 10 62.633 10 127.61c0 64.94 52.655 117.61 117.58 117.61 64.945 0 117.636-52.67 117.636-117.61C245.216 62.633 192.526 10 127.58 10zm41.405 183.682l-42.06-42.11-41.211 41.245-24.615-24.668 41.175-41.21-40.527-40.524 24.634-24.704 40.545 40.579 41.176-41.191 24.651 24.65-41.14 41.19 42.041 42.093-24.67 24.65z" fill="#000" fill-rule="nonzero"/></svg><svg width="256" height="256" viewBox="0 0 256 256" id="search" y="11778" xmlns="http://www.w3.org/2000/svg"><path d="M240.698 209.667l-56.442-56.442c8.514-13.994 13.415-30.396 13.415-47.975 0-51.028-44.231-95.25-95.268-95.25C51.375 10 10 51.375 10 102.403c0 51.037 44.213 95.268 95.25 95.268a91.88 91.88 0 0 0 46.528-12.594l56.74 56.76c5.574 5.555 14.564 5.555 20.11 0l14.087-14.068c5.545-5.555 3.528-12.547-2.017-18.093v-.009zM38.436 102.393c0-35.325 28.632-63.976 63.957-63.976 35.344 0 66.823 31.489 66.823 66.823 0 35.335-28.631 63.976-63.976 63.976-35.344 0-66.813-31.488-66.813-66.823h.009z" fill-rule="nonzero" fill="#000"/></svg><svg width="256" height="256" viewBox="0 0 256 256" id="search-thin" y="12034" xmlns="http://www.w3.org/2000/svg"><path d="M244.375 231.977l-59.458-59.458a5.47 5.47 0 0 0-3.918-1.614h-4.747c15.81-17.1 25.489-39.915 25.489-65.035 0-52.959-42.912-95.87-95.87-95.87C52.91 10 10 52.911 10 105.87c0 52.96 42.911 95.87 95.87 95.87 25.12 0 47.935-9.679 65.035-25.442V181c0 1.475.6 2.858 1.614 3.918l59.458 59.458a5.536 5.536 0 0 0 7.835 0l4.563-4.563a5.536 5.536 0 0 0 0-7.835zM105.87 186.99c-44.847 0-81.12-36.274-81.12-81.12 0-44.848 36.273-81.122 81.12-81.122s81.121 36.274 81.121 81.121c0 44.847-36.274 81.121-81.12 81.121z" fill-rule="evenodd"/></svg><svg width="256" height="256" viewBox="0 0 256 256" id="share" y="12290" xmlns="http://www.w3.org/2000/svg"><path d="M166.681 166.998l66.588-66.588c2.394-2.394 3.59-5.233 3.59-8.517 0-3.283-1.196-6.122-3.59-8.516L166.68 16.789c-3.785-3.912-8.135-4.795-13.05-2.648-5.043 2.147-7.564 5.868-7.564 11.165V55.57c-15.007 0-28.626 1.229-40.857 3.686-12.231 2.458-22.478 5.675-30.74 9.65-8.263 3.977-15.452 8.959-21.568 14.947-6.116 5.989-10.94 12.01-14.47 18.061-3.531 6.053-6.338 12.924-8.422 20.614-2.083 7.69-3.439 14.721-4.067 21.091-.629 6.37-.943 13.337-.943 20.9 0 22.824 10.53 48.297 31.588 76.418 1.264 1.511 2.84 2.267 4.725 2.267.882 0 1.702-.191 2.457-.572 2.776-1.137 3.973-3.217 3.591-6.24-5.55-44.638-1.642-74.461 11.727-89.468 5.798-6.56 13.993-11.32 24.586-14.28 10.593-2.958 24.717-4.441 42.372-4.448v30.264c0 5.296 2.521 9.018 7.563 11.165 1.512.628 3.026.943 4.545.943 3.277 0 6.115-1.197 8.517-3.591l.01.02z" fill="#000" fill-rule="nonzero"/></svg><svg width="256" height="256" viewBox="0 0 256 256" id="twitter" y="12546" xmlns="http://www.w3.org/2000/svg"><path d="M246 54.761c-6.689 9.784-14.775 18.12-24.259 25.008.1 1.398.15 3.494.15 6.29 0 12.977-1.897 25.93-5.69 38.859-3.794 12.928-9.56 25.332-17.296 37.211-7.737 11.88-16.946 22.387-27.628 31.522-10.682 9.135-23.56 16.422-38.635 21.863-15.074 5.44-31.197 8.161-48.368 8.161-27.054 0-51.812-7.238-74.274-21.713 3.494.4 7.387.599 11.68.599 22.462 0 42.478-6.888 60.048-20.665-10.482-.2-19.866-3.42-28.152-9.659-8.286-6.24-13.976-14.2-17.07-23.884 3.293.499 6.338.749 9.134.749 4.292 0 8.535-.55 12.728-1.648-11.181-2.296-20.44-7.861-27.778-16.696-7.337-8.835-11.006-19.093-11.006-30.773v-.6c6.788 3.794 14.076 5.84 21.863 6.14-6.59-4.392-11.83-10.132-15.724-17.22-3.893-7.088-5.84-14.775-5.84-23.061 0-8.785 2.197-16.922 6.59-24.409 12.079 14.875 26.779 26.78 44.1 35.714 17.32 8.935 35.864 13.902 55.63 14.9-.799-3.793-1.198-7.487-1.198-11.081 0-13.377 4.717-24.783 14.151-34.217C148.59 36.717 159.996 32 173.373 32c13.976 0 25.756 5.091 35.34 15.274 10.882-2.096 21.114-5.99 30.698-11.68-3.694 11.48-10.782 20.365-21.264 26.655 9.284-.999 18.569-3.494 27.853-7.488z" fill="#000" fill-rule="nonzero"/></svg><svg width="256" height="256" viewBox="0 0 256 256" id="university" y="12802" xmlns="http://www.w3.org/2000/svg"><path d="M240.5 218H233v-18.75c0-6.213-5.037-11.25-11.25-11.25H203v-82.5h-15V188h-30v-82.5h-15V188h-30v-82.5H98V188H68v-82.5H53V188H34.25C28.037 188 23 193.037 23 199.25V218h-7.5a7.5 7.5 0 0 0-7.5 7.5v3.75a3.75 3.75 0 0 0 3.75 3.75h232.5a3.75 3.75 0 0 0 3.75-3.75v-3.75a7.5 7.5 0 0 0-7.5-7.5zM38 203h180v15H38v-15zM244.375 71.75l-109.26-47.595a22.502 22.502 0 0 0-14.23 0L11.625 71.75A5.625 5.625 0 0 0 8 77.007v4.118a5.625 5.625 0 0 0 5.625 5.625H23v5.625A5.625 5.625 0 0 0 28.625 98h198.75A5.625 5.625 0 0 0 233 92.375V86.75h9.375A5.625 5.625 0 0 0 248 81.125v-4.118a5.624 5.624 0 0 0-3.625-5.257zM218 83H38v-6.378l88.098-38.377a7.502 7.502 0 0 1 3.804 0L218 76.622V83z" fill-rule="evenodd"/></svg><svg width="256" height="256" viewBox="0 0 256 256" id="usd" y="13058" xmlns="http://www.w3.org/2000/svg"><path d="M189.745 166.06c0 13.433-4.363 25-13.09 34.702-8.726 9.702-20.062 15.694-34.007 17.977v23.047c0 1.229-.394 2.239-1.184 3.029-.789.79-1.798 1.185-3.025 1.185h-17.76c-1.14 0-2.127-.417-2.96-1.251-.834-.834-1.25-1.822-1.25-2.963v-23.047a82.844 82.844 0 0 1-16.773-4.083c-5.394-1.931-9.845-3.885-13.353-5.86-3.508-1.976-6.753-4.083-9.735-6.322-2.982-2.239-5.021-3.885-6.118-4.938-1.096-1.054-1.863-1.844-2.302-2.37-1.49-1.845-1.579-3.644-.263-5.4l13.55-17.78c.614-.877 1.623-1.404 3.026-1.58 1.315-.175 2.368.22 3.157 1.186l.263.263c9.91 8.692 20.567 14.18 31.968 16.462a45.898 45.898 0 0 0 9.735 1.054c7.104 0 13.353-1.888 18.747-5.663 5.394-3.776 8.09-9.131 8.09-16.067 0-2.459-.657-4.785-1.973-6.98-1.315-2.195-2.784-4.039-4.407-5.532-1.622-1.492-4.188-3.138-7.696-4.938-3.508-1.8-6.402-3.205-8.682-4.214-2.28-1.01-5.789-2.437-10.525-4.28-3.42-1.405-6.117-2.503-8.09-3.293-1.974-.79-4.67-1.953-8.091-3.49-3.42-1.536-6.161-2.897-8.222-4.083-2.061-1.185-4.539-2.743-7.433-4.675-2.894-1.931-5.24-3.797-7.038-5.597-1.798-1.8-3.706-3.95-5.723-6.453-2.017-2.502-3.574-5.048-4.67-7.638-1.097-2.59-2.017-5.51-2.763-8.758-.745-3.249-1.118-6.673-1.118-10.272 0-12.117 4.297-22.74 12.892-31.871 8.595-9.131 19.777-15.013 33.547-17.647V14.214c0-1.141.416-2.129 1.25-2.963.833-.834 1.82-1.251 2.96-1.251h17.76c1.227 0 2.236.395 3.025 1.185.79.79 1.184 1.8 1.184 3.03v23.178c5 .527 9.845 1.536 14.537 3.029 4.692 1.492 8.507 2.963 11.445 4.412a63.34 63.34 0 0 1 8.354 4.938c2.631 1.844 4.341 3.117 5.13 3.82.79.702 1.448 1.316 1.974 1.843 1.491 1.58 1.71 3.249.658 5.005L174.09 79.667c-.702 1.317-1.71 2.02-3.026 2.108-1.228.263-2.412-.044-3.552-.922-.263-.264-.899-.79-1.907-1.58-1.009-.79-2.72-1.954-5.131-3.49a67.87 67.87 0 0 0-7.696-4.215c-2.719-1.273-5.986-2.414-9.8-3.424-3.816-1.01-7.565-1.515-11.249-1.515-8.332 0-15.129 1.888-20.39 5.663-5.263 3.776-7.894 8.648-7.894 14.619 0 2.282.373 4.39 1.118 6.321.746 1.932 2.04 3.753 3.881 5.466 1.842 1.712 3.574 3.16 5.196 4.346 1.623 1.185 4.079 2.546 7.367 4.082 3.29 1.537 5.942 2.722 7.96 3.556 2.017.834 5.086 2.041 9.208 3.622 4.649 1.756 8.2 3.138 10.656 4.148 2.456 1.01 5.789 2.546 9.999 4.61 4.21 2.063 7.52 3.928 9.932 5.596 2.412 1.669 5.13 3.864 8.156 6.585 3.026 2.722 5.35 5.51 6.973 8.363 1.622 2.853 3.004 6.212 4.144 10.075 1.14 3.863 1.71 7.99 1.71 12.38z" fill-rule="nonzero" fill="#000"/></svg><svg width="256" height="256" viewBox="0 0 256 256" id="user-plus-thin" y="13314" xmlns="http://www.w3.org/2000/svg"><path d="M243.05 116.6H210.6V84.15a2.959 2.959 0 0 0-2.95-2.95h-5.9a2.959 2.959 0 0 0-2.95 2.95v32.45h-32.45a2.959 2.959 0 0 0-2.95 2.95v5.9a2.959 2.959 0 0 0 2.95 2.95h32.45v32.45a2.959 2.959 0 0 0 2.95 2.95h5.9a2.959 2.959 0 0 0 2.95-2.95V128.4h32.45a2.959 2.959 0 0 0 2.95-2.95v-5.9a2.959 2.959 0 0 0-2.95-2.95zm-117.41 23.6c-10.583 0-15.672 5.9-33.04 5.9s-22.42-5.9-33.04-5.9C32.199 140.2 10 162.399 10 189.76v15.34c0 9.772 7.928 17.7 17.7 17.7h129.8c9.772 0 17.7-7.928 17.7-17.7v-15.34c0-27.361-22.199-49.56-49.56-49.56zm37.76 64.9c0 3.245-2.655 5.9-5.9 5.9H27.7c-3.245 0-5.9-2.655-5.9-5.9v-15.34c0-20.834 16.926-37.76 37.76-37.76 7.227 0 14.418 5.9 33.04 5.9 18.585 0 25.813-5.9 33.04-5.9 20.834 0 37.76 16.926 37.76 37.76v15.34zm-70.8-76.7c26.07 0 47.2-21.13 47.2-47.2 0-26.07-21.13-47.2-47.2-47.2-26.07 0-47.2 21.13-47.2 47.2 0 26.07 21.13 47.2 47.2 47.2zm0-82.6c19.507 0 35.4 15.893 35.4 35.4 0 19.507-15.893 35.4-35.4 35.4-19.507 0-35.4-15.893-35.4-35.4 0-19.507 15.893-35.4 35.4-35.4z" fill="none" fill-rule="evenodd"/></svg><svg width="256" height="256" viewBox="0 0 256 256" id="youtube" y="13570" xmlns="http://www.w3.org/2000/svg"><path d="M178.571 128.286c0-3.249-1.317-5.62-3.95-7.112l-67.429-42.143c-2.722-1.756-5.575-1.844-8.56-.263-2.898 1.58-4.346 4.039-4.346 7.375v84.286c0 3.336 1.448 5.794 4.346 7.375 1.404.702 2.765 1.053 4.082 1.053 1.756 0 3.249-.439 4.478-1.317l67.429-42.143c2.633-1.492 3.95-3.863 3.95-7.111zm67.429 0c0 8.428-.044 15.013-.132 19.754-.087 4.741-.46 10.733-1.12 17.977-.658 7.243-1.645 13.718-2.962 19.425-1.405 6.41-4.434 11.809-9.087 16.199-4.654 4.39-10.097 6.936-16.33 7.638-19.492 2.195-48.948 3.292-88.369 3.292s-68.877-1.097-88.368-3.292c-6.234-.702-11.7-3.248-16.397-7.638-4.697-4.39-7.748-9.79-9.152-16.199-1.23-5.707-2.173-12.182-2.832-19.425-.658-7.244-1.032-13.236-1.12-17.977-.087-4.74-.131-11.326-.131-19.754 0-8.429.044-15.014.132-19.755.087-4.74.46-10.733 1.12-17.976.658-7.244 1.645-13.719 2.962-19.426 1.405-6.409 4.434-11.808 9.087-16.198 4.654-4.39 10.097-6.936 16.33-7.639C59.124 45.097 88.58 44 128 44s68.877 1.097 88.368 3.292c6.234.703 11.7 3.249 16.397 7.639 4.697 4.39 7.748 9.79 9.152 16.198 1.23 5.707 2.173 12.182 2.832 19.426.658 7.243 1.032 13.235 1.12 17.976.087 4.741.131 11.326.131 19.755z" fill="#000" fill-rule="nonzero"/></svg></svg>