<?xml version="1.0" encoding="UTF-8"?>
<svg width="578px" height="84px" viewBox="0 0 578 84" version="1.1" xmlns="http://www.w3.org/2000/svg" xmlns:xlink="http://www.w3.org/1999/xlink">
    <!-- Generator: Sketch 42 (36781) - http://www.bohemiancoding.com/sketch -->
    <title>Shape</title>
    <desc>Created with Sketch.</desc>
    <defs></defs>
    <g id="Page-1" stroke="none" stroke-width="1" fill="none" fill-rule="evenodd">
        <g id="logo-crds" fill-rule="nonzero">
            <path d="M571,50.9 C563.8,45.7 554.7,44.9 546.3,42.8 C543.8,42 540.8,41.4 539.5,38.9 C539.5,34.6 544.7,33.9 547.9,34.5 C550.9,34.8 552.2,37.9 553.6,40.1 C560.7,40.2 567.9,40.2 575,40.1 C574,35.4 572.5,30.4 568.5,27.4 C561.1,21.5 551,21 541.9,21.3 C532.1,21.7 521.1,25.6 517.3,35.4 C517.7,23.9 517.2,12.4 517.6,0.9 L493.7,0.9 C493.7,10.1 493.6,19.2 493.8,28.4 C485.2,19 468.8,18.7 460,28 C455.6,32.3 453.2,38.1 451.8,43.9 C451.6,37.7 451,30.5 445.5,26.5 C438.4,21.5 429.3,21.4 421,21.2 C412,21.5 402.2,22 394.9,27.8 C390.9,30.9 390.1,36.1 388.4,40.6 C385.5,31.5 377.2,24.9 368.1,22.7 C354.5,19.2 338.3,21.5 328.8,32.6 L328.8,21.3 C324.3,21.2 319.6,21.2 315.6,23.6 C311.5,25.9 309.3,30.2 307.2,34.2 C307.3,30.4 307.3,26.7 307.3,22.9 L285.5,22.9 C285.5,33.6 285.4,44.3 285.6,55 C278.4,46.1 266.5,45.3 256.2,42.7 C253.6,41.8 249.1,40.9 250.1,37.2 C251.8,34.1 255.9,34.1 258.9,34.8 C261.6,35.3 262.6,38.2 263.9,40.2 C271,40.3 278.2,40.2 285.3,40.2 C284.3,35.2 282.6,29.9 278.1,26.9 C270,21.2 259.4,20.9 249.9,21.6 C241.5,22.5 231.5,25.8 228.3,34.4 C227.6,39.6 226.3,45.6 229.7,50.1 C233.3,55.1 239.6,57.1 245.4,58.5 C250.7,59.9 256.3,60.2 261.2,62.6 C263.8,63.6 264.1,67.5 262,69.1 C259.2,71.4 255,71.3 251.8,69.9 C249.2,68.9 248.4,65.9 247.3,63.6 C241.4,63.5 235.5,63.6 229.6,63.6 C229,59.4 228.1,54.8 224.6,52 C216.6,45 205.4,45 195.8,41.8 C193.9,41.1 190.7,39.6 192,37.1 C193.4,33.9 197.8,33.9 200.7,34.6 C203.4,35.2 204.4,38 205.8,40 C211.9,40 218,40 224.1,40.2 C225.6,40.9 226.5,39.4 226.7,38.2 C226,30.9 220,25 212.8,23.2 C201.8,20.3 189.4,20.2 179,25.2 C173.2,27.9 169.7,33.7 169.1,40 C165.9,31.9 158.9,25.7 150.6,23.3 C136.5,19 119.3,21.2 109.3,32.9 C109.4,29.1 109.4,25.2 109.4,21.4 C105,21.3 100.4,21.3 96.5,23.7 C92.1,26 89.8,30.7 87.9,35 C88,31 88,27 87.9,23 L66.4,23 C66.4,30.1 66.3,37.2 66.6,44.2 C65.2,37.7 62.1,31.3 56.5,27.5 C48.8,22.1 39,20.7 29.9,21.4 C21.1,22.1 12.2,25.6 6.6,32.6 C2.8,37.1 1,42.8 0,48.5 L0,57.4 C0.8,63.9 3.3,70.3 8.1,74.8 C13.3,80.2 20.6,82.6 27.7,84 L39.2,84 C44.9,83.3 50.7,81.9 55.6,78.7 C61.4,75.2 64.7,69.1 66.6,62.9 C66.4,69.4 66.5,76 66.5,82.5 C74.4,82.5 82.3,82.6 90.3,82.5 C90.3,75.3 90.2,68.2 90.3,61 C90.5,56.5 91,51.6 94.2,48.2 C96.8,45.5 100.7,45.1 104.2,44.4 C102.9,53.1 103,62.6 107.9,70.2 C113,78.8 123,83 132.5,84 L142.3,84 C152.7,83.1 163.1,77.7 168,68.1 C169.4,71.2 170.7,74.4 173.2,76.7 C178.4,81.5 185.6,83.3 192.4,83.9 L203.4,83.9 C212.4,83.1 222.4,80.4 227.5,72.2 C232,79.6 240.5,82.7 248.7,83.9 L262.6,83.9 C271.3,82.8 280.7,79.9 285.7,72 C285.6,75.5 285.6,78.9 285.6,82.4 L309.4,82.4 C309.9,72.4 308.1,62.2 310.8,52.4 C312.4,46.9 318.3,44.8 323.4,44.3 C322.1,53.2 322.2,63 327.4,70.7 C332.6,78.9 342.3,82.9 351.6,83.9 L361.4,83.9 C371,83 380.5,78.5 385.9,70.2 C387.1,73.1 388.2,76.2 390.6,78.3 C393.8,81.5 398.3,82.9 402.6,83.8 L412.8,83.8 C418.9,83 424.5,80.2 429.4,76.5 C429.7,78.4 430.1,80.4 430.5,82.3 L455.5,82.3 C454,79.9 452,77.6 452,74.7 C451.8,70.7 452,66.8 451.9,62.8 C453.3,67.2 454.8,71.7 457.9,75.2 C461.6,79.9 467.3,82.4 473,83.8 L481.9,83.8 C487.8,83.1 492.6,79.3 496.3,74.9 L496.3,82.3 L517.8,82.3 C517.8,79.1 517.8,76 517.7,72.8 C522.9,79.8 531.4,83.1 539.8,83.8 L550.8,83.8 C557.8,83.1 565.1,81.7 570.8,77.3 C574.3,74.7 576.3,70.7 577.3,66.5 L577.3,60.2 C576.1,56.7 574.2,53.1 571,50.9 Z M66.5,59.3 L43.3,59.3 C42.5,61.4 41.9,63.6 40.5,65.4 C36.8,69.6 29,68.7 26.2,63.9 C24.2,60.7 23.8,56.7 23.7,53 C23.8,48.8 24.2,44.3 26.8,40.7 C29.9,36.3 37.3,36.1 40.6,40.4 C41.7,42 42.1,43.9 42.7,45.7 L66.5,45.7 L66.5,59.3 Z M144.5,64.6 C141.4,69.2 133.6,69.3 130.4,64.7 C127.2,60.2 127,54.3 127.5,49 C128.1,44.3 130.3,38.7 135.5,37.7 C138,37.1 140.9,37.5 142.9,39.3 C146.5,42.5 147.4,47.5 147.6,52.1 C147.4,56.3 147.1,60.9 144.5,64.6 Z M194.9,70.4 C191.8,69.6 190.5,66.6 189.8,63.8 C183.1,63.7 176.4,63.8 169.7,63.8 C170.9,59.1 171.4,54.3 171.2,49.4 C177.5,57.9 188.7,58.7 198.2,60.8 C201.1,61.6 205.4,62.3 205.8,66 C205.3,71 198.8,71.8 194.9,70.4 Z M366.5,53.9 C366.3,57.8 365.7,62 363.1,65.1 C359.6,69.4 351.8,68.9 349,63.9 C346.3,59.1 345.9,53.3 346.6,48 C347.2,43.6 349.6,38.6 354.3,37.5 C357.1,36.8 360.2,37.4 362.2,39.5 C366,43.4 366.7,48.9 366.5,53.9 Z M390.3,53.7 C390.4,49.7 390.2,45.7 388.6,42 C396.3,41.2 404,41.7 411.7,41.6 C412.7,39.5 413.7,37 416.2,36.4 C419.7,35.5 424.3,35.3 427.1,38.1 C428.8,40 427.8,42.9 425.7,43.9 C421.9,45.8 417.5,45.9 413.3,46.5 C405.3,47.3 396.8,48.4 390.3,53.7 Z M425.8,66.7 C422.9,70.9 416.8,71.6 412.5,69.4 C410.2,68.2 409.6,65.1 410.9,63 C412.2,60.8 414.8,60.1 417,59.5 C420.8,58.6 424.5,57.8 428.2,56.5 C427.9,59.9 427.9,63.7 425.8,66.7 Z M492.7,61.7 C490.2,67.4 481,69 477.2,63.7 C474.6,60.1 474.5,55.3 474.8,51 C475.1,46.8 476.8,41.8 481.2,40.3 C485.3,38.7 490.5,40.3 492.5,44.4 C495.2,49.7 495.2,56.4 492.7,61.7 Z M551.5,69.5 C548.5,71.5 544.4,71.5 541.3,69.8 C538.9,68.6 538.2,65.9 537.3,63.7 C530.7,63.8 524.1,63.7 517.5,63.7 C517.5,57.9 517.6,52.2 517.4,46.4 C520.2,53.2 527.2,56.8 534.1,58.2 C539.8,59.8 545.9,60 551.2,62.7 C554,64 553.9,68 551.5,69.5 Z" id="Shape"></path>
        </g>
    </g>
</svg>