<?xml version="1.0" encoding="UTF-8"?>
<svg width="256px" height="256px" viewBox="0 0 256 256" version="1.1" xmlns="http://www.w3.org/2000/svg" xmlns:xlink="http://www.w3.org/1999/xlink">
    <!-- Generator: Sketch 42 (36781) - http://www.bohemiancoding.com/sketch -->
    <title>calendar</title>
    <desc>Created with Sketch.</desc>
    <defs></defs>
    <g id="Page-1" stroke="none" stroke-width="1" fill="none" fill-rule="evenodd">
        <g id="calendar" fill="#000000" fill-rule="nonzero">
            <path d="M36.2162975,228.37119 L73.8553719,228.37119 L73.8553719,190.732116 L36.2162975,190.732116 L36.2162975,228.37119 Z M82.219719,228.37119 L124.041455,228.37119 L124.041455,190.732116 L82.219719,190.732116 L82.219719,228.37119 Z M36.2162975,182.367769 L73.8553719,182.367769 L73.8553719,140.546033 L36.2162975,140.546033 L36.2162975,182.367769 Z M82.219719,182.367769 L124.041455,182.367769 L124.041455,140.546033 L82.219719,140.546033 L82.219719,182.367769 Z M36.2162975,132.181686 L73.8553719,132.181686 L73.8553719,94.5426116 L36.2162975,94.5426116 L36.2162975,132.181686 Z M132.404826,228.37119 L174.226562,228.37119 L174.226562,190.732116 L132.404826,190.732116 L132.404826,228.37119 Z M82.219719,132.181686 L124.041455,132.181686 L124.041455,94.5426116 L82.219719,94.5426116 L82.219719,132.181686 Z M182.590909,228.37119 L220.229983,228.37119 L220.229983,190.732116 L182.590909,190.732116 L182.590909,228.37119 Z M132.404826,182.367769 L174.226562,182.367769 L174.226562,140.546033 L132.404826,140.546033 L132.404826,182.367769 Z M86.401405,69.4505455 L86.401405,31.8114711 C86.401405,30.6792562 85.9879174,29.6981983 85.1599669,28.8712231 C84.3320165,28.0432727 83.3519339,27.6297851 82.219719,27.6297851 L73.8553719,27.6297851 C72.723157,27.6297851 71.7420992,28.0432727 70.915124,28.8712231 C70.0871736,29.6991736 69.673686,30.6792562 69.673686,31.8114711 L69.673686,69.4505455 C69.673686,70.5827603 70.0871736,71.5638182 70.915124,72.3907934 C71.7430744,73.2177686 72.723157,73.6322314 73.8553719,73.6322314 L82.219719,73.6322314 C83.3519339,73.6322314 84.3329917,73.2187438 85.1599669,72.3907934 C85.9869421,71.562843 86.401405,70.5827603 86.401405,69.4505455 Z M182.590909,182.367769 L220.229983,182.367769 L220.229983,140.546033 L182.590909,140.546033 L182.590909,182.367769 Z M132.404826,132.181686 L174.226562,132.181686 L174.226562,94.5426116 L132.404826,94.5426116 L132.404826,132.181686 Z M182.590909,132.181686 L220.229983,132.181686 L220.229983,94.5426116 L182.590909,94.5426116 L182.590909,132.181686 Z M186.772595,69.4505455 L186.772595,31.8114711 C186.772595,30.6792562 186.359107,29.6981983 185.531157,28.8712231 C184.703207,28.0432727 183.723124,27.6297851 182.590909,27.6297851 L174.226562,27.6297851 C173.094347,27.6297851 172.113289,28.0432727 171.286314,28.8712231 C170.458364,29.6991736 170.044876,30.6792562 170.044876,31.8114711 L170.044876,69.4505455 C170.044876,70.5827603 170.458364,71.5638182 171.286314,72.3907934 C172.114264,73.2177686 173.094347,73.6322314 174.226562,73.6322314 L182.590909,73.6322314 C183.723124,73.6322314 184.704182,73.2187438 185.531157,72.3907934 C186.358132,71.562843 186.772595,70.5827603 186.772595,69.4505455 Z M236.958678,61.0861983 L236.958678,228.37119 C236.958678,232.902 235.302777,236.822331 231.99195,240.133157 C228.681124,243.443983 224.760793,245.099884 220.229983,245.099884 L36.2162975,245.099884 C31.6854876,245.099884 27.765157,243.443983 24.4543306,240.133157 C21.1435041,236.822331 19.4876033,232.902 19.4876033,228.37119 L19.4876033,61.0861983 C19.4876033,56.5553884 21.1435041,52.6350579 24.4543306,49.3242314 C27.765157,46.013405 31.6864628,44.3575041 36.2162975,44.3575041 L52.9449917,44.3575041 L52.9449917,31.8114711 C52.9449917,26.0606777 54.9919504,21.1378347 59.0878182,17.0429421 C63.1827107,12.9480496 68.1055537,10.9001157 73.8563471,10.9001157 L82.2206942,10.9001157 C87.9714876,10.9001157 92.8943306,12.9480496 96.9892231,17.0429421 C101.084116,21.1378347 103.13205,26.0606777 103.13205,31.8114711 L103.13205,44.3575041 L153.318132,44.3575041 L153.318132,31.8114711 C153.318132,26.0606777 155.365091,21.1378347 159.460959,17.0429421 C163.555851,12.9480496 168.478694,10.9001157 174.229488,10.9001157 L182.593835,10.9001157 C188.344628,10.9001157 193.267471,12.9480496 197.362364,17.0429421 C201.457256,21.1378347 203.50519,26.0606777 203.50519,31.8114711 L203.50519,44.3575041 L220.233884,44.3575041 C224.764694,44.3575041 228.685025,46.013405 231.995851,49.3242314 C235.306678,52.6350579 236.958678,56.5553884 236.958678,61.0861983 Z"></path>
        </g>
    </g>
</svg>