<?xml version="1.0" encoding="UTF-8"?>
<svg width="256px" height="256px" viewBox="0 0 256 256" version="1.1" xmlns="http://www.w3.org/2000/svg" xmlns:xlink="http://www.w3.org/1999/xlink">
    <!-- Generator: Sketch 45.2 (43514) - http://www.bohemiancoding.com/sketch -->
    <title>caret-down</title>
    <desc>Created with Sketch.</desc>
    <defs></defs>
    <g id="Icons" stroke="none" stroke-width="1" fill="none" fill-rule="evenodd">
        <g id="caret-down" fill="#000000" fill-rule="nonzero">
            <path d="M191.999979,104.000874 C191.999979,106.166173 191.208992,108.042143 189.627017,109.628785 L133.627901,165.627901 C132.045926,167.209876 130.169955,168.000863 127.99999,168.000863 C125.830024,168.000863 123.954054,167.209876 122.372079,165.627901 L66.3729625,109.628785 C64.7909875,108.04681 64,106.170839 64,104.000874 C64,101.830908 64.7909875,99.9549376 66.3729625,98.3729625 C67.9549376,96.7909875 69.830908,96 72.0008737,96 L183.999106,96 C186.164405,96 188.040375,96.7909875 189.627017,98.3729625 C191.213659,99.9549376 192.004646,101.830908 191.999979,104.000874 L191.999979,104.000874 Z"></path>
        </g>
    </g>
</svg>