<?xml version="1.0" encoding="UTF-8"?>
<svg width="256px" height="256px" viewBox="0 0 256 256" version="1.1" xmlns="http://www.w3.org/2000/svg" xmlns:xlink="http://www.w3.org/1999/xlink">
    <!-- Generator: Sketch 51.3 (57544) - http://www.bohemiancoding.com/sketch -->
    <title>chat-thin</title>
    <desc>Created with Sketch.</desc>
    <defs></defs>
    <g id="chat-thin" stroke="none" stroke-width="1" fill="none" fill-rule="evenodd" fill="#000000">
        <path d="M216.5,10 L39.5,10 C23.2289063,10 10,23.2289063 10,39.5 L10,172.25 C10,188.521094 23.2289063,201.75 39.5,201.75 L83.75,201.75 L83.75,240.46875 C83.75,243.741406 86.4234375,246 89.28125,246 C90.3875,246 91.5398438,245.677344 92.5539062,244.89375 L150.125,201.75 L216.5,201.75 C232.771094,201.75 246,188.521094 246,172.25 L246,39.5 C246,23.2289063 232.771094,10 216.5,10 Z M231.25,172.25 C231.25,180.3625 224.6125,187 216.5,187 L145.192969,187 L141.275,189.95 L98.5,222.03125 L98.5,187 L39.5,187 C31.3875,187 24.75,180.3625 24.75,172.25 L24.75,39.5 C24.75,31.3875 31.3875,24.75 39.5,24.75 L216.5,24.75 C224.6125,24.75 231.25,31.3875 231.25,39.5 L231.25,172.25 Z"></path>
    </g>
</svg>