<?xml version="1.0" encoding="UTF-8"?>
<svg width="256px" height="256px" viewBox="0 0 256 256" version="1.1" xmlns="http://www.w3.org/2000/svg" xmlns:xlink="http://www.w3.org/1999/xlink">
    <!-- Generator: Sketch 44.1 (41455) - http://www.bohemiancoding.com/sketch -->
    <title>equalizer</title>
    <desc>Created with Sketch.</desc>
    <defs></defs>
    <g id="Icons" stroke="none" stroke-width="1" fill="none" fill-rule="evenodd">
        <g id="equalizer" fill-rule="nonzero" fill="#000000">
            <path d="M216.940994,113.25 L220.651398,113.25 C226.773564,113.25 231.782609,108.271875 231.782609,102.1875 L231.782609,65.3125 C231.782609,59.228125 226.773564,54.25 220.651398,54.25 L216.940994,54.25 L216.940994,10 L187.257764,10 L187.257764,54.25 L183.54736,54.25 C177.425194,54.25 172.416149,59.228125 172.416149,65.3125 L172.416149,102.1875 C172.416149,108.271875 177.425194,113.25 183.54736,113.25 L187.257764,113.25 L187.257764,246 L216.940994,246 L216.940994,113.25 Z M187.257764,69 L216.940994,69 L216.940994,98.5 L187.257764,98.5 L187.257764,69 Z M146.443323,201.75 C152.565489,201.75 157.574534,196.771875 157.574534,190.6875 L157.574534,153.8125 C157.574534,147.728125 152.565489,142.75 146.443323,142.75 L142.732919,142.75 L142.732919,10 L113.049689,10 L113.049689,142.75 L109.339286,142.75 C103.21712,142.75 98.2080745,147.728125 98.2080745,153.8125 L98.2080745,190.6875 C98.2080745,196.771875 103.21712,201.75 109.339286,201.75 L113.049689,201.75 L113.049689,246 L142.732919,246 L142.732919,201.75 L146.443323,201.75 Z M113.049689,157.5 L142.732919,157.5 L142.732919,187 L113.049689,187 L113.049689,157.5 Z M72.2352484,113.25 C78.3574146,113.25 83.3664596,108.271875 83.3664596,102.1875 L83.3664596,65.3125 C83.3664596,59.228125 78.3574146,54.25 72.2352484,54.25 L68.5248447,54.25 L68.5248447,10 L38.8416149,10 L38.8416149,54.25 L35.1312112,54.25 C29.009045,54.25 24,59.228125 24,65.3125 L24,102.1875 C24,108.271875 29.009045,113.25 35.1312112,113.25 L38.8416149,113.25 L38.8416149,246 L68.5248447,246 L68.5248447,113.25 L72.2352484,113.25 Z M38.8416149,69 L68.5248447,69 L68.5248447,98.5 L38.8416149,98.5 L38.8416149,69 Z" id="icon-equalizer"></path>
        </g>
    </g>
</svg>