<?xml version="1.0" encoding="UTF-8"?>
<svg width="256px" height="257px" viewBox="0 0 256 257" version="1.1" xmlns="http://www.w3.org/2000/svg" xmlns:xlink="http://www.w3.org/1999/xlink">
    <!-- Generator: Sketch 47.1 (45422) - http://www.bohemiancoding.com/sketch -->
    <title>eye-slash</title>
    <desc>Created with Sketch.</desc>
    <defs></defs>
    <g id="Icons" stroke="none" stroke-width="1" fill="none" fill-rule="evenodd">
        <g id="eye-slash" transform="translate(0.000000, 0.020747)" fill="#000000" fill-rule="nonzero">
            <path d="M82.3325,179.22 L92.78,160.335 C85.01,154.71 78.9375,147.6125 74.5625,139.0425 C70.1875,130.4725 68,121.41 68,111.855 C68,101.05 70.7225,91.005 76.1675,81.72 C55.7225,92.165 38.7125,107.925 25.1375,129 C40.0475,152.035 59.11,168.775 82.325,179.22 L82.3325,179.22 Z M134.4275,77.5725 C134.4275,75.7875 133.8025,74.27 132.5525,73.02 C131.3025,71.77 129.785,71.145 128,71.145 C116.84,71.145 107.265,75.14 99.275,83.13 C91.285,91.12 87.29,100.695 87.29,111.855 C87.29,113.64 87.915,115.1575 89.165,116.4075 C90.415,117.6575 91.9325,118.2825 93.7175,118.2825 C95.5025,118.2825 97.02,117.6575 98.27,116.4075 C99.52,115.1575 100.145,113.64 100.145,111.855 C100.145,104.175 102.8675,97.6125 108.3125,92.1675 C113.7575,86.7225 120.32,84 128,84 C129.785,84 131.3025,83.375 132.5525,82.125 C133.8025,80.875 134.4275,79.3575 134.4275,77.5725 L134.4275,77.5725 Z M183.0425,51.99 C183.0425,52.615 182.9975,53.0175 182.9075,53.1975 C173.5325,69.9825 159.47,95.25 140.72,129 C121.97,162.75 107.8625,188.0625 98.3975,204.9375 L91.835,216.855 C90.94,218.285 89.69,219 88.085,219 C87.015,219 81.0325,215.875 70.1375,209.625 C68.7075,208.73 67.9925,207.48 67.9925,205.875 C67.9925,204.805 69.9575,200.92 73.8875,194.22 C61.1175,188.415 49.355,180.6925 38.6,171.0525 C27.845,161.4125 18.5375,150.475 10.6775,138.24 C8.8925,135.47 8,132.39 8,129 C8,125.61 8.8925,122.53 10.6775,119.76 C24.3375,98.78 41.3025,82.2175 61.5725,70.0725 C81.8425,57.9275 103.985,51.855 128,51.855 C135.945,51.855 143.98,52.615 152.105,54.135 L159.335,41.145 C160.23,39.715 161.48,39 163.085,39 C163.53,39 164.3325,39.2675 165.4925,39.8025 C166.6525,40.3375 168.0375,41.03 169.6475,41.88 C171.2575,42.73 172.73,43.555 174.065,44.355 C175.4,45.155 176.8075,45.98 178.2875,46.83 C179.7675,47.68 180.6375,48.1925 180.8975,48.3675 C182.3275,49.2625 183.0425,50.4675 183.0425,51.9825 L183.0425,51.99 Z M188,111.855 C188,124.265 184.4725,135.5825 177.4175,145.8075 C170.3625,156.0325 161.0325,163.3775 149.4275,167.8425 L186.9275,100.6125 C187.6425,104.6325 188,108.3825 188,111.8625 L188,111.855 Z M248,129 C248,132.125 247.1075,135.205 245.3225,138.24 C241.8425,143.955 236.9775,150.4275 230.7275,157.6575 C217.3325,173.0125 201.82,184.9325 184.19,193.4175 C166.56,201.9025 147.8325,206.1425 128.0075,206.1375 L137.915,188.46 C156.845,186.855 174.3675,180.74 190.4825,170.115 C206.5975,159.49 220.0575,145.785 230.8625,129 C220.5925,113.02 208.0025,99.895 193.0925,89.625 L201.53,74.625 C210.01,80.34 218.1575,87.17 225.9725,95.115 C233.7875,103.06 240.2375,111.275 245.3225,119.76 C247.1075,122.795 248,125.875 248,129 Z"></path>
        </g>
    </g>
</svg>