<?xml version="1.0" encoding="UTF-8"?>
<svg width="256px" height="257px" viewBox="0 0 256 257" version="1.1" xmlns="http://www.w3.org/2000/svg" xmlns:xlink="http://www.w3.org/1999/xlink">
    <!-- Generator: Sketch 47.1 (45422) - http://www.bohemiancoding.com/sketch -->
    <title>eye</title>
    <desc>Created with Sketch.</desc>
    <defs></defs>
    <g id="Icons" stroke="none" stroke-width="1" fill="none" fill-rule="evenodd">
        <g id="eye" transform="translate(0.000000, 0.020747)" fill="#000000" fill-rule="nonzero">
            <path d="M230.855,129.5725 C217.285,108.5025 200.275,92.7425 179.825,82.2925 C185.27,91.5775 187.9925,101.6225 187.9925,112.4275 C187.9925,128.9475 182.1225,143.0775 170.3825,154.8175 C158.6425,166.5575 144.5125,172.4275 127.9925,172.4275 C111.4725,172.4275 97.3425,166.5575 85.6025,154.8175 C73.8625,143.0775 67.9925,128.9475 67.9925,112.4275 C67.9925,101.6225 70.715,91.5775 76.16,82.2925 C55.715,92.7375 38.705,108.4975 25.13,129.5725 C37.005,147.8775 51.8925,162.4525 69.7925,173.2975 C87.6925,184.1425 107.09,189.5675 127.985,189.5725 C148.88,189.5775 168.2775,184.1525 186.1775,173.2975 C204.0775,162.4425 218.965,147.8675 230.84,129.5725 L230.855,129.5725 Z M134.4275,78.145 C134.4275,76.36 133.8025,74.8425 132.5525,73.5925 C131.3025,72.3425 129.785,71.7175 128,71.7175 C116.84,71.7175 107.265,75.7125 99.275,83.7025 C91.285,91.6925 87.29,101.2675 87.29,112.4275 C87.29,114.2125 87.915,115.73 89.165,116.98 C90.415,118.23 91.9325,118.855 93.7175,118.855 C95.5025,118.855 97.02,118.23 98.27,116.98 C99.52,115.73 100.145,114.2125 100.145,112.4275 C100.145,104.7475 102.8675,98.185 108.3125,92.74 C113.7575,87.295 120.32,84.5725 128,84.5725 C129.785,84.5725 131.3025,83.9475 132.5525,82.6975 C133.8025,81.4475 134.4275,79.93 134.4275,78.145 L134.4275,78.145 Z M248,129.5725 C248,132.6075 247.1075,135.6875 245.3225,138.8125 C232.8225,159.3475 216.015,175.7975 194.9,188.1625 C173.785,200.5275 151.485,206.71 128,206.71 C104.515,206.71 82.215,200.505 61.1,188.095 C39.985,175.685 23.1775,159.2575 10.6775,138.8125 C8.8925,135.6875 8,132.6075 8,129.5725 C8,126.5375 8.8925,123.4575 10.6775,120.3325 C23.1775,99.8875 39.985,83.46 61.1,71.05 C82.215,58.64 104.515,52.435 128,52.435 C151.485,52.435 173.785,58.64 194.9,71.05 C216.015,83.46 232.8225,99.8875 245.3225,120.3325 C247.1075,123.4575 248,126.5375 248,129.5725 Z"></path>
        </g>
    </g>
</svg>