<?xml version="1.0" encoding="UTF-8"?>
<svg width="256px" height="256px" viewBox="0 0 256 256" version="1.1" xmlns="http://www.w3.org/2000/svg" xmlns:xlink="http://www.w3.org/1999/xlink">
    <!-- Generator: Sketch 52.6 (67491) - http://www.bohemiancoding.com/sketch -->
    <title>heart-o</title>
    <desc>Created with Sketch.</desc>
    <g id="heart-o" stroke="none" stroke-width="1" fill="none" fill-rule="evenodd">
        <path d="M222.944078,39.3395243 C232.469215,47.3270078 239.075354,57.1577641 242.762502,68.8317796 C246.449652,80.505795 246.987363,92.2566154 244.37563,104.084241 C241.763898,115.911866 236.156363,126.126627 227.553015,134.728537 L138.600552,226.891836 C135.527926,229.963948 131.994414,231.5 128,231.5 C124.005586,231.5 120.472074,229.963948 117.399448,226.891836 L28.4469857,135.189353 C19.8436364,126.280238 14.2361025,115.911866 11.6243699,104.084241 C9.01263721,92.2566154 9.55034867,80.505795 13.2374974,68.8317796 C16.924646,57.1577641 23.4539742,47.3270078 32.8254748,39.3395243 C42.1969753,31.3520408 52.5670809,26.743876 63.9357917,25.5150296 C74.0754506,24.2861833 84.3687383,25.6686328 94.8156619,29.6623781 C104.340799,33.3489099 112.329618,38.5714945 118.782129,45.3301387 L128,55.0072848 L137.217871,45.3301387 C144.899434,37.3426551 153.886859,31.6592471 164.180146,28.2799285 C174.473434,24.90061 184.843539,24.1325802 195.290463,25.9758461 C205.737386,27.8191121 214.955259,32.2736738 222.944078,39.3395243 Z M216.952462,124.590575 C223.097708,118.446357 227.322567,110.842885 229.627035,101.780159 C231.931504,92.7174318 231.854686,83.8851205 229.396589,75.2832104 C226.631227,65.452461 221.330951,57.2345622 213.49576,50.6295283 C205.66057,44.0244943 196.980408,40.4147604 187.455272,39.8003408 C179.773711,39.4931275 171.938519,41.1827902 163.9497,44.8693221 C157.189924,47.6342211 151.812837,51.320753 147.818425,55.9289178 L128,76.2048434 L108.181576,55.9289178 C103.879904,51.320753 98.5028109,47.480618 92.0503004,44.4085057 C84.0614806,40.7219738 76.2262897,39.1859211 68.5447276,39.8003408 C59.0195912,40.4147604 50.339431,44.0244943 42.5042401,50.6295283 C34.6690491,57.2345622 29.3687729,65.452461 26.6034114,75.2832104 C24.1453146,83.8851205 24.0684967,92.7174318 26.3729645,101.780159 C28.6774325,110.842885 32.9022927,118.446357 39.0475382,124.590575 L128,216.753872 L216.952462,124.590575 Z" id="Shape" fill-rule="nonzero"></path>
    </g>
</svg>