<?xml version="1.0" encoding="UTF-8"?>
<svg width="256px" height="256px" viewBox="0 0 256 256" version="1.1" xmlns="http://www.w3.org/2000/svg" xmlns:xlink="http://www.w3.org/1999/xlink">
    <!-- Generator: Sketch 42 (36781) - http://www.bohemiancoding.com/sketch -->
    <title>instagram</title>
    <desc>Created with Sketch.</desc>
    <defs></defs>
    <g id="Page-1" stroke="none" stroke-width="1" fill="none" fill-rule="evenodd">
        <g id="instagram" fill="#000000" fill-rule="nonzero">
            <path d="M219.265625,209.432292 L219.265625,109.869792 L198.523438,109.869792 C200.572049,116.322917 201.596354,123.032118 201.596354,129.997396 C201.596354,142.903646 198.318576,154.811198 191.763021,165.720052 C185.207465,176.628906 176.296007,185.258681 165.028646,191.609375 C153.761285,197.960069 141.469618,201.135417 128.153646,201.135417 C107.974826,201.135417 90.7152778,194.195747 76.375,180.316406 C62.0347222,166.437066 54.8645833,149.664062 54.8645833,129.997396 C54.8645833,123.032118 55.8888889,116.322917 57.9375,109.869792 L36.2734375,109.869792 L36.2734375,209.432292 C36.2734375,212.095486 37.1697049,214.323351 38.9622396,216.115885 C40.7547743,217.90842 42.9826389,218.804687 45.6458333,218.804687 L209.893229,218.804687 C212.453993,218.804687 214.65625,217.90842 216.5,216.115885 C218.34375,214.323351 219.265625,212.095486 219.265625,209.432292 Z M175.630208,127.539063 C175.630208,114.837674 170.995226,104.005642 161.72526,95.0429688 C152.455295,86.0802951 141.264757,81.5989583 128.153646,81.5989583 C115.144965,81.5989583 104.005642,86.0802951 94.7356771,95.0429688 C85.4657118,104.005642 80.8307292,114.837674 80.8307292,127.539063 C80.8307292,140.240451 85.4657118,151.072483 94.7356771,160.035156 C104.005642,168.99783 115.144965,173.479167 128.153646,173.479167 C141.264757,173.479167 152.455295,168.99783 161.72526,160.035156 C170.995226,151.072483 175.630208,140.240451 175.630208,127.539063 Z M219.265625,72.2265625 L219.265625,46.875 C219.265625,44.0069444 218.241319,41.5230035 216.192708,39.4231771 C214.144097,37.3233507 211.634549,36.2734375 208.664062,36.2734375 L181.929688,36.2734375 C178.959201,36.2734375 176.449653,37.3233507 174.401042,39.4231771 C172.352431,41.5230035 171.328125,44.0069444 171.328125,46.875 L171.328125,72.2265625 C171.328125,75.1970486 172.352431,77.7065972 174.401042,79.7552083 C176.449653,81.8038194 178.959201,82.828125 181.929688,82.828125 L208.664062,82.828125 C211.634549,82.828125 214.144097,81.8038194 216.192708,79.7552083 C218.241319,77.7065972 219.265625,75.1970486 219.265625,72.2265625 Z M246,40.2682292 L246,215.731771 C246,224.028646 243.029514,231.147569 237.088542,237.088542 C231.147569,243.029514 224.028646,246 215.731771,246 L40.2682292,246 C31.9713542,246 24.8524306,243.029514 18.9114583,237.088542 C12.9704861,231.147569 10,224.028646 10,215.731771 L10,40.2682292 C10,31.9713542 12.9704861,24.8524306 18.9114583,18.9114583 C24.8524306,12.9704861 31.9713542,10 40.2682292,10 L215.731771,10 C224.028646,10 231.147569,12.9704861 237.088542,18.9114583 C243.029514,24.8524306 246,31.9713542 246,40.2682292 Z"></path>
        </g>
    </g>
</svg>