<?xml version="1.0" encoding="UTF-8"?>
<svg width="256px" height="256px" viewBox="0 0 256 256" version="1.1" xmlns="http://www.w3.org/2000/svg" xmlns:xlink="http://www.w3.org/1999/xlink">
    <!-- Generator: Sketch 49.1 (51147) - http://www.bohemiancoding.com/sketch -->
    <title>location-arrow</title>
    <desc>Created with Sketch.</desc>
    <defs></defs>
    <g id="location-arrow" stroke="none" stroke-width="1" fill="none" fill-rule="evenodd">
        <path d="M232.275508,36.3039456 L136.36718,228.11221 C134.666469,231.608737 131.818898,233.357 127.824466,233.357 C127.32656,233.357 126.576905,233.2563 125.5755,233.0549 C123.376884,232.556995 121.603445,231.432512 120.255185,229.681451 C118.906924,227.930391 118.232794,225.95835 118.232794,223.765328 L118.232794,137.448672 L31.9161375,137.448672 C29.7175215,137.448672 27.7454805,136.774542 26.0000144,135.426281 C24.2545483,134.07802 23.1300653,132.304582 22.6265655,130.105966 C22.1230656,127.90735 22.3216683,125.809434 23.2223736,123.812218 C24.1230789,121.815002 25.5720395,120.315691 27.5692556,119.314286 L219.37752,23.405958 C220.675431,22.7066527 222.124391,22.357 223.724402,22.357 C226.420923,22.357 228.669889,23.305258 230.4713,25.2017741 C231.97061,26.6003848 232.893693,28.3234731 233.240549,30.3710391 C233.587404,32.4186052 233.262927,34.3906462 232.267116,36.2871623 L232.275508,36.3039456 Z"></path>
    </g>
</svg>