<?xml version="1.0" encoding="UTF-8"?>
<svg width="256px" height="256px" viewBox="0 0 256 256" version="1.1" xmlns="http://www.w3.org/2000/svg" xmlns:xlink="http://www.w3.org/1999/xlink">
    <!-- Generator: Sketch 50.2 (55047) - http://www.bohemiancoding.com/sketch -->
    <title>media-article</title>
    <desc>Created with Sketch.</desc>
    <defs></defs>
    <g id="media-article" stroke="none" stroke-width="1" fill="none" fill-rule="evenodd">
        <g transform="translate(37.000000, 37.000000)" fill="#000000" fill-rule="nonzero" id="Shape">
            <path d="M118.96061,18.1745377 C118.96061,19.5513945 118.478707,20.7217287 117.514909,21.6855279 C116.551109,22.6493271 115.380775,23.1312298 114.003918,23.1312298 L4.95669217,23.1312298 C3.57983527,23.1312298 2.40950105,22.6493271 1.44570185,21.6855279 C0.48190265,20.7217287 0,19.5513945 0,18.1745377 L0,4.95669217 C0,3.57983527 0.48190265,2.40950105 1.44570185,1.44570185 C2.40950105,0.48190265 3.57983527,0 4.95669217,0 L114.003918,0 C115.380775,0 116.551109,0.48190265 117.514909,1.44570185 C118.478707,2.40950105 118.96061,3.57983527 118.96061,4.95669217 L118.96061,18.1745377 Z M4.95669217,76.0026128 C3.57983527,76.0026128 2.40950105,75.5207099 1.44570185,74.5569101 C0.48190265,73.5931118 0,72.4227775 0,71.0459196 L0,57.828074 C0,56.4512176 0.48190265,55.2808834 1.44570185,54.3170835 C2.40950105,53.3532853 3.57983527,52.8713823 4.95669217,52.8713823 L180.093146,52.8713823 C181.470003,52.8713823 182.640337,53.3532853 183.604137,54.3170835 C184.567935,55.2808834 185.049838,56.4512176 185.049838,57.828074 L185.049838,71.0459196 C185.049838,72.4227775 184.567935,73.5931118 183.604137,74.5569101 C182.640337,75.5207099 181.470003,76.0026128 180.093146,76.0026128 L4.95669217,76.0026128 Z M4.95669217,181.745377 C3.57983527,181.745377 2.40950105,181.263474 1.44570185,180.299675 C0.48190265,179.335876 0,178.165542 0,176.788684 L0,163.570839 C0,162.193982 0.48190265,161.023648 1.44570185,160.059848 C2.40950105,159.09605 3.57983527,158.614147 4.95669217,158.614147 L180.093146,158.614147 C181.470003,158.614147 182.640337,159.09605 183.604137,160.059848 C184.567935,161.023648 185.049838,162.193982 185.049838,163.570839 L185.049838,176.788684 C185.049838,178.165542 184.567935,179.335876 183.604137,180.299675 C182.640337,181.263474 181.470003,181.745377 180.093146,181.745377 L4.95669217,181.745377 Z M114.003918,105.742765 C115.380775,105.742765 116.551109,106.224668 117.514909,107.188466 C118.478707,108.152266 118.96061,109.3226 118.96061,110.699456 L118.96061,123.917302 C118.96061,125.29416 118.478707,126.464494 117.514909,127.428292 C116.551109,128.392092 115.380775,128.873995 114.003918,128.873995 L4.95669217,128.873995 C3.57983527,128.873995 2.40950105,128.392092 1.44570185,127.428292 C0.48190265,126.464494 0,125.29416 0,123.917302 L0,110.699456 C0,109.3226 0.48190265,108.152266 1.44570185,107.188466 C2.40950105,106.224668 3.57983527,105.742765 4.95669217,105.742765 L114.003918,105.742765 Z"></path>
        </g>
    </g>
</svg>