<?xml version="1.0" encoding="UTF-8"?>
<svg width="256px" height="256px" viewBox="0 0 256 256" version="1.1" xmlns="http://www.w3.org/2000/svg" xmlns:xlink="http://www.w3.org/1999/xlink">
    <!-- Generator: Sketch 51.2 (57519) - http://www.bohemiancoding.com/sketch -->
    <title>media-music</title>
    <desc>Created with Sketch.</desc>
    <defs></defs>
    <g id="media-music" stroke="none" stroke-width="1" fill="none" fill-rule="evenodd">
        <g transform="translate(29.000000, 10.000000)" fill="#000000" fill-rule="nonzero" id="Shape">
            <path d="M55.1913394,174.672848 C46.6103282,173.008125 36.6268115,173.640103 26.7262832,177.038918 C4.46046803,184.722858 -3.39854307,203.427898 2.51023815,218.795779 C8.40242194,234.171367 25.8383062,240.390966 48.1041213,232.707024 C67.0089015,226.186851 79.3990859,211.728403 79.0837291,198.094609 C79.0837291,198.094609 79.0837291,157.799521 79.0837291,77.2093452 L173.375265,57.1478633 L173.375265,150.002544 C164.794253,148.337818 154.810738,148.969799 144.91021,152.368612 C122.627796,160.052552 114.768786,178.757592 120.677566,194.125473 C126.586347,209.501061 144.005635,215.72066 166.288047,208.03672 C185.209426,201.516545 197.574712,187.058097 197.275955,173.424305 L197.275955,8.99178972 C197.275955,4.91868969 193.974055,1.61678972 189.900955,1.61678972 C189.416441,1.61678972 188.933108,1.66453566 188.45796,1.75933557 L62.6142165,26.8672424 C58.3033623,27.7273291 55.1994588,31.5114693 55.1992095,35.9072873 L55.1913394,174.672848 Z"></path>
        </g>
    </g>
</svg>