<?xml version="1.0" encoding="UTF-8"?>
<svg width="256px" height="256px" viewBox="0 0 256 256" version="1.1" xmlns="http://www.w3.org/2000/svg" xmlns:xlink="http://www.w3.org/1999/xlink">
    <!-- Generator: Sketch 49.1 (51147) - http://www.bohemiancoding.com/sketch -->
    <title>plus</title>
    <desc>Created with Sketch.</desc>
    <defs></defs>
    <g id="plus" stroke="none" stroke-width="1" fill="none" fill-rule="evenodd">
        <rect id="Mask" x="0" y="0" width="256" height="256"></rect>
        <path d="M143.556349,112.443651 L231.007143,112.443651 C233.768566,112.443651 236.007143,114.682227 236.007143,117.443651 L236.007143,138.556349 C236.007143,141.317773 233.768566,143.556349 231.007143,143.556349 L143.556349,143.556349 L143.556349,231.007143 C143.556349,233.768566 141.317773,236.007143 138.556349,236.007143 L117.443651,236.007143 C114.682227,236.007143 112.443651,233.768566 112.443651,231.007143 L112.443651,143.556349 L24.9928573,143.556349 C22.2314336,143.556349 19.9928573,141.317773 19.9928573,138.556349 L19.9928573,117.443651 C19.9928573,114.682227 22.2314336,112.443651 24.9928573,112.443651 L112.443651,112.443651 L112.443651,24.9928573 C112.443651,22.2314336 114.682227,19.9928573 117.443651,19.9928573 L138.556349,19.9928573 C141.317773,19.9928573 143.556349,22.2314336 143.556349,24.9928573 L143.556349,112.443651 Z"></path>
    </g>
</svg>