<?xml version="1.0" encoding="UTF-8"?>
<svg width="256px" height="256px" viewBox="0 0 256 256" version="1.1" xmlns="http://www.w3.org/2000/svg" xmlns:xlink="http://www.w3.org/1999/xlink">
    <!-- Generator: Sketch 51.2 (57519) - http://www.bohemiancoding.com/sketch -->
    <title>university</title>
    <desc>Created with Sketch.</desc>
    <defs></defs>
    <g id="university" stroke="none" stroke-width="1" fill="none" fill-rule="evenodd" fill="#000000">
        <path d="M240.5,218 L233,218 L233,199.25 C233,193.036719 227.963281,188 221.75,188 L203,188 L203,105.5 L188,105.5 L188,188 L158,188 L158,105.5 L143,105.5 L143,188 L113,188 L113,105.5 L98,105.5 L98,188 L68,188 L68,105.5 L53,105.5 L53,188 L34.25,188 C28.0367187,188 23,193.036719 23,199.25 L23,218 L15.5,218 C11.3576562,218 8,221.357656 8,225.5 L8,229.25 C8,231.321068 9.67893219,233 11.75,233 L244.25,233 C246.321068,233 248,231.321068 248,229.25 L248,225.5 C248,221.357656 244.642344,218 240.5,218 Z M38,203 L218,203 L218,218 L38,218 L38,203 Z M244.375156,71.75 L135.115156,24.1545312 C130.496612,22.6151514 125.503388,22.6151514 120.884844,24.1545312 L11.6248438,71.75 C9.44237398,72.5801719 7.99981425,74.6724712 8,77.0075 L8,81.125 C8,84.2314062 10.5185938,86.75 13.625,86.75 L23,86.75 L23,92.375 C23,95.4814062 25.5185937,98 28.625,98 L227.375,98 C230.481406,98 233,95.4814062 233,92.375 L233,86.75 L242.375,86.75 C245.481406,86.75 248,84.2314062 248,81.125 L248,77.0075 C248,74.6721875 246.557656,72.5801562 244.375156,71.75 Z M218,83 L38,83 L38,76.6221875 L126.098281,38.2451562 C127.345044,37.9184307 128.654956,37.9184307 129.901719,38.2451562 L218,76.6221875 L218,83 Z"></path>
    </g>
</svg>