<?xml version="1.0" encoding="UTF-8"?>
<svg width="256px" height="256px" viewBox="0 0 256 256" version="1.1" xmlns="http://www.w3.org/2000/svg" xmlns:xlink="http://www.w3.org/1999/xlink">
    <!-- Generator: Sketch 52.6 (67491) - http://www.bohemiancoding.com/sketch -->
    <title>user-plus-thin</title>
    <desc>Created with Sketch.</desc>
    <g id="user-plus-thin" stroke="none" stroke-width="1" fill="none" fill-rule="evenodd">
        <path d="M243.05,116.6 L210.6,116.6 L210.6,84.15 C210.6,82.5275 209.2725,81.2 207.65,81.2 L201.75,81.2 C200.1275,81.2 198.8,82.5275 198.8,84.15 L198.8,116.6 L166.35,116.6 C164.7275,116.6 163.4,117.9275 163.4,119.55 L163.4,125.45 C163.4,127.0725 164.7275,128.4 166.35,128.4 L198.8,128.4 L198.8,160.85 C198.8,162.4725 200.1275,163.8 201.75,163.8 L207.65,163.8 C209.2725,163.8 210.6,162.4725 210.6,160.85 L210.6,128.4 L243.05,128.4 C244.6725,128.4 246,127.0725 246,125.45 L246,119.55 C246,117.9275 244.6725,116.6 243.05,116.6 Z M125.64,140.2 C115.056875,140.2 109.968125,146.1 92.6,146.1 C75.231875,146.1 70.18,140.2 59.56,140.2 C32.19875,140.2 10,162.39875 10,189.76 L10,205.1 C10,214.871875 17.928125,222.8 27.7,222.8 L157.5,222.8 C167.271875,222.8 175.2,214.871875 175.2,205.1 L175.2,189.76 C175.2,162.39875 153.00125,140.2 125.64,140.2 Z M163.4,205.1 C163.4,208.345 160.745,211 157.5,211 L27.7,211 C24.455,211 21.8,208.345 21.8,205.1 L21.8,189.76 C21.8,168.925625 38.725625,152 59.56,152 C66.7875,152 73.978125,157.9 92.6,157.9 C111.185,157.9 118.4125,152 125.64,152 C146.474375,152 163.4,168.925625 163.4,189.76 L163.4,205.1 Z M92.6,128.4 C118.670625,128.4 139.8,107.270625 139.8,81.2 C139.8,55.129375 118.670625,34 92.6,34 C66.529375,34 45.4,55.129375 45.4,81.2 C45.4,107.270625 66.529375,128.4 92.6,128.4 Z M92.6,45.8 C112.106875,45.8 128,61.693125 128,81.2 C128,100.706875 112.106875,116.6 92.6,116.6 C73.093125,116.6 57.2,100.706875 57.2,81.2 C57.2,61.693125 73.093125,45.8 92.6,45.8 Z" id="Shape" fill-rule="nonzero"></path>
    </g>
</svg>