<?xml version="1.0" encoding="UTF-8"?>
<svg width="256px" height="256px" viewBox="0 0 256 256" version="1.1" xmlns="http://www.w3.org/2000/svg" xmlns:xlink="http://www.w3.org/1999/xlink">
    <!-- Generator: Sketch 42 (36781) - http://www.bohemiancoding.com/sketch -->
    <title>youtube</title>
    <desc>Created with Sketch.</desc>
    <defs></defs>
    <g id="Page-1" stroke="none" stroke-width="1" fill="none" fill-rule="evenodd">
        <g id="youtube" fill="#000000" fill-rule="nonzero">
            <path d="M178.571429,128.285714 C178.571429,125.037202 177.254464,122.666667 174.620536,121.174107 L107.191964,79.03125 C104.470238,77.2752976 101.616815,77.1875 98.6316964,78.7678571 C95.734375,80.3482143 94.2857143,82.8065476 94.2857143,86.1428571 L94.2857143,170.428571 C94.2857143,173.764881 95.734375,176.223214 98.6316964,177.803571 C100.036458,178.505952 101.397321,178.857143 102.714286,178.857143 C104.470238,178.857143 105.962798,178.418155 107.191964,177.540179 L174.620536,135.397321 C177.254464,133.904762 178.571429,131.534226 178.571429,128.285714 Z M246,128.285714 C246,136.714286 245.956101,143.299107 245.868304,148.040179 C245.780506,152.78125 245.407366,158.773438 244.748884,166.016741 C244.090402,173.260045 243.102679,179.735119 241.785714,185.441964 C240.380952,191.85119 237.351935,197.250744 232.698661,201.640625 C228.045387,206.030506 222.601935,208.576637 216.368304,209.279018 C196.877232,211.473958 167.421131,212.571429 128,212.571429 C88.578869,212.571429 59.1227679,211.473958 39.6316964,209.279018 C33.3980655,208.576637 27.9326637,206.030506 23.2354911,201.640625 C18.5383185,197.250744 15.4873512,191.85119 14.0825893,185.441964 C12.8534226,179.735119 11.9095982,173.260045 11.2511161,166.016741 C10.5926339,158.773438 10.219494,152.78125 10.1316964,148.040179 C10.0438988,143.299107 10,136.714286 10,128.285714 C10,119.857143 10.0438988,113.272321 10.1316964,108.53125 C10.219494,103.790179 10.5926339,97.7979911 11.2511161,90.5546875 C11.9095982,83.3113839 12.8973214,76.8363095 14.2142857,71.1294643 C15.6190476,64.7202381 18.6480655,59.3206845 23.3013393,54.9308036 C27.9546131,50.5409226 33.3980655,47.9947917 39.6316964,47.2924107 C59.1227679,45.0974702 88.578869,44 128,44 C167.421131,44 196.877232,45.0974702 216.368304,47.2924107 C222.601935,47.9947917 228.067336,50.5409226 232.764509,54.9308036 C237.461682,59.3206845 240.512649,64.7202381 241.917411,71.1294643 C243.146577,76.8363095 244.090402,83.3113839 244.748884,90.5546875 C245.407366,97.7979911 245.780506,103.790179 245.868304,108.53125 C245.956101,113.272321 246,119.857143 246,128.285714 Z"></path>
        </g>
    </g>
</svg>